<svg width="679" height="402" viewBox="0 0 679 402" fill="none" xmlns="http://www.w3.org/2000/svg">
<g style="mix-blend-mode:lighten" clip-path="url(#clip0)">
<path d="M309.3 253.3C308.3 252.6 308 251.3 308.7 250.2C309.4 249.2 310.7 248.9 311.8 249.6C312.8 250.3 313.1 251.6 312.4 252.7C311.7 253.7 310.3 254 309.3 253.3Z" fill="url(#paint0_radial)"/>
<path d="M309.5 253C308.7 252.4 308.4 251.3 309 250.5C309.6 249.7 310.7 249.4 311.5 250C312.3 250.6 312.6 251.7 312 252.5C311.5 253.4 310.4 253.6 309.5 253Z" fill="url(#paint1_radial)"/>
<path d="M311.6 251.5C311.6 252.1 311.1 252.5 310.6 252.5C310 252.5 309.6 252 309.6 251.5C309.6 250.9 310.1 250.5 310.6 250.5C311.1 250.4 311.6 250.9 311.6 251.5Z" fill="url(#paint2_linear)"/>
<path d="M302.7 107.3C301.7 106.6 301.4 105.3 302.1 104.2C302.8 103.2 304.1 102.9 305.2 103.6C306.2 104.3 306.5 105.6 305.8 106.7C305 107.7 303.7 108 302.7 107.3Z" fill="url(#paint3_radial)"/>
<path d="M302.9 107C302.1 106.4 301.8 105.3 302.4 104.5C303 103.7 304.1 103.4 304.9 104C305.7 104.6 306 105.7 305.4 106.5C304.8 107.3 303.7 107.5 302.9 107Z" fill="url(#paint4_radial)"/>
<path d="M303.9 106.4C304.452 106.4 304.9 105.952 304.9 105.4C304.9 104.848 304.452 104.4 303.9 104.4C303.348 104.4 302.9 104.848 302.9 105.4C302.9 105.952 303.348 106.4 303.9 106.4Z" fill="url(#paint5_linear)"/>
<path d="M605.1 122.5C604.1 121.8 603.8 120.5 604.5 119.4C605.2 118.3 606.5 118.1 607.6 118.8C608.6 119.5 608.9 120.8 608.2 121.9C607.5 123 606.1 123.2 605.1 122.5Z" fill="url(#paint6_radial)"/>
<path d="M605.3 122.2C604.5 121.6 604.2 120.5 604.8 119.7C605.4 118.9 606.5 118.6 607.3 119.2C608.1 119.8 608.4 120.9 607.8 121.7C607.2 122.5 606.1 122.7 605.3 122.2Z" fill="url(#paint7_radial)"/>
<path d="M606.3 121.6C606.852 121.6 607.3 121.152 607.3 120.6C607.3 120.048 606.852 119.6 606.3 119.6C605.748 119.6 605.3 120.048 605.3 120.6C605.3 121.152 605.748 121.6 606.3 121.6Z" fill="url(#paint8_linear)"/>
<path d="M560.9 252.2C559.9 251.5 559.6 250.2 560.3 249.1C561 248.1 562.3 247.8 563.4 248.5C564.4 249.2 564.7 250.5 564 251.6C563.3 252.6 561.9 252.9 560.9 252.2Z" fill="url(#paint9_radial)"/>
<path d="M561.1 251.9C560.3 251.3 560 250.2 560.6 249.4C561.2 248.6 562.3 248.3 563.1 248.9C563.9 249.5 564.2 250.6 563.6 251.4C563.1 252.2 562 252.4 561.1 251.9Z" fill="url(#paint10_radial)"/>
<path d="M563.2 250.3C563.2 250.9 562.7 251.3 562.2 251.3C561.6 251.3 561.2 250.8 561.2 250.3C561.2 249.7 561.7 249.3 562.2 249.3C562.7 249.3 563.2 249.7 563.2 250.3Z" fill="url(#paint11_linear)"/>
<path d="M0.999991 199.7C-9.47714e-06 199 -0.300009 197.7 0.399991 196.6C1.09999 195.6 2.39999 195.3 3.49999 196C4.59999 196.7 4.79999 198 4.09999 199.1C3.39999 200.2 1.99999 200.3 0.999991 199.7Z" fill="url(#paint12_radial)"/>
<path d="M1.2 199.4C0.399997 198.8 0.0999967 197.7 0.699997 196.9C1.3 196.1 2.4 195.8 3.2 196.4C4 197 4.3 198.1 3.7 198.9C3.2 199.7 2 199.9 1.2 199.4Z" fill="url(#paint13_radial)"/>
<path d="M2.19998 198.8C2.75227 198.8 3.19998 198.352 3.19998 197.8C3.19998 197.248 2.75227 196.8 2.19998 196.8C1.6477 196.8 1.19998 197.248 1.19998 197.8C1.19998 198.352 1.6477 198.8 2.19998 198.8Z" fill="url(#paint14_linear)"/>
<path d="M191.7 120.5C190.7 119.8 190.4 118.5 191.1 117.4C191.8 116.4 193.1 116.1 194.2 116.8C195.2 117.5 195.5 118.8 194.8 119.9C194.1 120.8 192.7 121.1 191.7 120.5Z" fill="url(#paint15_radial)"/>
<path d="M191.9 120.1C191.1 119.5 190.8 118.4 191.4 117.6C192 116.8 193.1 116.5 193.9 117.1C194.7 117.7 195 118.8 194.4 119.6C193.9 120.5 192.8 120.7 191.9 120.1Z" fill="url(#paint16_radial)"/>
<path d="M192.9 119.6C193.452 119.6 193.9 119.152 193.9 118.6C193.9 118.048 193.452 117.6 192.9 117.6C192.348 117.6 191.9 118.048 191.9 118.6C191.9 119.152 192.348 119.6 192.9 119.6Z" fill="url(#paint17_linear)"/>
<path d="M253.9 129.4C253.4 129.1 253.3 128.5 253.6 128C253.9 127.5 254.5 127.4 255 127.7C255.5 128 255.6 128.6 255.3 129.1C255 129.6 254.4 129.7 253.9 129.4Z" fill="url(#paint18_radial)"/>
<path d="M254 129.3C253.6 129 253.5 128.5 253.8 128.1C254.1 127.7 254.6 127.6 255 127.9C255.4 128.2 255.5 128.7 255.2 129.1C254.9 129.4 254.4 129.6 254 129.3Z" fill="url(#paint19_radial)"/>
<path d="M254.5 129.1C254.776 129.1 255 128.876 255 128.6C255 128.324 254.776 128.1 254.5 128.1C254.224 128.1 254 128.324 254 128.6C254 128.876 254.224 129.1 254.5 129.1Z" fill="url(#paint20_linear)"/>
<path d="M0.599976 119.5C0.0999756 119.2 -2.4423e-05 118.6 0.299976 118.1C0.599976 117.6 1.19998 117.5 1.69998 117.8C2.19998 118.1 2.29998 118.7 1.99998 119.2C1.69998 119.6 1.09998 119.8 0.599976 119.5Z" fill="url(#paint21_radial)"/>
<path d="M0.699964 119.3C0.299964 119 0.199964 118.5 0.499964 118.1C0.799964 117.7 1.29996 117.6 1.69996 117.9C2.09996 118.2 2.19996 118.7 1.89996 119.1C1.59996 119.5 1.09996 119.6 0.699964 119.3Z" fill="url(#paint22_radial)"/>
<path d="M1.19998 119.1C1.47612 119.1 1.69998 118.876 1.69998 118.6C1.69998 118.324 1.47612 118.1 1.19998 118.1C0.923839 118.1 0.699982 118.324 0.699982 118.6C0.699982 118.876 0.923839 119.1 1.19998 119.1Z" fill="url(#paint23_linear)"/>
<path d="M672.6 163.7C672.1 163.4 672 162.8 672.3 162.3C672.6 161.8 673.2 161.7 673.7 162C674.2 162.3 674.3 162.9 674 163.4C673.7 163.9 673 164 672.6 163.7Z" fill="url(#paint24_radial)"/>
<path d="M672.7 163.5C672.3 163.2 672.2 162.7 672.5 162.3C672.8 161.9 673.3 161.8 673.7 162.1C674.1 162.4 674.2 162.9 673.9 163.3C673.6 163.7 673.1 163.8 672.7 163.5Z" fill="url(#paint25_radial)"/>
<path d="M673.1 163.3C673.376 163.3 673.6 163.076 673.6 162.8C673.6 162.524 673.376 162.3 673.1 162.3C672.824 162.3 672.6 162.524 672.6 162.8C672.6 163.076 672.824 163.3 673.1 163.3Z" fill="url(#paint26_linear)"/>
<path d="M331.9 129.9C331.4 129.6 331.3 129 331.6 128.5C331.9 128 332.5 127.9 333 128.2C333.5 128.5 333.6 129.1 333.3 129.6C333 130.1 332.3 130.2 331.9 129.9Z" fill="url(#paint27_radial)"/>
<path d="M332 129.8C331.6 129.5 331.5 129 331.8 128.6C332.1 128.2 332.6 128.1 333 128.4C333.4 128.7 333.5 129.2 333.2 129.6C332.9 129.9 332.4 130 332 129.8Z" fill="url(#paint28_radial)"/>
<path d="M332.4 129.5C332.676 129.5 332.9 129.276 332.9 129C332.9 128.724 332.676 128.5 332.4 128.5C332.124 128.5 331.9 128.724 331.9 129C331.9 129.276 332.124 129.5 332.4 129.5Z" fill="url(#paint29_linear)"/>
<path d="M677.1 186.7C676.6 186.4 676.5 185.8 676.8 185.3C677.1 184.8 677.7 184.7 678.2 185C678.7 185.3 678.8 185.9 678.5 186.4C678.2 186.9 677.6 187 677.1 186.7Z" fill="url(#paint30_radial)"/>
<path d="M677.2 186.5C676.8 186.2 676.7 185.7 677 185.3C677.3 184.9 677.8 184.8 678.2 185.1C678.6 185.4 678.7 185.9 678.4 186.3C678.1 186.7 677.6 186.8 677.2 186.5Z" fill="url(#paint31_radial)"/>
<path d="M678.2 185.8C678.2 186.1 678 186.3 677.7 186.3C677.4 186.3 677.2 186.1 677.2 185.8C677.2 185.5 677.4 185.3 677.7 185.3C678 185.3 678.2 185.5 678.2 185.8Z" fill="url(#paint32_linear)"/>
<path d="M628.4 128.2C627.9 127.9 627.8 127.3 628.1 126.8C628.4 126.3 629 126.2 629.5 126.5C630 126.8 630.1 127.4 629.8 127.9C629.5 128.4 628.9 128.6 628.4 128.2Z" fill="url(#paint33_radial)"/>
<path d="M628.5 128.1C628.1 127.8 628 127.3 628.3 126.9C628.6 126.5 629.1 126.4 629.5 126.7C629.9 127 630 127.5 629.7 127.9C629.4 128.3 628.9 128.4 628.5 128.1Z" fill="url(#paint34_radial)"/>
<path d="M629.5 127.4C629.5 127.7 629.3 127.9 629 127.9C628.7 127.9 628.5 127.7 628.5 127.4C628.5 127.1 628.7 126.9 629 126.9C629.3 126.9 629.5 127.1 629.5 127.4Z" fill="url(#paint35_linear)"/>
<path d="M639.3 202C638.8 201.7 638.7 201.1 639 200.6C639.3 200.1 639.9 200 640.4 200.3C640.9 200.6 641 201.2 640.7 201.7C640.4 202.2 639.8 202.3 639.3 202Z" fill="url(#paint36_radial)"/>
<path d="M639.4 201.8C639 201.5 638.9 201 639.2 200.6C639.5 200.2 640 200.1 640.4 200.4C640.8 200.7 640.9 201.2 640.6 201.6C640.3 202 639.8 202.1 639.4 201.8Z" fill="url(#paint37_radial)"/>
<path d="M639.9 201.6C640.176 201.6 640.4 201.376 640.4 201.1C640.4 200.824 640.176 200.6 639.9 200.6C639.624 200.6 639.4 200.824 639.4 201.1C639.4 201.376 639.624 201.6 639.9 201.6Z" fill="url(#paint38_linear)"/>
<path d="M223.2 191.7C222.7 191.4 222.6 190.8 222.9 190.3C223.2 189.8 223.8 189.7 224.3 190C224.8 190.3 224.9 190.9 224.6 191.4C224.3 191.9 223.7 192 223.2 191.7Z" fill="url(#paint39_radial)"/>
<path d="M223.3 191.6C222.9 191.3 222.8 190.8 223.1 190.4C223.4 190 223.9 189.9 224.3 190.2C224.7 190.5 224.8 191 224.5 191.4C224.2 191.7 223.7 191.8 223.3 191.6Z" fill="url(#paint40_radial)"/>
<path d="M223.8 191.3C224.076 191.3 224.3 191.076 224.3 190.8C224.3 190.524 224.076 190.3 223.8 190.3C223.524 190.3 223.3 190.524 223.3 190.8C223.3 191.076 223.524 191.3 223.8 191.3Z" fill="url(#paint41_linear)"/>
<path d="M331.4 258.8C330.9 258.5 330.8 257.9 331.1 257.4C331.4 256.9 332 256.8 332.5 257.1C333 257.4 333.1 258 332.8 258.5C332.5 259 331.9 259.2 331.4 258.8Z" fill="url(#paint42_radial)"/>
<path d="M331.5 258.7C331.1 258.4 331 257.9 331.3 257.5C331.6 257.1 332.1 257 332.5 257.3C332.9 257.6 333 258.1 332.7 258.5C332.4 258.9 331.9 259 331.5 258.7Z" fill="url(#paint43_radial)"/>
<path d="M332 258.5C332.276 258.5 332.5 258.276 332.5 258C332.5 257.724 332.276 257.5 332 257.5C331.724 257.5 331.5 257.724 331.5 258C331.5 258.276 331.724 258.5 332 258.5Z" fill="url(#paint44_linear)"/>
<path d="M135.1 271.8C134.6 271.5 134.5 270.9 134.8 270.4C135.1 269.9 135.7 269.8 136.2 270.1C136.7 270.4 136.8 271 136.5 271.5C136.2 272 135.6 272.2 135.1 271.8Z" fill="url(#paint45_radial)"/>
<path d="M135.2 271.7C134.8 271.4 134.7 270.9 135 270.5C135.3 270.1 135.8 270 136.2 270.3C136.6 270.6 136.7 271.1 136.4 271.5C136.1 271.9 135.6 272 135.2 271.7Z" fill="url(#paint46_radial)"/>
<path d="M136.1 271C136.1 271.3 135.9 271.5 135.6 271.5C135.3 271.5 135.1 271.3 135.1 271C135.1 270.7 135.3 270.5 135.6 270.5C135.9 270.5 136.1 270.7 136.1 271Z" fill="url(#paint47_linear)"/>
<path d="M95.2 212.7C94.7 212.4 94.6 211.8 94.9 211.3C95.2 210.8 95.8 210.7 96.3 211C96.8 211.3 96.9 211.9 96.6 212.4C96.3 212.9 95.6 213 95.2 212.7Z" fill="url(#paint48_radial)"/>
<path d="M95.3 212.6C94.9 212.3 94.8 211.8 95.1 211.4C95.4 211 95.9 210.9 96.3 211.2C96.7 211.5 96.8 212 96.5 212.4C96.2 212.8 95.7 212.8 95.3 212.6Z" fill="url(#paint49_radial)"/>
<path d="M95.7 212.4C95.9762 212.4 96.2 212.176 96.2 211.9C96.2 211.624 95.9762 211.4 95.7 211.4C95.4239 211.4 95.2 211.624 95.2 211.9C95.2 212.176 95.4239 212.4 95.7 212.4Z" fill="url(#paint50_linear)"/>
<path d="M181.7 238.4C181.2 238.1 181.1 237.5 181.4 237C181.7 236.5 182.3 236.4 182.8 236.7C183.3 237 183.4 237.6 183.1 238.1C182.7 238.6 182.1 238.7 181.7 238.4Z" fill="url(#paint51_radial)"/>
<path d="M181.7 238.2C181.3 237.9 181.2 237.4 181.5 237C181.8 236.6 182.3 236.5 182.7 236.8C183.1 237.1 183.2 237.6 182.9 238C182.7 238.4 182.1 238.5 181.7 238.2Z" fill="url(#paint52_radial)"/>
<path d="M182.2 238C182.476 238 182.7 237.776 182.7 237.5C182.7 237.224 182.476 237 182.2 237C181.924 237 181.7 237.224 181.7 237.5C181.7 237.776 181.924 238 182.2 238Z" fill="url(#paint53_linear)"/>
<path d="M343 166.8C342.5 166.5 342.4 165.9 342.7 165.4C343 164.9 343.6 164.8 344.1 165.1C344.6 165.4 344.7 166 344.4 166.5C344.1 167 343.5 167.1 343 166.8Z" fill="url(#paint54_radial)"/>
<path d="M343.1 166.7C342.7 166.4 342.6 165.9 342.9 165.5C343.2 165.1 343.7 165 344.1 165.3C344.5 165.6 344.6 166.1 344.3 166.5C344 166.8 343.5 166.9 343.1 166.7Z" fill="url(#paint55_radial)"/>
<path d="M343.6 166.4C343.876 166.4 344.1 166.176 344.1 165.9C344.1 165.624 343.876 165.4 343.6 165.4C343.324 165.4 343.1 165.624 343.1 165.9C343.1 166.176 343.324 166.4 343.6 166.4Z" fill="url(#paint56_linear)"/>
</g>
<g opacity="0.78">
<path opacity="0.3" d="M262 277C262 279.823 261.798 282.847 261.597 285.669C260.79 296.355 258.774 306.637 255.548 316.516C255.548 316.718 255.548 316.718 255.347 316.919C253.935 321.355 252.121 325.589 250.105 329.823C246.274 337.887 241.839 345.548 236.395 352.403C233.371 356.435 230.145 360.065 226.718 363.694C215.629 375.185 202.323 384.661 187.403 391.315C178.331 395.347 168.855 398.371 158.976 399.984C151.718 401.194 144.258 402 136.798 402C109.177 402 83.371 392.927 62.8065 377.605C47.2823 366.113 34.5806 351.395 25.7097 334.056C24.0968 331.032 22.6855 327.806 21.2742 324.581C15.4274 309.863 12 293.734 12 277C12 275.79 12 274.782 12 273.774C12 272.968 12 271.96 12 271.153C12 270.75 12 270.145 12 269.742C12.2016 267.726 12.2016 265.911 12.4032 264.097C12.6048 263.089 12.6048 261.879 12.8065 260.871C13.0081 259.863 13.0081 258.855 13.2097 257.847C13.4113 256.839 13.6129 255.629 13.8145 254.621C14.0161 252.806 14.4194 251.194 14.8226 249.379C15.0242 248.371 15.2258 247.161 15.629 246.153C16.6371 242.524 17.6452 238.895 19.0565 235.266C19.2581 234.661 19.4597 234.258 19.6613 233.653C19.8629 233.048 20.0645 232.242 20.4677 231.637C20.871 230.629 21.2742 229.621 21.6774 228.815C22.0806 227.806 22.4839 227 22.8871 225.992C25.3065 220.347 28.3306 215.105 31.5565 209.863C31.9597 209.258 32.3629 208.653 32.7661 208.048C33.1694 207.242 33.7742 206.435 34.379 205.831C37 202 39.8226 198.573 42.6452 195.145C53.129 183.25 65.8306 173.169 79.9435 165.911C91.0323 160.065 102.726 156.032 115.226 153.815C122.282 152.605 129.54 152 137 152C156.355 152 174.702 156.435 191.234 164.298C193.653 165.508 196.073 166.718 198.492 168.129C198.694 168.331 198.895 168.331 199.298 168.532L199.5 168.734C205.548 172.161 211.194 176.194 216.637 180.629C224.702 187.282 231.96 194.944 238.008 203.21C241.234 207.645 244.056 212.282 246.677 216.919C250.105 222.968 252.927 229.419 255.145 236.274C255.347 236.677 255.347 237.081 255.548 237.484C255.75 237.887 255.75 238.29 255.952 238.694C258.371 246.556 260.185 254.621 261.194 263.089C261.395 265.306 261.597 267.726 261.798 269.944C261.798 272.161 262 274.581 262 277Z" fill="url(#paint57_radial)"/>
<path opacity="0.2" d="M262 277C262 279.823 261.798 282.847 261.597 285.669C261.194 287.081 260.589 288.29 259.581 289.5C257.968 291.113 255.347 292.121 253.129 292.524C249.702 293.331 246.073 293.734 242.645 294.137C238.411 294.742 234.177 295.548 230.145 296.96C222.484 299.581 214.823 302.605 207.565 306.234C199.903 310.064 192.04 313.492 183.774 316.113C179.339 317.524 174.903 318.532 170.468 319.742C168.452 320.347 166.234 320.952 164.218 321.355C161.395 321.96 158.573 322.968 155.75 323.573C152.121 324.379 148.492 325.589 144.863 326.395C140.629 327.202 136.597 328.814 132.363 329.419C128.935 329.823 125.71 330.226 122.282 330.024C120.871 329.823 119.46 329.621 117.847 329.621C115.831 329.419 113.815 329.419 112 329.419C109.177 329.218 106.355 329.419 103.532 329.823C100.306 330.226 97.2823 330.427 93.8548 330.024C90.8306 329.621 87.6048 328.613 84.7823 327.806C81.7581 327 78.3306 326.395 75.1048 326.395C73.8952 326.395 72.4839 326.597 71.2742 326.798C69.8629 327 68.6532 327 67.2419 327.202C65.4274 327.403 63.2097 327.403 61.1935 327.202C58.1694 327 55.1452 325.79 52.3226 324.782C49.2984 323.573 45.871 322.363 42.4435 321.758C39.4194 321.355 36.3952 320.145 33.371 320.75C32.9677 320.952 32.3629 320.75 31.9597 320.952C31.3548 320.952 30.75 321.355 29.9435 321.355C29.1371 321.556 28.3306 321.556 27.7258 321.96C27.3226 322.161 27.121 322.564 26.7177 322.766C26.3145 322.968 26.1129 323.371 25.7097 323.573C25.1048 323.976 24.5 323.976 23.8952 324.177C23.0887 324.581 22.2823 324.581 21.4758 324.379C15.4274 309.863 12 293.734 12 277C12 275.79 12 274.782 12 273.774C12 272.968 12 271.96 12 271.153C12 270.75 12 270.145 12 269.742C12.2016 267.726 12.2016 265.911 12.4032 264.097C12.6048 263.089 12.6048 261.879 12.8065 260.871C13.0081 259.863 13.0081 258.855 13.2097 257.847C13.4113 256.839 13.6129 255.629 13.8145 254.621C14.0161 252.806 14.4194 251.193 14.8226 249.379C15.0242 248.371 15.2258 247.161 15.629 246.153C16.6371 242.524 17.6452 238.895 19.0565 235.266C19.2581 234.661 19.4597 234.258 19.6613 233.653C19.8629 233.048 20.0645 232.242 20.4677 231.637C20.871 230.629 21.2742 229.621 21.6774 228.814C22.0806 227.806 22.4839 227 22.8871 225.992C25.3065 220.347 28.3306 215.105 31.5565 209.863C31.9597 209.258 32.3629 208.653 32.7661 208.048C33.1694 207.242 33.7742 206.435 34.379 205.831C37 202 39.8226 198.572 42.6452 195.145C41.6371 197.564 40.2258 200.387 40.8306 203.21C41.0323 204.016 41.2339 204.621 41.6371 205.427C41.6371 205.629 41.8387 205.629 41.8387 205.831C42.8468 204.218 43.8548 202.806 45.0645 201.193C46.4758 199.177 47.8871 197.161 49.2984 195.347C50.5081 193.734 52.121 192.322 53.3306 190.911C53.7339 190.508 54.9435 188.895 55.75 188.895C55.9516 189.702 55.1452 190.911 54.9435 191.718C54.5403 192.726 53.5323 193.734 53.129 194.943C52.9274 195.347 52.7258 196.153 53.3306 196.153C53.5323 196.153 53.9355 195.75 53.9355 195.75C54.5403 195.347 55.1452 194.742 55.9516 194.137C56.9597 193.331 57.9677 192.726 58.9758 192.121C60.1855 191.113 61.5968 190.105 63.0081 189.097C66.6371 186.476 70.2661 183.855 74.0968 181.435C78.129 179.016 82.3629 177 86.5968 174.984C88.8145 173.976 91.0323 172.766 93.25 171.96C94.8629 171.153 96.879 170.75 98.6935 170.347C100.105 169.943 101.718 169.943 103.331 169.742C104.54 169.54 105.952 169.54 107.161 169.54C108.371 169.54 109.379 169.339 110.589 169.339C111.194 169.339 111.798 169.54 112.605 169.742C112.806 169.742 113.411 169.943 113.613 170.145C114.218 171.153 111.395 170.952 111.194 171.153C109.581 171.96 108.371 173.572 107.161 174.782C105.952 175.79 104.742 176.798 103.734 177.806C102.726 178.814 101.315 179.822 100.71 181.234C100.508 181.839 100.306 182.443 100.508 183.048C100.911 183.653 101.718 183.452 102.323 183.452C104.137 183.048 105.75 182.645 107.363 182.04C109.581 181.435 111.597 180.831 113.815 180.024C115.629 179.419 117.444 178.814 119.46 178.613C121.274 178.411 123.29 178.008 125.105 177.806C126.315 177.605 127.323 177.403 128.532 177.605C129.54 177.605 130.347 177.403 131.355 177.403C133.169 177.403 131.758 179.218 130.952 179.822C128.129 181.435 125.508 183.25 122.282 183.855C118.653 184.661 115.024 185.064 111.597 186.274C109.177 187.081 106.556 187.887 104.137 188.895C102.726 189.5 101.516 189.903 100.306 190.508C98.4919 191.314 96.6774 192.322 94.8629 193.129C92.0403 194.339 89.4194 196.355 86.7984 197.968C84.379 199.581 82.1613 201.395 79.7419 203.21C77.7258 204.822 75.7097 206.435 73.8952 208.452C72.2823 210.064 70.6694 212.081 69.8629 214.097C68.8548 216.314 67.6452 218.935 67.6452 221.355C67.6452 223.169 68.6532 225.589 70.2661 226.597C72.0806 227.806 74.2984 229.016 76.5161 229.016C78.129 229.016 79.7419 229.016 81.1532 228.613C83.371 228.21 85.5887 227.202 88.0081 227.202C90.4274 227 93.0484 226.798 95.4677 227C98.4919 227.202 101.113 228.008 103.734 229.218C106.355 230.427 108.573 232.242 110.992 233.855C114.419 236.072 117.242 238.895 120.065 241.516C121.677 242.927 123.089 244.742 124.702 246.153C126.113 247.363 127.323 248.371 128.734 249.177C131.96 251.395 135.589 252.806 139.419 253.613C142.444 254.419 145.871 254.823 148.694 254.016C150.911 253.411 152.927 252.202 155.145 251.597C156.355 251.193 157.968 251.193 159.379 251.597C161.597 252 163.613 252.202 165.831 252.202C166.839 252.202 168.048 252 169.056 252C170.266 251.798 171.274 252.202 172.282 252.403C173.089 252.605 174.097 253.008 173.089 253.814C172.081 254.621 169.863 254.419 168.452 254.419C166.032 254.419 163.815 254.419 161.395 254.621C160.589 254.823 158.169 255.024 157.968 256.234C157.766 257.645 161.194 257.645 162 257.443C164.218 257.242 166.234 257.04 168.452 256.839C171.073 256.637 173.694 257.242 176.315 257.645C178.935 257.847 181.556 258.653 184.177 258.855C185.387 258.855 186.395 258.653 187.605 258.452C189.419 258.048 191.032 257.645 192.847 257.04C195.669 256.234 198.492 255.024 201.516 254.419C204.339 253.814 206.556 254.016 209.379 254.419C210.589 254.621 212 254.823 213.21 255.024C214.419 255.226 215.831 255.226 217.04 255.226C220.669 255.629 224.5 254.419 227.726 253.008C231.758 251.395 235.387 248.976 239.419 247.766C242.04 246.96 244.661 246.556 247.484 246.355C248.089 246.355 248.895 245.952 249.5 246.153C249.903 246.153 250.105 246.556 250.508 246.556C251.315 246.758 251.516 246.153 251.718 245.548C251.919 244.943 252.524 244.339 252.726 243.734C252.927 243.129 253.129 242.524 253.331 241.718C253.532 240.911 253.532 240.306 253.734 239.5C253.935 239.097 255.145 237.081 255.548 237.081C255.75 237.282 255.952 237.887 255.952 238.29C255.952 238.492 255.952 238.492 255.952 238.693C255.952 239.097 256.153 239.298 256.355 239.5C258.774 247.363 260.589 255.427 261.597 263.895C260.589 263.492 259.782 263.29 258.774 263.089C257.363 262.685 255.952 262.484 254.54 262.282C253.129 262.081 251.919 261.677 250.508 261.476C247.685 261.072 244.863 261.879 242.242 262.887C241.032 263.29 239.621 263.895 238.411 264.5C237.202 265.105 236.194 265.71 234.984 266.314C233.774 266.919 232.565 267.323 231.153 267.726C229.137 268.331 227.323 269.339 225.508 270.145C222.484 271.153 219.46 272.766 216.435 273.572C213.613 274.379 210.79 274.984 207.766 275.185C205.145 275.387 202.726 274.581 200.105 274.984C199.097 275.185 198.089 275.387 197.081 275.589C196.274 275.79 195.468 276.193 194.46 276.193C193.048 276.193 191.839 276.395 190.427 276.395C188.21 276.597 185.992 276.798 183.774 276.798C182.161 276.798 180.347 277 178.734 277.202C177.121 277.403 175.71 277.403 174.097 277.806C172.685 278.008 171.073 278.411 169.661 279.016C169.258 279.218 168.25 279.621 168.25 280.226C168.25 280.629 168.855 280.831 169.258 281.032C170.266 281.435 171.476 281.435 172.685 281.435C173.694 281.435 174.702 281.234 175.508 281.234C176.919 281.032 178.129 281.234 179.54 281.032C183.976 280.629 188.008 281.234 192.242 282.04C194.863 282.645 197.484 282.847 200.105 282.443C203.734 281.839 207.161 280.831 210.79 280.226C217.242 279.218 223.492 278.008 229.742 276.798C232.766 276.193 235.79 275.185 238.815 274.581C240.226 274.379 241.435 274.177 242.847 273.774C244.661 273.371 246.677 273.371 248.492 272.968C251.315 272.564 253.935 271.556 256.758 271.153C258.573 270.952 260.185 270.75 261.798 270.75C261.798 272.161 262 274.581 262 277Z" fill="#081129"/>
<path opacity="0.2" d="M236.597 352.403C218.048 377 190.629 394.339 159.177 399.984C159.177 399.984 159.177 399.782 158.976 399.782C157.363 397.968 155.347 396.355 153.532 394.742C151.516 392.927 149.5 390.911 147.282 389.298C143.25 386.476 139.016 384.056 134.782 381.637C130.347 379.016 125.71 376.597 120.871 374.984C118.25 374.177 115.427 373.169 112.605 372.564C109.177 371.96 105.548 371.758 102.121 371.355C91.2338 370.145 79.7419 370.952 69.4596 374.581C67.2419 375.387 65.0242 376.193 63.008 377.202C62.8064 377.202 62.8064 377.403 62.6048 377.403C47.0806 365.911 34.379 351.193 25.508 333.855C26.7177 333.452 27.9274 333.048 28.9354 333.048C29.9435 333.048 30.75 333.048 31.758 333.048C33.3709 333.048 34.9838 333.855 36.5967 334.46C40.8306 335.871 44.8629 337.282 49.5 336.677C50.7096 336.476 51.7177 336.476 52.9274 336.073C53.9354 335.871 54.9435 335.266 55.9516 335.064C57.3629 334.863 58.9758 334.863 60.3871 335.064C61.5967 335.064 62.8064 335.468 63.8145 335.669C64.8225 335.871 66.0322 335.871 67.0403 336.073C68.25 336.274 69.258 336.677 70.4677 336.677C71.6774 336.677 72.8871 336.476 74.2983 336.476C76.7177 336.073 79.1371 335.468 81.5564 334.661C83.3709 334.056 85.1854 334.056 87 333.855C91.8387 333.25 96.2742 335.064 100.911 336.476C103.532 337.282 106.153 337.282 108.774 337.484C111.597 337.685 114.218 337.887 117.04 337.685C121.274 337.685 125.508 337.282 129.54 336.677C131.153 336.476 132.968 336.274 134.581 335.871C137.605 335.266 140.831 334.863 143.855 334.258C151.314 332.847 158.976 331.032 166.435 328.613C169.661 327.605 172.887 326.193 176.113 325.185C177.524 324.782 178.935 324.379 180.145 324.177C181.556 323.976 182.968 323.573 184.177 324.177C184.984 324.581 185.387 325.185 184.984 326.193C184.581 327 183.169 327.806 182.363 328.21C181.153 329.016 179.944 329.218 178.734 329.621C176.314 330.427 174.097 331.435 171.677 332.242C170.266 332.645 168.855 333.048 167.242 333.25C165.427 333.653 164.016 334.258 162.202 334.863C160.79 335.468 159.581 336.274 158.169 336.879C156.153 337.685 154.137 338.089 152.121 338.895C147.081 340.911 142.242 343.734 136.798 344.943C134.984 345.347 133.371 345.952 131.758 346.355C130.952 346.556 129.742 346.96 129.742 348.169C129.742 349.782 132.161 350.387 133.169 350.589C134.984 350.992 136.597 351.597 138.411 352C139.621 352.202 140.629 352.806 141.839 353.411C143.452 354.218 145.064 354.823 146.879 355.226C150.71 356.234 154.742 356.839 158.774 356.637C164.218 356.435 169.863 355.226 175.306 355.629C177.726 355.831 179.944 356.234 182.363 357.04C184.581 357.645 186.798 358.048 189.218 358.452C195.064 359.46 201.314 359.056 207.161 358.855C211.395 358.653 215.629 357.847 219.863 357.04C222.685 356.435 225.71 356.234 228.532 355.024C229.742 354.419 231.153 354.218 232.363 353.613C233.169 353.21 233.774 353.008 234.581 352.605C235.185 353.008 235.79 352.605 236.597 352.403Z" fill="#081129"/>
<path opacity="0.2" d="M255.548 316.516C253.935 320.952 252.323 325.387 250.306 329.823C250.105 329.823 250.105 330.024 250.105 330.024C248.694 330.831 247.282 331.839 246.073 333.048C245.064 333.855 244.056 334.661 242.847 335.266C242.04 335.669 241.435 336.073 240.629 336.476C239.823 336.879 239.016 337.484 238.21 337.887C236.798 338.694 235.79 339.702 234.581 340.71C234.177 341.113 233.774 341.516 233.371 341.919C232.968 342.121 232.565 342.323 232.363 342.726C231.758 343.331 231.153 343.935 230.347 344.54C228.935 345.75 227.121 346.556 225.508 347.363C224.298 347.968 223.29 348.169 222.081 348.573C220.871 348.976 219.46 349.379 218.25 349.581C217.04 349.984 215.629 350.387 214.419 350.79C213.008 351.194 211.597 351.395 210.185 351.597C207.968 352 205.75 351.798 203.532 352.403C202.323 352.605 201.315 353.008 200.105 353.21C198.895 353.411 197.887 353.814 196.677 354.016C194.661 354.218 192.645 354.218 190.629 354.016C190.024 353.814 189.218 354.016 188.613 353.814C188.21 353.814 187.806 353.613 187.202 353.613C187 353.613 186.597 353.613 186.395 353.613C184.581 353.411 182.565 353.613 180.75 353.814C178.935 354.016 176.919 354.016 175.105 354.218C174.097 354.218 173.29 354.218 172.282 354.218C171.274 354.016 170.065 354.218 169.056 354.218C166.637 354.419 164.218 354.218 162 353.814C162 352.403 162.605 352 163.008 351.395C163.21 351.194 163.21 350.992 163.613 350.79C164.016 350.589 164.419 350.387 164.823 350.387C165.024 350.185 165.427 350.185 165.629 349.984C166.234 349.782 167.04 349.782 167.645 349.581C168.452 349.379 169.056 349.177 169.863 349.177C170.669 349.177 171.677 349.177 172.484 349.379C173.29 349.379 173.895 349.379 174.702 349.581C176.113 349.581 177.524 349.782 178.734 350.185C179.944 350.589 181.355 350.992 182.766 351.395C186.798 352.403 191.032 354.016 195.266 353.008C195.871 352.806 196.274 352.806 196.879 352.806C197.887 352.605 198.694 352.202 199.702 352C202.121 351.395 204.54 350.992 206.96 350.185C207.968 349.782 209.177 349.379 210.185 348.976C211.194 348.573 212 347.766 213.008 347.363C214.016 346.96 215.024 346.355 216.032 345.952C217.04 345.548 218.048 345.145 218.855 344.742C221.073 343.734 223.492 342.524 225.71 341.314C227.726 340.105 229.742 338.694 231.556 337.282C233.774 335.669 235.992 333.653 238.21 332.04C239.823 330.831 241.637 329.823 243.452 329.016C244.46 328.411 245.871 328.008 246.677 327C247.685 325.79 248.29 324.379 249.097 323.169C249.903 321.758 251.113 320.75 252.323 319.944C252.927 319.54 253.532 319.137 254.137 318.734C254.137 317.726 254.742 317.121 255.548 316.516Z" fill="#081129"/>
<path opacity="0.2" d="M214.823 175.387C214.823 175.589 215.024 175.79 215.024 175.992C214.823 176.194 214.823 175.992 214.823 175.387Z" fill="#081129"/>
<path opacity="0.2" d="M246.476 216.919C243.855 219.54 240.427 221.556 237.403 222.968C232.766 224.984 227.524 224.379 222.686 224.984C221.677 225.185 221.073 225.589 220.266 225.79C219.46 225.992 218.452 225.589 217.645 225.79C215.427 225.992 213.613 226.597 211.194 226.395C208.169 226.395 205.548 227 202.524 227C199.702 227 195.468 227.806 192.847 226.798C193.048 225.589 196.879 224.984 198.089 224.379C200.508 223.371 202.927 222.968 205.75 222.968C207.363 222.968 208.573 222.363 210.186 222.161C211.597 221.96 212.806 222.363 214.218 221.96C215.629 221.758 219.661 220.952 219.056 218.734C219.056 218.331 217.847 216.919 217.444 216.718C216.839 216.113 215.831 215.71 215.024 215.508C213.411 215.105 212.202 215.306 213.815 213.492C214.823 212.282 216.032 210.468 213.613 209.863C211.798 209.46 209.984 210.266 208.169 210.669C207.363 210.871 206.355 210.468 205.548 210.871C204.742 211.073 203.734 211.677 202.927 211.879C201.718 212.081 200.71 211.879 199.5 212.282C198.29 212.484 197.282 212.685 196.073 212.685C191.637 212.887 186.798 215.71 182.363 214.5C180.548 214.097 178.734 213.694 176.919 213.29C174.097 212.685 171.073 213.694 168.452 214.097C165.024 214.5 161.597 214.903 158.169 215.508C156.153 215.911 153.734 216.718 151.718 216.113C152.524 215.306 154.339 215.306 155.548 214.903C158.371 214.097 161.395 213.694 164.218 213.089C167.242 212.484 170.669 212.081 173.694 211.677C175.71 211.476 177.927 211.879 179.944 211.476C185.589 210.468 191.436 209.46 196.677 207.444C201.718 205.226 205.75 200.79 209.581 196.96C211.597 194.944 214.016 192.927 215.226 190.306C215.831 188.895 216.435 187.081 216.839 185.669C217.242 184.258 217.04 182.444 216.436 180.629C228.734 190.508 239.016 203.008 246.476 216.919Z" fill="#081129"/>
<path opacity="0.2" d="M27.7258 225.387C28.9355 222.766 29.9435 219.137 31.9597 216.718C32.3629 216.113 33.1693 215.71 33.5726 215.307C34.379 214.5 35.5887 212.282 37 212.282C38.8145 212.282 36.5968 214.903 38.6129 214.903C40.8306 214.702 42.6452 212.484 44.2581 211.274C44.8629 210.871 46.6774 210.065 47.4839 210.266C48.4919 210.468 48.0887 210.871 48.2903 211.678C49.0968 211.678 49.7016 211.073 50.3064 210.468C51.7177 209.057 52.9274 207.645 54.9435 206.637C55.9516 206.234 59.5806 203.613 60.7903 204.823C62 205.831 58.5726 209.863 58.1693 210.266C56.1532 212.686 54.7419 216.113 53.9355 219.137C52.7258 223.976 56.5564 229.621 60.7903 231.839C61.7984 232.444 62.8064 233.049 63.8145 233.653C65.2258 234.661 66.6371 234.863 68.4516 235.266C72.0806 236.073 75.5081 237.686 79.3387 238.089C83.1694 238.492 87.4032 238.29 91.0323 237.484C93.0484 237.081 95.871 236.678 97.8871 237.686C99.2984 238.492 100.306 239.903 101.315 241.315C102.323 242.726 104.339 243.532 105.75 244.54C107.565 245.75 109.782 246.758 111.798 247.766C113.008 248.573 114.218 249.379 115.427 250.186C116.637 250.992 117.847 251.194 118.855 252.202C120.468 253.815 121.879 255.428 121.879 257.847C121.879 259.258 120.669 259.46 120.065 260.468C121.677 261.678 123.895 261.879 125.71 263.089C126.315 263.492 127.726 264.097 127.524 264.903C127.121 266.113 123.492 265.911 122.887 265.911C115.629 265.911 108.371 265.71 101.113 265.911C98.6935 265.911 96.0726 266.315 93.4516 266.718C92.6452 266.919 91.6371 267.121 91.0323 267.928C92.2419 268.936 93.8548 269.137 95.4677 269.339C99.0968 269.742 102.726 270.75 106.556 271.355C110.185 271.96 113.21 273.371 116.637 274.178C118.048 274.581 119.46 274.984 120.871 275.387C122.685 275.79 124.5 275.79 126.315 275.992C133.774 276.597 141.435 274.984 149.097 274.984C151.919 274.984 154.742 274.782 157.564 274.581C160.185 274.178 162.403 273.573 164.823 272.766C166.234 272.161 167.847 271.96 169.258 271.557C170.669 271.153 172.081 270.549 173.694 270.145C176.314 269.54 179.137 269.137 181.758 269.137C184.177 269.137 186.597 269.742 189.016 269.54C192.847 269.137 196.274 267.726 200.105 267.121C206.96 266.113 213.613 264.299 220.064 261.678C222.484 260.669 225.306 260.266 227.927 259.863C228.734 259.863 229.339 259.46 230.145 259.258C230.75 259.258 231.355 259.258 232.161 259.258C233.573 258.855 234.782 258.049 235.992 257.444C237.605 256.436 239.419 254.823 241.234 254.016C243.25 253.21 245.468 252.807 247.484 252C248.29 251.799 249.097 251.395 249.903 251.194C250.508 250.992 251.315 250.992 251.718 250.589C250.508 251.799 248.29 252.202 246.677 252.807C245.065 253.411 243.048 254.419 241.839 255.428C240.831 256.234 240.226 257.04 239.218 257.847C236.798 259.258 234.984 261.073 232.363 261.678C228.129 262.887 224.298 264.5 220.064 265.71C215.831 266.919 211.395 267.524 207.161 268.331C198.089 270.347 188.814 271.96 179.742 272.766C176.113 273.169 172.282 273.774 168.855 274.581C167.444 274.984 166.435 275.79 165.024 276.194C163.21 276.597 161.597 277.202 159.984 277.807C156.556 279.016 152.927 280.024 149.5 281.234C147.685 281.839 144.661 282.04 143.855 284.057C145.065 285.065 146.677 284.661 148.29 284.661C149.298 284.661 150.71 284.863 151.718 284.661C152.927 284.46 154.54 283.653 155.75 283.25C156.96 282.645 158.169 282.242 159.581 281.839C160.992 281.436 161.395 280.831 162.806 280.831C163.613 280.831 164.419 281.032 165.226 280.629C165.831 280.428 166.234 280.024 167.242 280.226C166.839 281.032 165.427 281.637 164.621 281.839C163.613 282.444 162.806 282.444 161.798 283.25C160.79 284.057 160.387 284.661 161.798 285.266C163.21 286.073 165.629 285.669 167.242 285.669C172.685 285.468 177.927 283.25 183.371 284.46C186.395 285.065 189.419 285.871 192.444 286.274C196.073 286.879 200.105 287.081 203.734 286.476C207.363 286.073 210.992 284.863 214.823 284.46C216.839 284.258 218.855 283.653 220.871 283.25C223.492 282.847 226.113 282.444 228.734 281.839C231.96 281.234 235.185 280.428 238.411 280.024C240.831 279.621 243.452 279.419 245.871 279.016C246.677 278.815 247.484 278.815 248.29 278.815C249.097 278.815 248.895 279.016 249.5 279.218C250.306 279.419 251.113 279.621 251.919 280.024C252.726 280.428 254.137 280.226 254.339 281.234C248.694 285.065 241.032 285.468 234.581 287.282C230.347 288.492 226.113 289.903 221.879 291.315C216.839 292.928 211.798 294.339 206.758 295.952C201.919 297.565 197.282 299.379 192.645 300.79C188.814 302 184.984 303.613 180.952 304.823C178.935 305.428 177.121 306.436 175.105 307.04C173.089 307.645 171.274 308.25 169.258 308.855C167.645 309.46 166.032 309.863 164.218 310.266C162 310.871 159.984 311.678 157.968 312.484C155.75 313.29 153.532 313.492 151.314 314.299C149.5 314.903 147.887 315.71 146.073 316.315C143.25 317.121 140.427 317.726 137.605 318.331C135.589 318.734 133.573 319.742 131.556 320.145C129.137 320.549 126.919 320.75 124.702 320.75C122.484 320.75 120.468 321.355 118.25 321.355C116.435 321.355 114.419 321.153 112.605 321.557C109.581 321.96 106.556 321.96 103.532 321.96C102.323 321.96 101.113 321.96 100.105 321.96C98.8952 321.96 97.2822 322.363 96.2742 321.758C96.4758 321.355 98.4919 321.153 99.0968 320.952C100.306 320.75 101.718 320.75 103.129 320.75C104.54 320.75 105.952 320.75 107.363 320.549C108.976 320.347 110.589 320.347 112.202 320.145C114.419 319.742 116.839 319.54 119.056 318.734C120.468 318.331 121.476 317.524 122.685 316.919C123.694 316.516 124.903 316.516 125.911 316.315C127.726 315.911 129.339 315.508 131.153 315.307C132.161 315.105 133.169 315.307 134.177 315.105C135.79 314.903 137.202 314.299 138.815 313.694C141.435 312.686 143.855 311.879 146.476 310.669C147.887 310.065 149.298 309.46 150.105 308.25C151.919 305.629 147.685 306.234 146.274 306.436C142.645 307.444 138.815 308.855 134.984 309.057C133.371 309.258 131.758 309.46 129.944 309.46C126.919 310.871 124.903 311.274 122.685 311.274C120.669 311.274 118.855 311.678 116.839 311.879C114.016 312.081 111.194 312.282 108.371 312.484C105.145 312.686 102.121 313.492 99.0968 313.694C96.6774 313.895 94.4597 314.097 92.0403 314.299C88.6129 314.702 85.3871 315.71 81.9597 316.315C80.1452 316.718 78.129 317.323 76.3145 317.524C74.2984 317.928 72.2823 317.524 70.2661 317.121C66.8387 316.516 63.4113 316.315 60.1855 315.508C55.5484 314.299 51.1129 311.678 47.6855 308.653C44.2581 305.428 40.4274 303.613 35.7903 302.807C32.1613 302.202 28.7339 303.008 25.3064 304.016C22.6855 304.823 20.0645 305.226 17.2419 305.226C14.0161 305.024 15.629 302.202 15.8306 299.984C16.0323 294.339 15.8306 288.694 16.4355 283.049C16.6371 281.234 18.4516 264.097 21.2742 265.508C21.6774 266.919 21.6774 268.129 21.879 269.54C22.0806 270.75 22.8871 271.355 23.0887 272.363C23.8952 272.363 24.7016 268.936 24.9032 268.331C25.5081 265.71 26.3145 263.089 26.7177 260.468C27.3226 257.04 27.7258 253.815 27.5242 250.387C27.121 249.178 26.9193 247.766 26.1129 246.758C25.5081 245.952 25.1048 246.153 24.0968 246.153C22.2823 246.153 21.6774 244.137 21.6774 242.726C21.6774 240.105 22.2823 237.686 23.2903 235.266C24.0968 232.645 25.3064 230.629 26.1129 228.21C26.3145 227.403 27.3226 224.984 27.7258 225.387Z" fill="#081129"/>
<path opacity="0.2" d="M226.919 363.694C215.831 375.186 202.524 384.661 187.605 391.315C185.387 390.71 182.766 389.702 180.548 389.5C179.137 389.5 176.113 389.298 174.903 388.089C173.694 386.879 176.919 386.678 177.726 386.476C178.936 386.274 180.952 386.476 181.355 385.065C182.161 381.839 171.073 380.831 169.258 380.428C166.032 379.621 162.403 379.621 159.177 379.621C157.161 379.621 155.145 379.218 153.331 378.613C151.516 378.008 149.702 377.605 147.887 377.202C144.258 375.992 140.427 375.186 136.597 374.782C135.992 374.782 131.758 374.379 131.557 373.774C133.573 373.169 135.79 372.565 137.807 372.161C138.613 371.96 139.016 372.363 139.621 372.565C140.427 372.766 141.436 372.766 142.242 372.968C150.911 375.186 159.984 375.387 168.855 375.186C170.065 375.186 171.073 374.782 172.282 374.581C173.29 374.581 174.097 374.581 175.105 374.581C178.129 374.581 181.153 374.178 183.976 373.371C186.597 372.766 189.218 372.363 191.839 371.557C192.645 371.355 195.266 371.153 195.266 370.145C194.057 369.742 192.04 370.145 190.831 370.145C188.613 370.145 186.395 370.145 184.177 369.944C181.557 369.54 178.936 369.742 176.315 369.339C174.702 369.137 172.887 369.137 171.476 368.129C172.282 367.121 174.298 366.919 175.508 366.718C177.927 366.315 180.347 366.113 182.766 365.71C188.815 364.903 194.863 364.5 200.911 364.298C204.137 364.097 207.565 363.492 210.79 363.694C213.411 363.895 215.831 364.298 218.25 364.298C220.266 364.298 222.081 364.097 224.097 364.298C225.105 363.895 226.113 363.694 226.919 363.694Z" fill="#081129"/>
<g opacity="0.3">
<path opacity="0.3" d="M75.9113 242.726C75.508 244.742 74.5 247.161 75.7096 248.976C76.3145 249.984 77.1209 250.387 78.129 250.79C80.75 252.202 83.9758 253.21 87 252.806C89.2177 252.403 92.0403 252 94.0564 250.79C95.6693 249.984 96.4758 247.968 96.879 246.355C97.2822 244.742 97.2822 242.726 95.6693 241.919C95.2661 241.718 94.8629 241.315 94.4596 241.113C93.8548 240.911 92.8467 240.911 92.2419 240.71C90.2258 240.71 88.6129 240.71 86.7984 240.71C85.5887 240.71 84.379 240.71 83.3709 240.71C82.3629 240.71 81.3548 241.113 80.3467 241.315C78.7338 241.718 76.7177 241.718 75.9113 242.726Z" fill="#07F9A2"/>
<path opacity="0.3" d="M97.8871 249.581C98.6935 248.774 99.5 247.968 100.508 247.363C101.113 247.766 102.121 247.968 102.323 248.573C102.524 249.379 102.726 249.782 102.121 250.387C101.718 250.992 100.911 251.194 100.105 250.992C99.2984 250.79 98.2903 250.387 98.0887 249.581H97.8871Z" fill="#07F9A2"/>
<path opacity="0.3" d="M89.621 254.621C91.0323 254.016 91.8387 253.411 93.25 253.008C93.8548 252.807 94.4597 252.403 95.0645 252.403C95.6694 252.202 96.2742 252.202 97.0807 252.202C97.8871 252.202 98.2903 252 98.8952 252.605C99.2984 253.008 99.7016 253.613 100.105 254.218C100.508 254.823 100.71 255.427 100.71 256.234C100.508 257.242 99.9032 258.048 99.2984 258.855C98.2903 260.065 96.6774 260.669 95.2661 261.274C93.8548 261.879 91.6371 262.686 90.0242 262.484C89.2178 262.282 88.4113 261.879 87.6049 261.678C86.3952 261.274 84.9839 261.274 83.7742 261.073C82.3629 260.871 80.75 260.065 81.1532 258.452C81.7581 256.637 84.1774 255.427 85.7903 255.226C86.5968 255.024 87.2016 255.024 88.0081 254.823C88.4113 254.419 88.8145 254.621 89.621 254.621Z" fill="#07F9A2"/>
<path opacity="0.3" d="M104.742 251.798C103.936 252.605 103.532 253.613 103.331 254.621C103.734 254.621 103.734 254.823 104.137 254.823C104.339 254.823 104.54 254.621 104.742 254.621C105.347 254.419 105.75 254.419 105.952 253.613C105.952 253.21 106.153 252.605 105.75 252.403C105.548 252.202 104.742 251.798 104.339 251.798H104.742Z" fill="#07F9A2"/>
<path opacity="0.3" d="M118.452 278.613C114.218 278.21 109.782 277.202 105.548 277.403C100.71 277.403 95.6694 279.218 92.242 282.444C90.6291 283.855 89.0162 285.065 89.0162 287.282C89.0162 288.895 90.0242 289.903 91.2339 290.911C93.25 292.323 95.6694 292.928 97.8871 293.734C100.105 294.339 102.524 294.944 104.944 295.145C107.161 295.347 109.379 295.548 111.597 295.145C113.815 294.742 116.234 294.137 118.25 293.532C119.863 292.928 122.081 292.323 123.089 290.71C123.694 289.702 124.097 288.694 124.097 287.484C124.097 285.065 124.298 282.645 122.484 280.831C121.274 279.419 120.065 278.613 118.452 278.613Z" fill="#07F9A2"/>
<path opacity="0.3" d="M129.54 278.815C129.944 279.823 130.347 280.831 131.153 281.839C131.758 281.234 133.169 281.637 133.774 281.637C134.379 281.637 134.984 281.436 135.589 281.436C136.597 281.234 138.008 281.234 138.008 279.823C138.008 278.21 136.194 278.008 134.782 278.008C132.968 278.008 131.153 277.605 129.944 279.016H129.54V278.815Z" fill="#07F9A2"/>
<path opacity="0.3" d="M91.4355 296.355C93.0484 296.557 94.6613 296.758 96.4758 296.96C98.0887 297.161 99.7016 297.161 101.315 297.565C102.323 297.766 103.129 297.968 103.532 298.976C103.734 299.379 103.936 299.782 103.734 300.387C103.331 301.194 102.323 301.597 101.516 301.799C100.306 302.202 99.0968 302.807 97.6855 303.21C94.8629 303.815 92.0403 304.621 89.2178 304.621C87.8065 304.621 86.1936 304.016 85.3871 302.605C84.7823 301.395 84.5807 299.984 85.1855 298.774C85.992 297.161 87.4033 296.355 89.0162 296.355C89.621 296.355 90.2258 296.355 90.8307 296.557C91.4355 296.758 92.0404 296.758 91.4355 296.355Z" fill="#07F9A2"/>
<path opacity="0.3" d="M20.6694 290.71C20.2661 293.129 20.0645 295.549 20.0645 298.169C20.0645 299.178 20.4678 300.387 21.2742 300.79C22.2823 301.395 24.0968 301.194 25.1048 300.992C26.7178 300.589 28.129 299.379 29.5403 298.573C30.5484 297.968 31.1532 297.161 31.7581 296.153C32.9678 294.742 33.371 292.928 33.7742 291.113C34.1774 289.097 34.1774 286.879 33.9758 284.863C33.7742 282.847 32.9678 280.831 32.1613 279.016C31.3548 277.202 30.1452 276.194 28.129 276.395C26.7178 276.597 25.1048 277.403 23.6936 278.21C22.6855 278.815 22.0807 279.621 21.4758 280.629C20.871 281.436 20.871 282.444 20.4678 283.452C20.2661 284.258 20.0645 285.065 20.0645 285.871C19.8629 287.484 20.0645 289.702 20.6694 290.71Z" fill="#07F9A2"/>
<path opacity="0.3" d="M27.7258 271.153C27.5242 269.944 26.7177 268.331 27.3225 267.323C27.3225 267.121 27.5242 266.919 27.7258 266.718C27.9274 266.315 28.3306 265.911 28.7338 265.911C29.9435 265.71 30.9516 266.919 31.1532 267.928C31.3548 268.936 31.5564 270.347 30.9516 271.153C30.5484 271.758 28.9354 272.363 28.5322 271.758L27.7258 271.153Z" fill="#07F9A2"/>
<path opacity="0.3" d="M30.3468 261.073C30.1452 257.847 28.9355 254.016 31.1532 250.992C31.9597 249.984 32.9677 248.573 34.379 248.774C35.1855 248.976 35.9919 249.782 36.5968 250.387C37.4032 251.395 38.0081 252.605 38.4113 253.613C38.8145 254.621 39.2177 255.629 39.2177 256.839C39.2177 258.049 39.0161 259.46 38.6129 260.669C38.0081 262.282 36.7984 263.694 35.1855 264.097C33.9758 264.5 32.9677 264.097 31.9597 263.492C31.1532 263.089 30.3468 261.879 30.3468 261.073Z" fill="#07F9A2"/>
<path opacity="0.3" d="M28.129 245.347C28.3306 246.355 28.7339 247.363 29.5403 248.371C29.9435 248.169 30.3468 248.169 30.75 247.968C31.1532 247.766 31.7581 247.363 31.9597 246.96C32.3629 246.355 32.5645 245.75 32.3629 245.145C32.1613 244.54 31.1532 243.734 30.5484 243.532C29.5403 242.726 28.9355 243.734 28.129 244.54V245.347Z" fill="#07F9A2"/>
<path opacity="0.3" d="M143.25 294.944C144.46 294.339 146.073 293.331 147.484 293.129C148.29 292.928 149.298 292.524 150.105 292.323C152.323 291.718 154.54 291.516 156.758 291.315C157.968 291.113 159.177 291.315 160.387 291.113C161.395 290.911 162.202 290.71 163.008 290.71C165.629 290.307 168.452 289.5 171.073 289.097C172.282 288.895 173.694 288.694 174.903 288.492C175.71 288.492 176.516 288.29 177.323 288.29C178.936 288.29 180.347 288.089 181.96 288.089C188.008 288.089 193.25 290.307 198.895 291.92C200.105 292.323 201.516 292.524 202.726 292.726C204.339 293.129 206.557 293.734 208.169 293.129C209.984 292.726 209.379 290.71 208.169 289.903C206.758 288.895 204.944 288.694 203.331 288.694C202.323 288.694 201.315 288.492 200.508 288.694C199.097 288.895 196.678 289.5 196.476 291.113C196.274 291.718 196.476 292.323 196.476 292.928C196.476 293.331 196.476 293.734 196.476 294.137C196.274 295.549 194.661 296.96 193.653 297.565C193.048 297.968 192.444 298.17 191.839 298.573C191.032 299.178 190.427 299.379 189.621 299.782C188.411 300.387 187.202 300.992 185.992 301.597C185.186 302 184.379 302.202 183.573 302.605C181.153 303.613 178.936 304.621 176.516 305.226C174.702 305.629 172.887 306.436 170.871 307.04C169.661 307.242 168.855 307.847 167.645 308.25C167.04 308.452 166.637 308.653 166.032 308.653C165.226 308.855 164.419 309.258 163.613 309.46C160.589 310.266 157.766 311.476 154.54 311.476C153.129 311.476 152.323 311.476 151.718 310.266C150.911 309.057 150.508 308.049 149.903 306.637C149.702 305.226 149.097 303.815 147.686 303.21C146.274 302.403 144.661 302.202 143.25 301.194C142.04 300.387 141.436 298.976 141.436 297.363C141.436 296.758 141.436 296.355 141.839 295.75C142.04 295.549 142.645 295.145 143.25 294.944Z" fill="#07F9A2"/>
<path opacity="0.3" d="M208.371 287.685C209.379 287.484 210.387 287.282 211.395 286.879C211.597 286.879 211.798 286.677 211.798 286.677C212.202 286.677 212.806 286.677 213.21 286.677C213.815 286.677 214.621 286.476 215.024 286.879C215.831 287.484 215.024 288.29 214.419 288.895C214.016 289.097 213.411 289.298 213.008 289.5C212.806 289.5 212.605 289.5 212.403 289.5C212.202 289.5 212 289.702 211.597 289.702C211.395 289.702 210.79 289.5 210.589 289.5C210.387 289.5 209.984 289.298 209.581 289.298C208.976 288.895 209.177 288.089 208.774 287.887H208.371V287.685Z" fill="#07F9A2"/>
<path opacity="0.3" d="M110.589 348.17C107.161 348.573 104.137 348.573 101.314 350.589C100.306 351.395 99.2983 352.202 98.4919 353.21C96.6774 355.629 100.911 356.032 102.524 356.234C105.75 356.637 108.976 357.444 112 358.855C114.621 360.065 117.443 360.67 120.468 359.863C122.282 359.258 123.895 358.855 124.702 356.839C125.508 355.024 124.702 353.21 123.089 352C121.274 350.589 119.46 349.178 117.242 348.17C114.823 347.161 112.806 347.161 110.185 347.766L110.589 348.17Z" fill="#07F9A2"/>
<path opacity="0.3" d="M105.347 343.734C105.548 343.734 103.734 344.742 103.532 345.145C103.331 345.347 103.532 345.548 103.734 345.75C104.339 346.355 105.548 346.355 106.355 346.557C106.96 346.557 107.565 346.355 108.169 346.355C108.573 346.355 108.976 346.355 109.177 346.153C109.984 345.952 110.387 345.75 110.992 345.347C111.395 344.944 111.395 344.54 111.395 343.936C111.395 343.331 110.992 342.927 110.387 342.524C108.976 341.919 106.758 342.726 105.347 343.734Z" fill="#07F9A2"/>
<path opacity="0.3" d="M89.8226 357.242C90.2258 357.242 91.8387 357.04 92.4435 357.04C92.8468 357.04 93.4516 357.242 93.8548 357.443C95.2661 357.645 96.4758 357.847 97.8871 358.25C98.8951 358.452 99.2984 358.653 99.9032 359.46C100.306 360.064 100.508 360.266 100.508 360.871C100.105 363.693 96.879 364.298 94.6613 364.5C92.8468 364.702 91.0322 364.702 89.2177 364.298C87.2016 364.097 85.1855 363.895 83.371 363.492C81.9597 363.29 80.5484 362.887 79.1371 362.484C78.129 362.282 77.3226 362.081 76.7177 361.274C75.9113 359.863 76.5161 358.25 77.7258 357.443C79.7419 356.234 82.5645 356.234 84.7822 356.435C85.5887 356.435 86.3952 356.637 87.4032 356.637C88.2097 356.839 89.0161 357.242 89.8226 357.242Z" fill="#07F9A2"/>
</g>
<path opacity="0.2" d="M147.282 216.718C145.871 217.323 144.46 218.129 143.048 217.928C142.242 217.928 141.436 217.726 140.629 217.524C139.419 217.323 138.21 217.121 137.202 216.92C135.992 216.718 134.782 216.718 133.573 216.718C131.355 216.718 129.137 216.92 126.919 216.92C124.903 216.92 123.089 216.92 121.073 216.516C119.258 216.315 117.645 215.71 115.831 215.307C115.226 215.105 114.419 214.903 113.815 214.702C113.008 214.5 112 214.5 111.194 214.5C109.581 214.299 107.766 214.299 106.153 213.694C105.548 213.492 104.944 213.29 104.742 212.686C104.54 212.484 104.339 211.879 104.54 211.476C104.944 210.871 106.355 211.073 106.758 211.274C108.169 211.678 109.581 212.282 110.992 213.089C113.411 214.5 116.637 213.492 119.258 214.097C120.468 214.299 121.476 214.097 122.686 214.097C123.492 214.097 124.097 214.702 124.702 214.903C125.508 215.105 126.516 215.105 127.323 214.903C129.339 214.702 131.355 214.097 133.169 213.089C135.387 212.081 137.605 211.073 140.024 211.073C142.04 211.073 144.057 211.073 145.871 211.678C147.081 212.081 147.887 212.686 148.29 213.895C148.492 215.508 147.686 215.911 147.282 216.718Z" fill="#081129"/>
<path opacity="0.2" d="M139.419 177.807C140.226 177.807 141.234 178.008 142.04 178.008C141.234 178.008 140.629 178.21 139.823 178.411C139.218 178.613 139.016 178.613 138.411 178.613C138.008 178.613 135.79 178.815 136.597 178.21C137.202 177.605 138.814 177.807 139.419 177.807Z" fill="#081129"/>
<path opacity="0.2" d="M199.5 168.532C199.5 168.532 199.298 168.532 199.5 168.532C198.089 170.75 197.081 172.363 195.468 174.177C193.855 175.79 192.444 176.798 190.427 177.806C188.21 179.016 185.79 180.024 183.371 180.629C180.952 181.234 178.331 181.839 175.71 181.839C173.694 181.839 171.879 181.637 169.863 181.435C167.444 181.234 165.024 180.831 162.605 180.629C160.79 180.427 158.774 180.226 156.96 179.823C155.145 179.621 153.331 179.016 151.314 178.815C149.903 178.613 148.492 178.613 147.282 178.613C146.476 178.613 145.669 178.411 144.863 178.411C144.258 178.411 143.855 178.411 143.25 178.411C142.847 178.411 142.444 178.21 142.04 178.21C142.645 178.21 143.25 178.008 143.653 178.008C145.064 177.806 146.677 177.806 148.29 177.806C149.702 177.605 151.113 177.806 152.726 177.605C155.145 177.403 157.766 177 160.185 177C162.403 177 164.823 177.202 167.242 177C167.847 177 168.653 176.798 169.056 176.194C169.46 175.589 169.46 174.984 168.855 174.581C168.25 174.177 165.024 173.371 165.629 171.96C165.831 171.556 166.637 171.556 167.04 171.556C168.452 171.355 169.863 171.355 171.274 170.952C172.081 170.75 172.887 170.548 173.694 170.145C174.5 169.944 175.105 169.944 175.911 169.742C176.919 169.54 178.129 169.339 179.137 169.339C181.556 169.137 183.976 170.145 186.194 169.339C187.403 168.935 188.21 168.331 188.814 167.323C189.218 166.919 189.621 166.516 189.823 166.113C190.226 165.508 190.629 164.903 191.032 164.5C193.452 165.71 195.871 166.919 198.29 168.331C198.089 168.532 197.887 168.734 199.097 168.734C199.097 168.532 199.298 168.532 199.5 168.532Z" fill="#081129"/>
<path opacity="0.2" d="M198.089 174.984C196.274 176.798 194.661 178.411 192.444 180.024C190.629 181.234 188.411 182.04 186.395 182.847C184.782 183.452 183.169 184.057 181.556 184.258C180.75 184.46 179.944 184.661 179.137 184.863C178.734 185.065 178.129 185.065 177.927 185.266C177.323 185.871 177.726 186.274 178.331 186.476C179.742 186.879 181.355 186.678 182.766 186.476C185.589 186.073 188.613 185.871 191.436 185.266C193.25 184.863 195.065 184.258 196.677 183.048C198.492 181.839 200.911 180.428 201.919 178.411C202.524 177 202.927 175.589 201.516 174.581C200.911 174.178 200.306 173.774 199.5 173.774C199.298 173.774 197.484 173.774 198.089 174.984Z" fill="#081129"/>
<path opacity="0.3" d="M237.806 203.21C235.186 202.806 232.363 202 229.944 200.992C229.137 200.589 225.306 198.169 228.129 198.169C228.129 197.565 226.516 196.153 226.113 195.75C225.508 194.944 224.903 194.339 224.298 193.532C223.492 192.726 222.686 192.524 221.677 192.121C220.266 191.516 219.258 190.508 217.847 189.903C214.823 188.694 212.202 187.081 208.774 187.685C206.556 188.089 204.137 190.105 202.323 191.113C199.702 192.726 196.476 193.331 193.653 194.137C188.411 195.548 182.968 196.758 177.524 197.766C174.298 198.169 171.073 198.371 167.847 198.976C166.436 199.177 165.226 199.581 163.815 199.581C162 199.782 160.186 199.379 158.371 199.782C154.742 200.387 151.315 200.185 147.686 200.185C146.677 200.185 142.242 200.79 141.839 199.379C143.25 198.573 145.669 198.573 147.282 198.371C149.903 197.968 152.524 197.968 155.145 197.766C162.403 197.363 169.46 194.944 176.718 193.532C180.145 192.726 183.371 191.919 186.798 191.113C188.411 190.71 190.024 190.306 191.637 189.702C193.25 189.097 194.863 188.089 196.476 187.484C199.097 186.476 200.71 185.669 202.726 184.056C203.331 183.653 203.936 183.25 204.137 182.645C205.145 180.629 201.919 179.419 200.508 178.613C199.298 178.008 197.686 177 196.476 176.395C194.258 175.589 192.04 174.984 189.823 174.177C187.202 172.968 184.379 172.565 181.556 171.758C179.54 171.153 177.323 170.548 175.306 169.944C173.895 169.54 172.282 169.137 170.871 168.734C170.266 168.532 169.056 168.734 168.855 167.927C169.258 167.726 169.863 167.927 170.266 167.726C170.065 166.718 164.218 166.315 163.21 166.315C160.992 166.315 158.976 165.71 156.96 165.911C154.742 165.911 152.524 166.315 150.306 166.516C146.073 166.718 142.04 166.516 137.806 166.516C136.194 166.516 134.379 166.718 132.766 166.516C131.758 166.516 131.153 166.113 130.145 165.911C130.347 164.903 134.177 164.097 135.186 163.895C134.581 162.282 129.137 162.484 127.927 162.484C125.306 162.484 122.887 162.685 120.266 162.887C117.847 163.089 115.427 162.887 113.008 163.089C111.194 163.29 109.379 163.895 107.565 163.492C107.363 163.492 105.75 163.089 105.548 163.089C104.944 162.282 106.556 160.871 106.96 160.669C109.177 158.653 112.806 157.847 115.427 156.637C115.024 155.831 114.823 155.024 114.823 154.218C122.282 152.605 129.54 152 137 152C156.355 152 174.702 156.435 191.234 164.298C193.653 165.508 196.073 166.718 198.492 168.129C198.694 168.331 198.895 168.331 199.298 168.532L199.5 168.734C205.548 172.161 211.194 176.194 216.637 180.629C224.5 187.081 231.758 194.742 237.806 203.21Z" fill="#07F9A2"/>
<path opacity="0.3" d="M262 277C262 279.823 261.798 282.847 261.597 285.669C260.79 296.355 258.774 306.637 255.548 316.516C255.548 316.718 255.548 316.718 255.347 316.919C255.548 315.71 255.75 314.5 255.75 313.29C255.75 312.484 256.153 312.081 256.355 311.274C256.556 310.669 256.355 309.46 256.355 308.855V298.169C256.355 296.153 256.96 294.137 256.758 292.121C256.758 291.113 256.758 289.903 256.758 288.895C256.758 287.685 257.161 286.879 257.363 285.669C257.766 282.645 256.556 279.621 256.355 276.597C256.355 275.185 256.355 273.774 256.355 272.363C256.355 271.556 256.153 271.355 255.952 270.548C255.75 269.742 255.952 268.935 255.952 268.129C255.952 267.323 255.548 266.718 255.347 265.911C255.145 265.306 255.347 264.5 255.347 263.694C255.347 262.282 255.347 261.274 254.943 259.863C254.742 259.258 254.943 258.452 254.742 257.847C254.54 257.242 254.339 256.637 254.137 256.032C253.734 254.823 253.129 253.613 252.726 252.202C251.919 249.782 250.911 247.363 250.911 244.742C250.911 242.121 249.702 239.702 249.097 237.282C248.29 234.661 246.476 232.847 245.064 230.629C244.258 229.419 244.661 228.411 244.46 227C244.258 226.194 243.452 225.387 242.847 224.782C242.04 224.177 240.226 223.774 239.218 223.573C237.806 223.371 236.798 224.379 235.589 223.976C235.79 223.169 238.008 222.363 238.814 222.161C239.823 221.96 241.637 222.161 242.04 220.548C242.242 219.339 240.831 218.532 240.226 217.927C239.823 217.524 239.621 216.919 239.218 216.516C238.814 215.911 238.008 215.911 237.605 215.508C237 215.105 236.798 214.5 236.193 214.097C235.79 213.694 235.589 213.29 234.984 212.887C234.177 212.081 233.169 211.073 232.161 210.266C229.943 208.653 227.726 207.847 225.105 207.444C224.097 207.242 222.887 207.04 222.081 206.435C221.274 205.831 220.871 205.024 220.266 204.218C219.46 203.008 219.46 202.806 220.468 201.798C221.274 200.992 221.677 199.984 221.476 198.774C221.073 196.96 220.064 194.137 218.452 192.927C216.637 191.516 215.226 190.911 213.008 190.508C212 190.306 210.992 190.508 209.984 190.306C209.177 190.105 208.774 189.903 207.968 189.903C206.355 189.903 205.145 189.5 203.734 189.5H198.693C197.484 189.5 195.669 189.702 194.661 189.298C194.863 188.492 196.879 187.887 197.685 187.484C199.097 186.879 200.911 185.871 202.121 184.863C203.331 184.056 204.137 183.452 204.943 182.242C205.548 181.637 206.153 180.831 206.96 180.226C205.347 178.815 204.137 178.008 202.121 177C200.105 175.992 198.089 175.387 196.073 174.581C194.258 173.976 192.242 173.774 190.427 173.169C188.008 172.565 186.395 171.355 184.581 169.54C182.564 168.331 181.355 167.121 179.339 166.315C177.726 165.508 176.113 165.508 174.298 165.105C173.492 164.903 172.685 164.702 171.879 164.702C171.073 164.702 170.064 164.903 169.056 164.702C167.847 164.5 166.839 164.097 165.629 164.097C164.621 164.097 163.613 164.298 162.605 163.895C161.597 163.694 160.589 163.694 159.581 163.492C156.758 162.887 155.145 160.065 153.129 158.048C151.919 156.839 151.113 156.839 149.5 156.637C147.484 156.234 145.468 155.831 143.452 155.831C141.032 155.831 138.814 155.831 136.395 155.831C134.984 155.831 133.976 156.032 132.564 156.234C131.355 156.435 130.145 156.234 129.137 156.234C127.121 156.435 125.105 157.242 122.887 157.242C121.879 157.242 121.274 156.839 120.468 156.637C119.863 156.435 118.653 157.04 117.847 156.637C116.435 156.032 119.46 153.613 116.234 154.016C112.806 154.419 109.581 155.427 106.153 156.234C102.726 157.04 99.2983 157.847 95.8709 159.056C93.8548 159.661 91.637 160.669 89.8225 161.476C86.5967 163.089 83.5725 164.298 79.9435 165.508C91.0322 160.065 102.726 156.032 115.226 153.815C122.282 152.605 129.54 152 137 152C156.355 152 174.702 156.435 191.234 164.298C193.653 165.508 196.073 166.718 198.492 168.129C198.693 168.331 198.895 168.331 199.298 168.532L199.5 168.734C205.548 172.161 211.193 176.194 216.637 180.629C224.702 187.282 231.96 194.944 238.008 203.21C241.234 207.645 244.056 212.282 246.677 216.919C250.105 222.968 252.927 229.419 255.145 236.274C255.347 236.677 255.347 237.081 255.548 237.484C255.75 237.887 255.75 238.29 255.952 238.694C258.371 246.556 260.185 254.621 261.193 263.089C261.395 265.306 261.597 267.726 261.798 269.944C261.798 272.161 262 274.581 262 277Z" fill="url(#paint58_radial)"/>
<path opacity="0.3" d="M261.798 269.944C261.597 267.524 261.395 265.306 261.194 263.089C260.185 254.621 258.573 246.556 255.952 238.694C255.75 238.29 255.75 237.887 255.548 237.484C255.347 237.081 255.347 236.677 255.145 236.274C252.927 229.621 249.903 223.169 246.677 216.919C244.056 212.081 241.032 207.444 238.008 203.21C231.96 194.742 224.702 187.081 216.637 180.629C211.194 176.194 205.548 172.363 199.5 168.734L199.298 168.532C198.895 168.331 198.492 168.129 198.29 168.129C195.871 166.718 193.452 165.508 191.032 164.298C174.702 156.435 156.355 152 137 152C129.54 152 122.282 152.605 115.226 153.815C102.726 156.032 91.0322 160.065 80.1451 165.71C65.8306 172.968 53.129 183.048 42.8468 194.944C42.0403 195.952 41.2339 196.758 40.4274 197.766C50.7097 186.274 63.008 176.597 76.9193 169.54C87.8064 163.895 99.7016 159.863 112.202 157.645C119.258 156.435 126.516 155.831 133.976 155.831C153.129 155.831 171.476 160.266 187.806 168.129C190.226 169.339 192.645 170.548 195.065 171.96C195.266 172.161 195.468 172.161 195.871 172.363L196.073 172.565C202.121 175.992 207.766 180.024 213.21 184.46C221.274 191.113 228.532 198.774 234.581 207.04C237.806 211.476 240.629 216.113 243.25 220.75C246.677 226.798 249.5 233.25 251.718 240.105C251.919 240.508 251.919 240.911 252.121 241.315C252.323 241.718 252.323 242.121 252.524 242.524C254.944 250.387 256.758 258.452 257.766 266.919C257.968 269.137 258.169 271.556 258.371 273.774C258.573 276.194 258.573 278.411 258.573 280.831C258.573 283.653 258.371 286.677 258.169 289.5C257.363 300.185 255.347 310.468 252.121 320.347C252.121 320.548 252.121 320.548 251.919 320.75C250.508 325.185 248.694 329.419 246.677 333.653C242.847 341.718 238.411 349.379 232.968 356.234C232.161 357.444 231.153 358.452 230.145 359.661C232.161 357.242 234.177 355.024 236.194 352.403C241.435 345.347 246.073 337.887 249.903 329.823C251.919 325.589 253.532 321.355 255.145 316.919C255.145 316.718 255.347 316.718 255.347 316.516C258.573 306.637 260.79 296.355 261.395 285.669C261.597 282.847 261.798 279.823 261.798 277C262 274.581 261.798 272.161 261.798 269.944Z" fill="url(#paint59_radial)"/>
<path opacity="0.3" d="M180.145 247.766C181.758 247.968 183.371 248.169 184.984 247.968C184.782 247.363 185.79 247.363 185.79 246.758C184.984 246.355 184.379 245.952 183.573 245.952C182.968 245.952 181.355 246.355 181.153 246.96L180.145 247.766Z" fill="#07F9A2"/>
<path opacity="0.3" d="M145.468 190.105C147.081 190.306 148.694 190.508 150.306 190.306C150.105 189.702 151.113 189.702 151.113 189.097C150.306 188.694 149.702 188.29 148.895 188.29C148.29 188.29 146.677 188.694 146.476 189.298L145.468 190.105Z" fill="#07F9A2"/>
<path opacity="0.3" d="M126.113 364.702C127.726 364.903 129.339 365.105 130.952 364.903C130.75 364.298 131.758 364.299 131.758 363.694C130.952 363.29 130.347 362.887 129.54 362.887C128.935 362.887 127.323 363.29 127.121 363.895L126.113 364.702Z" fill="#07F9A2"/>
<path opacity="0.3" d="M40.2258 269.944C41.8387 270.145 43.4516 270.347 45.0645 270.145C44.8629 269.54 45.871 269.54 45.871 268.936C45.0645 268.532 44.4597 268.129 43.6532 268.129C43.0484 268.129 41.4355 268.532 41.2339 269.137L40.2258 269.944Z" fill="#07F9A2"/>
<path opacity="0.3" d="M211.194 320.145C212 318.936 213.008 317.726 214.016 316.919C214.218 317.726 215.226 317.726 215.629 318.532C216.032 319.339 216.032 320.75 215.629 321.557C214.621 324.379 211.395 325.79 208.573 326.395C207.564 326.597 206.758 327 205.952 326.194C205.347 325.589 204.944 324.581 205.548 323.976C205.952 323.371 207.161 322.565 207.968 322.161C208.371 321.96 209.581 321.355 209.581 320.952L211.194 320.145Z" fill="#07F9A2"/>
<path opacity="0.3" d="M223.492 319.137C222.282 320.145 221.274 321.153 220.064 322.363C220.468 322.968 221.879 321.758 222.484 321.556C222.887 321.355 223.492 321.355 223.693 321.153C223.895 320.951 224.5 319.943 223.693 319.943L223.492 319.137Z" fill="#07F9A2"/>
<path opacity="0.3" d="M202.121 275.186C200.911 276.194 199.903 277.202 198.694 278.411C199.097 279.016 200.508 277.807 201.113 277.605C201.516 277.403 202.121 277.403 202.323 277.202C202.524 277 203.129 275.992 202.323 275.992L202.121 275.186Z" fill="#07F9A2"/>
<path opacity="0.3" d="M99.2984 162.686C98.0887 163.694 97.0806 164.702 95.871 165.911C96.2742 166.516 97.6855 165.307 98.2903 165.105C98.6936 164.903 99.2984 164.903 99.5 164.702C99.7016 164.5 100.306 163.492 99.5 163.492L99.2984 162.686Z" fill="#07F9A2"/>
<path opacity="0.3" d="M47.6854 285.871C47.4838 287.282 47.4838 288.694 47.8871 290.105C47.8871 290.508 47.8871 290.911 48.2903 290.911C48.6935 291.315 49.2983 291.516 49.7016 291.919C50.1048 292.323 51.3145 292.927 51.9193 292.927C52.3225 292.927 53.3306 291.919 53.5322 291.516C53.9354 290.71 53.9354 289.702 53.7338 289.097C53.3306 287.686 52.7258 285.871 51.3145 285.266C50.7096 285.065 50.1048 284.863 49.7016 284.863C48.8951 284.661 48.6935 284.863 48.2903 285.468L47.6854 285.871Z" fill="#07F9A2"/>
<path opacity="0.3" d="M99.2984 209.661C99.0968 209.863 98.8952 210.065 98.6935 210.468V210.669C98.6935 210.871 98.6935 210.871 98.6935 211.073C98.6935 211.274 98.6935 211.476 98.8952 211.476H99.2984C99.5 211.476 99.7016 211.274 99.7016 211.073C99.9032 210.871 100.105 210.468 99.9032 210.065C99.9032 209.863 99.7016 209.863 99.7016 209.661C99.5 209.46 99.5 209.46 99.2984 209.46V209.661Z" fill="#07F9A2"/>
<path opacity="0.3" d="M99.5 215.105C99.2984 216.516 99.2984 217.927 99.7017 219.339C99.7017 219.742 99.7017 220.145 100.105 220.145C100.508 220.548 101.113 220.75 101.516 221.153C101.919 221.556 103.129 222.161 103.734 222.161C104.137 222.161 105.145 221.153 105.347 220.75C105.75 219.943 105.75 218.935 105.548 218.33C105.145 216.919 104.54 215.105 103.129 214.5C102.524 214.298 101.919 214.097 101.516 214.097C100.71 213.895 100.508 214.097 100.105 214.701L99.5 215.105Z" fill="#07F9A2"/>
<path opacity="0.3" d="M57.3629 198.573C58.7742 198.774 60.9919 199.581 62.4032 198.976C63.0081 198.774 63.8145 197.968 64.4194 197.564C65.2258 196.96 66.4355 196.355 67.0403 195.548C67.6452 194.54 67.4436 193.331 66.4355 192.927C64.2178 191.919 58.1694 192.726 58.1694 196.153L57.3629 198.573Z" fill="#07F9A2"/>
<path opacity="0.3" d="M180.75 237.282C182.161 237.484 184.379 238.29 185.79 237.685C186.395 237.484 187.202 236.677 187.806 236.274C188.613 235.669 189.823 235.065 190.427 234.258C191.032 233.25 190.831 232.04 189.823 231.637C187.403 230.831 181.355 231.435 181.355 234.863L180.75 237.282Z" fill="#07F9A2"/>
<path opacity="0.3" d="M49.9033 278.815C50.1049 279.218 50.9113 281.637 51.9194 280.629C52.5242 280.024 52.5242 278.815 52.121 278.21C51.9194 277.807 51.3146 277 50.7097 277.202C50.5081 277.403 50.3065 277.605 50.3065 277.807C50.3065 278.21 50.3065 278.613 50.5081 279.016L49.9033 278.815Z" fill="#07F9A2"/>
<path opacity="0.3" d="M53.3307 283.855C53.3307 283.25 53.5323 282.847 53.7339 282.444C53.9355 282.645 54.1371 282.444 54.3387 282.645C54.5403 282.847 54.5403 283.048 54.7419 283.25C54.9436 283.452 55.3468 284.057 55.1452 284.46C54.9436 284.661 54.7419 284.863 54.3387 285.065C53.9355 285.065 53.5323 284.863 53.5323 284.46L53.3307 283.855Z" fill="#07F9A2"/>
<path opacity="0.3" d="M59.1774 355.831C60.1855 357.242 60.9919 358.653 62.2016 359.661C63.0081 360.468 63.8145 361.274 64.621 362.081C65.8307 363.29 67.2419 364.5 68.8549 365.105C69.6613 365.508 69.6613 365.105 69.4597 364.299C68.8549 362.887 67.8468 362.686 66.6371 361.879C65.2258 360.871 63.6129 359.863 62.6049 358.653C61.7984 357.645 60.9919 355.831 59.1774 355.831Z" fill="#07F9A2"/>
<path opacity="0.3" d="M59.9838 353.613C60.1854 354.217 58.7742 350.79 58.9758 350.387C58.9758 350.185 59.1774 349.984 59.379 349.984C59.7822 349.782 60.1854 349.984 60.3871 350.387C60.5887 351.193 60.3871 352.605 60.3871 353.411L59.9838 353.613Z" fill="#07F9A2"/>
<path opacity="0.3" d="M217.242 313.089C217.645 312.685 218.048 312.282 218.653 312.081C218.855 312.282 218.855 312.081 219.056 312.081C219.258 312.081 219.46 312.484 219.661 312.685C219.863 313.089 219.46 313.693 219.056 313.895C218.452 314.298 216.839 314.298 217.04 313.29L217.242 313.089Z" fill="#07F9A2"/>
<path opacity="0.3" d="M60.7903 249.984C61.1936 249.581 61.5968 249.177 62.2016 248.976C62.4032 249.177 62.4032 248.976 62.6049 248.976C62.8065 248.976 63.0081 249.379 63.2097 249.581C63.4113 249.984 63.0081 250.589 62.6049 250.79C62 251.194 60.3871 251.194 60.5887 250.186L60.7903 249.984Z" fill="#07F9A2"/>
<path opacity="0.3" d="M62.4033 288.492C63.2097 287.686 64.0162 286.879 65.0242 286.274C65.2259 286.476 65.6291 286.274 65.8307 286.476C66.2339 286.678 66.6372 287.282 66.8388 287.686C67.242 288.694 66.6372 289.5 65.8307 290.105C64.8226 290.912 61.5968 290.912 61.7984 288.895L62.4033 288.492Z" fill="#07F9A2"/>
<path opacity="0.3" d="M92.4435 211.274C93.2499 210.468 94.0564 209.661 95.0644 209.056C95.2661 209.258 95.6693 209.056 95.8709 209.258C96.2741 209.46 96.6773 210.064 96.879 210.468C97.2822 211.476 96.6773 212.282 95.8709 212.887C94.8628 213.693 91.637 213.693 91.8386 211.677L92.4435 211.274Z" fill="#07F9A2"/>
<path opacity="0.3" d="M189.621 382.645C190.226 382.04 191.435 380.629 192.242 379.823C192.847 379.42 193.452 379.218 194.056 378.815C194.46 378.613 195.065 378.411 195.468 378.613C196.274 379.016 196.073 380.024 195.871 380.629C195.266 381.637 193.855 382.444 192.847 383.049C192.444 383.25 190.226 383.653 190.427 382.645H189.621Z" fill="#07F9A2"/>
</g>
<g clip-path="url(#clip1)">
<path d="M445.288 101.746C445.288 101.746 301.58 177.336 124 272.117C124 272.117 357.379 193.002 472.894 149.136L445.288 101.746Z" fill="url(#paint60_linear)"/>
<path d="M579.794 144.045C579.794 144.045 570.005 132.491 552.58 127.791C534.959 123.091 470.545 137.387 455.665 143.653C440.589 149.92 432.758 168.523 432.758 168.523C432.758 168.523 547.489 151.878 579.794 144.045Z" fill="url(#paint61_linear)"/>
<path d="M585.472 72.7632C585.472 72.7632 556.3 66.4967 523.212 68.6508C490.319 70.8049 408.284 128.379 408.284 128.379C408.284 128.379 545.531 74.3298 585.472 72.7632Z" fill="url(#paint62_linear)"/>
<path d="M369.518 155.011C369.518 155.011 419.64 114.866 484.837 87.0586C555.125 57.0968 636.573 78.4421 643.817 87.0586L369.518 155.011Z" fill="url(#paint63_linear)"/>
<path d="M448.812 153.445C448.812 153.445 465.65 151.486 467.999 155.207C470.349 158.928 432.758 168.523 432.758 168.523C432.758 168.523 494.039 165.194 579.794 144.045C579.794 144.045 558.062 145.22 555.712 140.716C553.363 136.212 592.912 126.812 592.912 126.812L448.812 153.445Z" fill="url(#paint64_linear)"/>
<path d="M643.817 87.0587C636.769 75.8965 565.306 85.2962 565.306 85.2962C565.306 85.2962 501.479 96.2627 497.759 88.6253C494.235 80.988 502.066 62.3843 502.066 62.3843C438.631 82.163 367.952 127.595 367.952 127.595C367.952 127.595 445.875 105.662 446.463 113.104C447.05 120.545 433.149 128.966 433.149 128.966C412.004 136.995 390.076 145.807 369.322 155.011L379.895 169.111C379.895 169.111 504.612 152.074 592.716 126.812C592.912 126.812 650.865 98.2209 643.817 87.0587Z" fill="url(#paint65_linear)"/>
<path d="M367.952 127.595C367.952 127.595 378.328 102.333 398.299 81.7713C398.299 81.7713 445.875 40.6472 500.109 39.6681C504.22 43.5847 503.829 52.7886 502.066 62.5801C502.066 62.3842 414.549 99.9833 367.952 127.595Z" fill="url(#paint66_linear)"/>
<path d="M398.299 81.7714C398.299 81.7714 393.208 90.9753 395.754 93.717C398.299 96.4586 424.143 75.309 467.216 57.097L474.46 42.9973C474.656 42.8015 434.52 51.0263 398.299 81.7714Z" fill="#37FFBE"/>
<path d="M411.808 65.3216C411.808 65.3216 400.648 80.4004 399.865 87.8419C399.865 87.8419 429.821 69.0424 462.126 54.3552C462.126 54.3552 467.216 39.4722 472.894 35.7515C472.894 35.7515 441.568 45.5429 411.808 65.3216Z" fill="url(#paint67_linear)"/>
<path d="M482.879 41.2347C482.879 41.2347 478.572 33.7933 472.894 35.7515C467.216 37.7098 464.279 48.8721 462.126 54.3553L463.888 55.1386C463.888 55.1386 466.629 46.1305 467.412 44.5638L482.879 41.2347Z" fill="url(#paint68_linear)"/>
<path d="M368.539 155.011C368.539 155.011 361.491 160.495 360.512 170.09C360.512 170.09 388.118 172.44 408.284 159.711C408.284 159.711 409.85 151.095 406.718 144.241C389.293 137.583 368.539 155.011 368.539 155.011Z" fill="url(#paint69_linear)"/>
<path d="M402.802 165.39C402.802 165.39 399.278 167.74 398.69 172.048C398.69 172.048 412.591 172.832 422.772 167.153C422.772 167.153 423.555 163.432 421.989 160.495C413.375 157.753 402.802 165.39 402.802 165.39Z" fill="url(#paint70_linear)"/>
<path d="M423.164 166.369C423.556 167.936 418.465 170.286 411.808 171.853C405.151 173.419 399.474 173.419 399.082 172.048C398.69 170.482 403.781 168.132 410.438 166.565C416.899 164.999 422.577 164.999 423.164 166.369Z" fill="#0A6550"/>
<path d="M420.814 166.957C421.206 168.132 417.094 170.09 411.612 171.461C406.326 172.636 401.627 172.832 401.236 171.657C400.844 170.482 404.956 168.524 410.438 167.153C415.724 165.782 420.423 165.782 420.814 166.957Z" fill="#37FFBE"/>
<path d="M408.284 158.145C409.263 162.257 399.474 168.328 386.16 171.657C372.846 174.986 361.295 174.202 360.316 170.09C359.337 165.978 369.126 159.907 382.44 156.578C395.754 153.249 407.305 154.032 408.284 158.145Z" fill="#0A6550"/>
<path d="M403.781 159.319C404.564 162.649 396.537 167.544 385.964 170.286C375.196 173.027 365.994 172.44 365.015 169.111C364.232 165.782 372.259 160.886 382.832 158.145C393.6 155.403 402.998 155.795 403.781 159.319Z" fill="#37FFBE"/>
<path d="M395.754 141.499C395.754 141.499 391.642 144.241 391.055 149.136C391.055 149.136 406.914 150.115 418.661 143.457C418.661 143.457 419.64 139.149 417.878 135.82C407.892 132.687 395.754 141.499 395.754 141.499Z" fill="url(#paint71_linear)"/>
<path d="M418.857 142.87C419.64 145.416 413.962 148.941 406.326 150.703C398.69 152.465 391.838 151.878 391.251 149.332C390.467 146.786 396.145 143.262 403.781 141.499C411.417 139.541 418.073 140.128 418.857 142.87Z" fill="#0A6550"/>
<path d="M416.116 143.457C416.703 145.612 412.2 148.353 405.935 149.724C399.669 151.095 394.187 150.703 393.796 148.549C393.208 146.395 397.712 143.653 403.977 142.282C410.046 140.716 415.528 141.303 416.116 143.457Z" fill="#37FFBE"/>
<path d="M499.913 39.0807C499.913 39.0807 507.744 45.1514 508.136 78.8339C508.136 78.8339 507.549 90.7795 503.241 91.9545C503.241 91.9545 493.256 93.3253 494.039 77.4631C494.822 65.7134 499.913 39.0807 499.913 39.0807Z" fill="url(#paint72_linear)"/>
<path d="M504.612 48.8721C504.612 48.8721 499.913 55.7261 499.325 65.5176C498.934 73.7424 501.871 86.6671 506.57 88.2337C506.57 88.2337 512.639 88.4295 516.751 87.0587C516.751 87.0587 520.666 70.6091 515.772 47.6971L504.612 48.8721Z" fill="url(#paint73_linear)"/>
<path d="M518.317 67.4758C518.513 78.4422 517.729 87.4503 516.359 87.4503C514.988 87.4503 513.814 78.638 513.618 67.4758C513.422 56.5093 514.205 47.5012 515.576 47.5012C516.946 47.5012 518.121 56.3135 518.317 67.4758Z" fill="url(#paint74_linear)"/>
<path d="M516.555 67.4758C516.75 75.1132 516.359 81.1839 515.772 81.1839C515.184 81.1839 514.597 75.1132 514.401 67.4758C514.205 59.8385 514.597 53.7678 515.184 53.7678C515.772 53.7678 516.359 59.8385 516.555 67.4758Z" fill="#37FFBE"/>
<path d="M522.233 100.571C515.772 102.529 491.102 119.566 473.677 134.058C466.825 139.737 413.962 158.34 413.962 158.34V159.907L484.25 143.262C519.883 141.303 555.125 135.428 555.125 135.428C619.343 118.391 633.832 91.367 633.832 91.367C620.91 82.7505 545.923 93.1294 522.233 100.571Z" fill="url(#paint75_linear)"/>
<path d="M375.197 123.875C375.197 123.875 374.022 125.833 374.022 128.183C374.022 128.183 381.462 127.791 386.748 124.266C386.748 124.266 387.14 121.525 386.161 119.958C381.266 118.979 375.197 123.875 375.197 123.875Z" fill="url(#paint76_linear)"/>
<path d="M386.747 123.874C387.139 124.854 384.594 126.616 381.07 127.791C377.545 128.966 374.413 129.162 374.021 128.183C373.63 127.204 376.175 125.441 379.699 124.266C383.223 123.091 386.356 122.895 386.747 123.874Z" fill="#0A6550"/>
<path d="M385.573 124.266C385.964 125.049 383.811 126.42 380.874 127.399C377.937 128.379 375.392 128.574 375.196 127.791C374.804 127.008 376.958 125.637 379.895 124.658C382.636 123.679 385.181 123.483 385.573 124.266Z" fill="#37FFBE"/>
<path d="M436.673 167.153C436.673 167.153 435.499 168.328 435.107 169.894C435.107 169.894 440.393 170.678 444.701 168.915C444.701 168.915 445.288 166.957 444.896 165.782C441.764 164.411 436.673 167.153 436.673 167.153Z" fill="url(#paint77_linear)"/>
<path d="M444.896 168.719C445.092 169.503 442.939 170.286 440.393 170.678C437.652 171.069 435.499 170.678 435.303 169.894C435.107 169.111 437.261 168.328 439.806 167.936C442.547 167.74 444.896 168.132 444.896 168.719Z" fill="#0A6550"/>
<path d="M444.113 168.915C444.309 169.503 442.547 170.286 440.393 170.482C438.24 170.678 436.478 170.482 436.282 169.894C436.086 169.307 437.848 168.524 440.002 168.328C442.155 168.132 443.917 168.328 444.113 168.915Z" fill="#37FFBE"/>
<path d="M532.805 74.134C532.805 74.134 579.598 71.3924 603.876 81.7713C603.876 81.7713 629.72 81.3796 637.552 83.3379C637.102 82.6345 590.758 64.3425 532.805 74.134Z" fill="url(#paint78_linear)"/>
<path d="M399.865 87.8419L402.019 88.6252L415.528 80.0087V78.8337L399.865 87.8419Z" fill="#37FFBE"/>
<path d="M416.899 78.8339L418.073 77.0714L425.709 72.7632L424.143 75.1131L416.899 78.8339Z" fill="#37FFBE"/>
</g>
<g style="mix-blend-mode:screen" opacity="0.24" clip-path="url(#clip2)">
<path d="M443.636 301.047C326.918 351.733 205.899 331.765 173.033 256.197C140.168 180.935 208.356 78.6413 325.075 27.955C441.793 -22.7312 562.812 -2.7639 595.677 72.8047C628.236 148.066 560.355 250.36 443.636 301.047Z" fill="url(#paint79_radial)"/>
</g>
<defs>
<radialGradient id="paint0_radial" cx="0" cy="0" r="1" gradientUnits="userSpaceOnUse" gradientTransform="translate(310.538 251.515) rotate(123.545) scale(2.20082)">
<stop offset="0.00396825" stop-color="#596381"/>
<stop offset="1"/>
</radialGradient>
<radialGradient id="paint1_radial" cx="0" cy="0" r="1" gradientUnits="userSpaceOnUse" gradientTransform="translate(310.538 251.516) rotate(123.545) scale(1.83094)">
<stop offset="0.00396825" stop-color="#4A9FFC"/>
<stop offset="1"/>
</radialGradient>
<linearGradient id="paint2_linear" x1="310.552" y1="252.504" x2="310.552" y2="250.422" gradientUnits="userSpaceOnUse">
<stop stop-color="#8BA7FF"/>
<stop offset="1" stop-color="#9CFFFF"/>
</linearGradient>
<radialGradient id="paint3_radial" cx="0" cy="0" r="1" gradientUnits="userSpaceOnUse" gradientTransform="translate(303.868 105.458) rotate(123.545) scale(2.20099)">
<stop offset="0.00396825" stop-color="#596381"/>
<stop offset="1"/>
</radialGradient>
<radialGradient id="paint4_radial" cx="0" cy="0" r="1" gradientUnits="userSpaceOnUse" gradientTransform="translate(303.868 105.458) rotate(123.545) scale(1.83094)">
<stop offset="0.00396825" stop-color="#4A9FFC"/>
<stop offset="1"/>
</radialGradient>
<linearGradient id="paint5_linear" x1="303.881" y1="106.447" x2="303.881" y2="104.364" gradientUnits="userSpaceOnUse">
<stop stop-color="#8BA7FF"/>
<stop offset="1" stop-color="#9CFFFF"/>
</linearGradient>
<radialGradient id="paint6_radial" cx="0" cy="0" r="1" gradientUnits="userSpaceOnUse" gradientTransform="translate(606.267 120.658) rotate(123.545) scale(2.20082)">
<stop offset="0.00396825" stop-color="#596381"/>
<stop offset="1"/>
</radialGradient>
<radialGradient id="paint7_radial" cx="0" cy="0" r="1" gradientUnits="userSpaceOnUse" gradientTransform="translate(606.266 120.658) rotate(123.545) scale(1.83094)">
<stop offset="0.00396825" stop-color="#4A9FFC"/>
<stop offset="1"/>
</radialGradient>
<linearGradient id="paint8_linear" x1="606.28" y1="121.647" x2="606.28" y2="119.565" gradientUnits="userSpaceOnUse">
<stop stop-color="#8BA7FF"/>
<stop offset="1" stop-color="#9CFFFF"/>
</linearGradient>
<radialGradient id="paint9_radial" cx="0" cy="0" r="1" gradientUnits="userSpaceOnUse" gradientTransform="translate(562.142 250.352) rotate(123.545) scale(2.20082)">
<stop offset="0.00396825" stop-color="#596381"/>
<stop offset="1"/>
</radialGradient>
<radialGradient id="paint10_radial" cx="0" cy="0" r="1" gradientUnits="userSpaceOnUse" gradientTransform="translate(562.142 250.352) rotate(123.545) scale(1.83094)">
<stop offset="0.00396825" stop-color="#4A9FFC"/>
<stop offset="1"/>
</radialGradient>
<linearGradient id="paint11_linear" x1="562.156" y1="251.341" x2="562.156" y2="249.258" gradientUnits="userSpaceOnUse">
<stop stop-color="#8BA7FF"/>
<stop offset="1" stop-color="#9CFFFF"/>
</linearGradient>
<radialGradient id="paint12_radial" cx="0" cy="0" r="1" gradientUnits="userSpaceOnUse" gradientTransform="translate(2.20121 197.83) rotate(123.545) scale(2.20082)">
<stop offset="0.00396825" stop-color="#596381"/>
<stop offset="1"/>
</radialGradient>
<radialGradient id="paint13_radial" cx="0" cy="0" r="1" gradientUnits="userSpaceOnUse" gradientTransform="translate(2.20121 197.83) rotate(123.545) scale(1.83094)">
<stop offset="0.00396825" stop-color="#4A9FFC"/>
<stop offset="1"/>
</radialGradient>
<linearGradient id="paint14_linear" x1="2.21488" y1="198.819" x2="2.21488" y2="196.736" gradientUnits="userSpaceOnUse">
<stop stop-color="#8BA7FF"/>
<stop offset="1" stop-color="#9CFFFF"/>
</linearGradient>
<radialGradient id="paint15_radial" cx="0" cy="0" r="1" gradientUnits="userSpaceOnUse" gradientTransform="translate(192.933 118.618) rotate(123.545) scale(2.20082)">
<stop offset="0.00396825" stop-color="#596381"/>
<stop offset="1"/>
</radialGradient>
<radialGradient id="paint16_radial" cx="0" cy="0" r="1" gradientUnits="userSpaceOnUse" gradientTransform="translate(192.933 118.618) rotate(123.545) scale(1.83094)">
<stop offset="0.00396825" stop-color="#4A9FFC"/>
<stop offset="1"/>
</radialGradient>
<linearGradient id="paint17_linear" x1="192.946" y1="119.606" x2="192.946" y2="117.524" gradientUnits="userSpaceOnUse">
<stop stop-color="#8BA7FF"/>
<stop offset="1" stop-color="#9CFFFF"/>
</linearGradient>
<radialGradient id="paint18_radial" cx="0" cy="0" r="1" gradientUnits="userSpaceOnUse" gradientTransform="translate(254.448 128.597) rotate(123.545) scale(1.0116)">
<stop offset="0.00396825" stop-color="#596381"/>
<stop offset="1"/>
</radialGradient>
<radialGradient id="paint19_radial" cx="0" cy="0" r="1" gradientUnits="userSpaceOnUse" gradientTransform="translate(254.448 128.597) rotate(123.545) scale(0.841633)">
<stop offset="0.00396825" stop-color="#4A9FFC"/>
<stop offset="1"/>
</radialGradient>
<linearGradient id="paint20_linear" x1="254.455" y1="129.051" x2="254.455" y2="128.094" gradientUnits="userSpaceOnUse">
<stop stop-color="#8BA7FF"/>
<stop offset="1" stop-color="#9CFFFF"/>
</linearGradient>
<radialGradient id="paint21_radial" cx="0" cy="0" r="1" gradientUnits="userSpaceOnUse" gradientTransform="translate(1.17373 118.618) rotate(123.545) scale(1.0116)">
<stop offset="0.00396825" stop-color="#596381"/>
<stop offset="1"/>
</radialGradient>
<radialGradient id="paint22_radial" cx="0" cy="0" r="1" gradientUnits="userSpaceOnUse" gradientTransform="translate(1.17371 118.618) rotate(123.545) scale(0.841633)">
<stop offset="0.00396825" stop-color="#4A9FFC"/>
<stop offset="1"/>
</radialGradient>
<linearGradient id="paint23_linear" x1="1.17998" y1="119.072" x2="1.17998" y2="118.115" gradientUnits="userSpaceOnUse">
<stop stop-color="#8BA7FF"/>
<stop offset="1" stop-color="#9CFFFF"/>
</linearGradient>
<radialGradient id="paint24_radial" cx="0" cy="0" r="1" gradientUnits="userSpaceOnUse" gradientTransform="translate(673.131 162.829) rotate(123.545) scale(1.0116)">
<stop offset="0.00396825" stop-color="#596381"/>
<stop offset="1"/>
</radialGradient>
<radialGradient id="paint25_radial" cx="0" cy="0" r="1" gradientUnits="userSpaceOnUse" gradientTransform="translate(673.131 162.829) rotate(123.545) scale(0.841636)">
<stop offset="0.00396825" stop-color="#4A9FFC"/>
<stop offset="1"/>
</radialGradient>
<linearGradient id="paint26_linear" x1="673.137" y1="163.283" x2="673.137" y2="162.326" gradientUnits="userSpaceOnUse">
<stop stop-color="#8BA7FF"/>
<stop offset="1" stop-color="#9CFFFF"/>
</linearGradient>
<radialGradient id="paint27_radial" cx="0" cy="0" r="1" gradientUnits="userSpaceOnUse" gradientTransform="translate(332.435 129.051) rotate(123.545) scale(1.01177)">
<stop offset="0.00396825" stop-color="#596381"/>
<stop offset="1"/>
</radialGradient>
<radialGradient id="paint28_radial" cx="0" cy="0" r="1" gradientUnits="userSpaceOnUse" gradientTransform="translate(332.435 129.051) rotate(123.545) scale(0.841636)">
<stop offset="0.00396825" stop-color="#4A9FFC"/>
<stop offset="1"/>
</radialGradient>
<linearGradient id="paint29_linear" x1="332.441" y1="129.506" x2="332.441" y2="128.548" gradientUnits="userSpaceOnUse">
<stop stop-color="#8BA7FF"/>
<stop offset="1" stop-color="#9CFFFF"/>
</linearGradient>
<radialGradient id="paint30_radial" cx="0" cy="0" r="1" gradientUnits="userSpaceOnUse" gradientTransform="translate(677.668 185.834) rotate(123.545) scale(1.01177)">
<stop offset="0.00396825" stop-color="#596381"/>
<stop offset="1"/>
</radialGradient>
<radialGradient id="paint31_radial" cx="0" cy="0" r="1" gradientUnits="userSpaceOnUse" gradientTransform="translate(677.668 185.833) rotate(123.545) scale(0.841636)">
<stop offset="0.00396825" stop-color="#4A9FFC"/>
<stop offset="1"/>
</radialGradient>
<linearGradient id="paint32_linear" x1="677.674" y1="186.288" x2="677.674" y2="185.331" gradientUnits="userSpaceOnUse">
<stop stop-color="#8BA7FF"/>
<stop offset="1" stop-color="#9CFFFF"/>
</linearGradient>
<radialGradient id="paint33_radial" cx="0" cy="0" r="1" gradientUnits="userSpaceOnUse" gradientTransform="translate(629.002 127.403) rotate(123.545) scale(1.0116)">
<stop offset="0.00396825" stop-color="#596381"/>
<stop offset="1"/>
</radialGradient>
<radialGradient id="paint34_radial" cx="0" cy="0" r="1" gradientUnits="userSpaceOnUse" gradientTransform="translate(629.002 127.403) rotate(123.545) scale(0.841636)">
<stop offset="0.00396825" stop-color="#4A9FFC"/>
<stop offset="1"/>
</radialGradient>
<linearGradient id="paint35_linear" x1="629.008" y1="127.858" x2="629.008" y2="126.901" gradientUnits="userSpaceOnUse">
<stop stop-color="#8BA7FF"/>
<stop offset="1" stop-color="#9CFFFF"/>
</linearGradient>
<radialGradient id="paint36_radial" cx="0" cy="0" r="1" gradientUnits="userSpaceOnUse" gradientTransform="translate(639.859 201.146) rotate(123.545) scale(1.0116)">
<stop offset="0.00396825" stop-color="#596381"/>
<stop offset="1"/>
</radialGradient>
<radialGradient id="paint37_radial" cx="0" cy="0" r="1" gradientUnits="userSpaceOnUse" gradientTransform="translate(639.859 201.146) rotate(123.545) scale(0.841631)">
<stop offset="0.00396825" stop-color="#4A9FFC"/>
<stop offset="1"/>
</radialGradient>
<linearGradient id="paint38_linear" x1="639.866" y1="201.601" x2="639.866" y2="200.643" gradientUnits="userSpaceOnUse">
<stop stop-color="#8BA7FF"/>
<stop offset="1" stop-color="#9CFFFF"/>
</linearGradient>
<radialGradient id="paint39_radial" cx="0" cy="0" r="1" gradientUnits="userSpaceOnUse" gradientTransform="translate(223.765 190.87) rotate(123.545) scale(1.01177)">
<stop offset="0.00396825" stop-color="#596381"/>
<stop offset="1"/>
</radialGradient>
<radialGradient id="paint40_radial" cx="0" cy="0" r="1" gradientUnits="userSpaceOnUse" gradientTransform="translate(223.765 190.87) rotate(123.545) scale(0.841633)">
<stop offset="0.00396825" stop-color="#4A9FFC"/>
<stop offset="1"/>
</radialGradient>
<linearGradient id="paint41_linear" x1="223.771" y1="191.324" x2="223.771" y2="190.367" gradientUnits="userSpaceOnUse">
<stop stop-color="#8BA7FF"/>
<stop offset="1" stop-color="#9CFFFF"/>
</linearGradient>
<radialGradient id="paint42_radial" cx="0" cy="0" r="1" gradientUnits="userSpaceOnUse" gradientTransform="translate(331.95 258.006) rotate(123.545) scale(1.0116)">
<stop offset="0.00396825" stop-color="#596381"/>
<stop offset="1"/>
</radialGradient>
<radialGradient id="paint43_radial" cx="0" cy="0" r="1" gradientUnits="userSpaceOnUse" gradientTransform="translate(331.95 258.006) rotate(123.545) scale(0.841635)">
<stop offset="0.00396825" stop-color="#4A9FFC"/>
<stop offset="1"/>
</radialGradient>
<linearGradient id="paint44_linear" x1="331.956" y1="258.46" x2="331.956" y2="257.503" gradientUnits="userSpaceOnUse">
<stop stop-color="#8BA7FF"/>
<stop offset="1" stop-color="#9CFFFF"/>
</linearGradient>
<radialGradient id="paint45_radial" cx="0" cy="0" r="1" gradientUnits="userSpaceOnUse" gradientTransform="translate(135.65 271.004) rotate(123.545) scale(1.0116)">
<stop offset="0.00396825" stop-color="#596381"/>
<stop offset="1"/>
</radialGradient>
<radialGradient id="paint46_radial" cx="0" cy="0" r="1" gradientUnits="userSpaceOnUse" gradientTransform="translate(135.65 271.004) rotate(123.545) scale(0.841632)">
<stop offset="0.00396825" stop-color="#4A9FFC"/>
<stop offset="1"/>
</radialGradient>
<linearGradient id="paint47_linear" x1="135.656" y1="271.459" x2="135.656" y2="270.501" gradientUnits="userSpaceOnUse">
<stop stop-color="#8BA7FF"/>
<stop offset="1" stop-color="#9CFFFF"/>
</linearGradient>
<radialGradient id="paint48_radial" cx="0" cy="0" r="1" gradientUnits="userSpaceOnUse" gradientTransform="translate(95.7421 211.889) rotate(123.545) scale(1.0116)">
<stop offset="0.00396825" stop-color="#596381"/>
<stop offset="1"/>
</radialGradient>
<radialGradient id="paint49_radial" cx="0" cy="0" r="1" gradientUnits="userSpaceOnUse" gradientTransform="translate(95.7422 211.889) rotate(123.545) scale(0.841634)">
<stop offset="0.00396825" stop-color="#4A9FFC"/>
<stop offset="1"/>
</radialGradient>
<linearGradient id="paint50_linear" x1="95.7484" y1="212.344" x2="95.7484" y2="211.387" gradientUnits="userSpaceOnUse">
<stop stop-color="#8BA7FF"/>
<stop offset="1" stop-color="#9CFFFF"/>
</linearGradient>
<radialGradient id="paint51_radial" cx="0" cy="0" r="1" gradientUnits="userSpaceOnUse" gradientTransform="translate(182.212 237.547) rotate(123.545) scale(1.0116)">
<stop offset="0.00396825" stop-color="#596381"/>
<stop offset="1"/>
</radialGradient>
<radialGradient id="paint52_radial" cx="0" cy="0" r="1" gradientUnits="userSpaceOnUse" gradientTransform="translate(182.212 237.547) rotate(123.545) scale(0.841632)">
<stop offset="0.00396825" stop-color="#4A9FFC"/>
<stop offset="1"/>
</radialGradient>
<linearGradient id="paint53_linear" x1="182.218" y1="238.002" x2="182.218" y2="237.044" gradientUnits="userSpaceOnUse">
<stop stop-color="#8BA7FF"/>
<stop offset="1" stop-color="#9CFFFF"/>
</linearGradient>
<radialGradient id="paint54_radial" cx="0" cy="0" r="1" gradientUnits="userSpaceOnUse" gradientTransform="translate(343.586 165.969) rotate(123.545) scale(1.0116)">
<stop offset="0.00396825" stop-color="#596381"/>
<stop offset="1"/>
</radialGradient>
<radialGradient id="paint55_radial" cx="0" cy="0" r="1" gradientUnits="userSpaceOnUse" gradientTransform="translate(343.586 165.969) rotate(123.545) scale(0.841632)">
<stop offset="0.00396825" stop-color="#4A9FFC"/>
<stop offset="1"/>
</radialGradient>
<linearGradient id="paint56_linear" x1="343.592" y1="166.423" x2="343.592" y2="165.466" gradientUnits="userSpaceOnUse">
<stop stop-color="#8BA7FF"/>
<stop offset="1" stop-color="#9CFFFF"/>
</linearGradient>
<radialGradient id="paint57_radial" cx="0" cy="0" r="1" gradientUnits="userSpaceOnUse" gradientTransform="translate(164.545 208.655) scale(178.553)">
<stop stop-color="#4A955B"/>
<stop offset="0.0526286" stop-color="#43865A"/>
<stop offset="0.2409" stop-color="#2B5747"/>
<stop offset="0.42" stop-color="#183128"/>
<stop offset="0.5853" stop-color="#0B1611"/>
<stop offset="0.7316" stop-color="#030604"/>
<stop offset="0.8439"/>
</radialGradient>
<radialGradient id="paint58_radial" cx="0" cy="0" r="1" gradientUnits="userSpaceOnUse" gradientTransform="translate(231.754 182.54) scale(100.671)">
<stop stop-color="#46EF9E"/>
<stop offset="0.1957" stop-color="#41ECAE"/>
<stop offset="0.5662" stop-color="#33E5A5"/>
<stop offset="1" stop-color="#20DB76"/>
</radialGradient>
<radialGradient id="paint59_radial" cx="0" cy="0" r="1" gradientUnits="userSpaceOnUse" gradientTransform="translate(226.238 179.501) scale(122.17)">
<stop stop-color="#C2F7DA"/>
<stop offset="0.1338" stop-color="#B4EDD5"/>
<stop offset="0.3874" stop-color="#8FE9D9"/>
<stop offset="0.7307" stop-color="#53E1AE"/>
<stop offset="1" stop-color="#20DB76"/>
</radialGradient>
<linearGradient id="paint60_linear" x1="124" y1="272.117" x2="472.937" y2="186.92" gradientUnits="userSpaceOnUse">
<stop stop-color="#020E17" stop-opacity="0.4"/>
<stop offset="1" stop-color="#00FFA3" stop-opacity="0.46"/>
</linearGradient>
<linearGradient id="paint61_linear" x1="428.578" y1="151.086" x2="575.887" y2="115.067" gradientUnits="userSpaceOnUse">
<stop stop-color="#0D4D34"/>
<stop offset="1" stop-color="#15AB89"/>
</linearGradient>
<linearGradient id="paint62_linear" x1="403.248" y1="103.192" x2="583.86" y2="66.3475" gradientUnits="userSpaceOnUse">
<stop stop-color="#0D4D34"/>
<stop offset="1" stop-color="#15AB89"/>
</linearGradient>
<linearGradient id="paint63_linear" x1="361.721" y1="120.107" x2="638.58" y2="57.0166" gradientUnits="userSpaceOnUse">
<stop stop-color="#0D4D34"/>
<stop offset="1" stop-color="#15AB89"/>
</linearGradient>
<linearGradient id="paint64_linear" x1="427.633" y1="156.429" x2="594.227" y2="139.195" gradientUnits="userSpaceOnUse">
<stop stop-color="#0E9F85"/>
<stop offset="1" stop-color="#0EA990"/>
</linearGradient>
<linearGradient id="paint65_linear" x1="510.509" y1="155.254" x2="500.61" y2="62.5013" gradientUnits="userSpaceOnUse">
<stop stop-color="#15AB89"/>
<stop offset="1" stop-color="#00CEDF"/>
</linearGradient>
<linearGradient id="paint66_linear" x1="364.104" y1="90.7955" x2="506.224" y2="75.6348" gradientUnits="userSpaceOnUse">
<stop stop-color="#0D4D34"/>
<stop offset="1" stop-color="#15AB89"/>
</linearGradient>
<linearGradient id="paint67_linear" x1="397.789" y1="66.0408" x2="474.603" y2="58.5796" gradientUnits="userSpaceOnUse">
<stop stop-color="#0D4D34"/>
<stop offset="1" stop-color="#15AB89"/>
</linearGradient>
<linearGradient id="paint68_linear" x1="461.536" y1="46.8872" x2="483.454" y2="45.2886" gradientUnits="userSpaceOnUse">
<stop stop-color="#0D4D34"/>
<stop offset="1" stop-color="#15AB89"/>
</linearGradient>
<linearGradient id="paint69_linear" x1="359.143" y1="158.736" x2="409.54" y2="152.629" gradientUnits="userSpaceOnUse">
<stop stop-color="#0D4D34"/>
<stop offset="1" stop-color="#15AB89"/>
</linearGradient>
<linearGradient id="paint70_linear" x1="398" y1="166.986" x2="423.295" y2="163.494" gradientUnits="userSpaceOnUse">
<stop stop-color="#0D4D34"/>
<stop offset="1" stop-color="#15AB89"/>
</linearGradient>
<linearGradient id="paint71_linear" x1="390.262" y1="143.311" x2="419.311" y2="139.314" gradientUnits="userSpaceOnUse">
<stop stop-color="#0D4D34"/>
<stop offset="1" stop-color="#15AB89"/>
</linearGradient>
<linearGradient id="paint72_linear" x1="493.593" y1="69.8428" x2="508.602" y2="69.5648" gradientUnits="userSpaceOnUse">
<stop stop-color="#0D4D34"/>
<stop offset="1" stop-color="#15AB89"/>
</linearGradient>
<linearGradient id="paint73_linear" x1="498.752" y1="71.2738" x2="518.844" y2="70.6234" gradientUnits="userSpaceOnUse">
<stop stop-color="#0D4D34"/>
<stop offset="1" stop-color="#15AB89"/>
</linearGradient>
<linearGradient id="paint74_linear" x1="513.223" y1="67.7404" x2="518.92" y2="67.1547" gradientUnits="userSpaceOnUse">
<stop stop-color="#0A6550"/>
<stop offset="1" stop-color="#15AB89"/>
</linearGradient>
<linearGradient id="paint75_linear" x1="414.05" y1="124.041" x2="633.885" y2="124.05" gradientUnits="userSpaceOnUse">
<stop offset="0.0257937" stop-color="#00FFBB"/>
<stop offset="1" stop-color="#76D9B9"/>
</linearGradient>
<linearGradient id="paint76_linear" x1="373.658" y1="124.686" x2="387.101" y2="123.259" gradientUnits="userSpaceOnUse">
<stop stop-color="#0D4D34"/>
<stop offset="1" stop-color="#15AB89"/>
</linearGradient>
<linearGradient id="paint77_linear" x1="434.825" y1="168.113" x2="445.138" y2="166.595" gradientUnits="userSpaceOnUse">
<stop stop-color="#0D4D34"/>
<stop offset="1" stop-color="#15AB89"/>
</linearGradient>
<linearGradient id="paint78_linear" x1="586.292" y1="88.5801" x2="584.216" y2="68.4002" gradientUnits="userSpaceOnUse">
<stop/>
<stop offset="0.1479" stop-color="#050D09"/>
<stop offset="0.3513" stop-color="#081710"/>
<stop offset="0.587" stop-color="#112B1E"/>
<stop offset="0.8449" stop-color="#0C4D35"/>
<stop offset="1" stop-color="#167C45"/>
</linearGradient>
<radialGradient id="paint79_radial" cx="0" cy="0" r="1" gradientUnits="userSpaceOnUse" gradientTransform="translate(384.274 164.531) rotate(66.5364) scale(148.866 230.377)">
<stop stop-color="#07FFA6"/>
<stop offset="0.2005" stop-color="#05BB79" stop-opacity="0.88"/>
<stop offset="0.4155" stop-color="#037940" stop-opacity="0.79"/>
<stop offset="0.6108" stop-color="#024525" stop-opacity="0.72"/>
<stop offset="0.7795" stop-opacity="0.35"/>
<stop offset="0.9148" stop-color="#000805" stop-opacity="0.15"/>
<stop offset="1" stop-opacity="0"/>
</radialGradient>
<clipPath id="clip0">
<rect width="679" height="187" fill="white" transform="translate(0 85)"/>
</clipPath>
<clipPath id="clip1">
<rect width="520.404" height="236.757" fill="white" transform="translate(124 35.3599)"/>
</clipPath>
<clipPath id="clip2">
<rect width="438.923" height="329" fill="white" transform="translate(164.741)"/>
</clipPath>
</defs>
</svg>
