<svg width="236" height="236" viewBox="0 0 236 236" fill="none" xmlns="http://www.w3.org/2000/svg">
<path d="M27.3169 181.084C27.3169 135.739 3.82837 104.6 3.82837 82.7508C3.82837 60.9011 16.3888 15.0122 116.905 15.0122C217.421 15.0122 232.171 76.7459 232.171 100.779C232.178 213.318 27.3169 261.39 27.3169 181.084Z" fill="#EFEFEF"/>
<path d="M45.698 30.6685L54.969 21.3975L59.6044 26.033L50.3335 35.3039L45.698 30.6685Z" fill="#A4AFC1"/>
<path d="M19.0432 57.3125L28.3142 48.0415L32.9497 52.677L23.6787 61.948L19.0432 57.3125Z" fill="#A4AFC1"/>
<path d="M19.0491 24.8748L23.6846 20.2393L32.9555 29.5102L28.32 34.1457L19.0491 24.8748Z" fill="#A4AFC1"/>
<path d="M201.138 212.151C195.716 212.151 191.304 207.739 191.304 202.318C191.304 196.896 195.716 192.484 201.138 192.484C206.559 192.484 210.971 196.896 210.971 202.318C210.971 207.739 206.559 212.151 201.138 212.151ZM201.138 199.04C199.335 199.04 197.86 200.508 197.86 202.318C197.86 204.127 199.335 205.595 201.138 205.595C202.94 205.595 204.415 204.127 204.415 202.318C204.415 200.508 202.94 199.04 201.138 199.04Z" fill="#A4AFC1"/>
<path d="M172.083 191.75H63.9165V175.361C63.9165 168.117 69.7837 162.25 77.0276 162.25H158.972C166.216 162.25 172.083 168.117 172.083 175.361V191.75Z" fill="#F3F3F1"/>
<path d="M108.167 160.611V149.598L108.429 55.7222L68.8333 81.9444L70.5377 92.2366L71.4555 97.5466L72.701 105.151L75.1921 120.098L79.8466 150.339L81.669 162.25H108.429L108.167 160.611Z" fill="#2FDF84"/>
<path d="M121.278 160.611V42.6111L173.722 62.2778L171.362 74.0122L169.526 83.3211L168.674 87.5166L165.724 102.267L157.281 150.109L155.97 160.611H121.278Z" fill="#2FDF84"/>
<path d="M121.278 42.6111V160.611H134.389V47.5278L121.278 42.6111Z" fill="#00B871"/>
<path d="M108.167 155.694H92.9774L91.1549 143.783L86.5005 113.542L84.0094 98.5955L82.7638 90.9911L81.846 85.6811L80.1416 75.3888L108.429 56.6596V55.7222L68.8333 81.9444L70.5377 92.2366L71.4555 97.5466L72.701 105.151L75.1921 120.098L79.8466 150.339L81.669 162.25H108.429L108.167 160.611V155.694Z" fill="#00B871"/>
<path d="M90.1387 162.25H77.0276C69.7837 162.25 63.9165 168.117 63.9165 175.361V191.75H77.0276V175.361C77.0276 168.117 82.8948 162.25 90.1387 162.25Z" fill="#D5DBE1"/>
<path d="M172.083 196.667H63.9167C61.2027 196.667 59 194.464 59 191.75V175.361C59 165.416 67.083 157.333 77.0278 157.333H158.972C168.917 157.333 177 165.416 177 175.361V191.75C177 194.464 174.797 196.667 172.083 196.667ZM68.8333 186.833H167.167V175.361C167.167 170.844 163.489 167.167 158.972 167.167H77.0278C72.511 167.167 68.8333 170.844 68.8333 175.361V186.833Z" fill="black"/>
<path d="M108.429 167.167H81.669C79.2434 167.167 77.1719 165.39 76.8113 162.997L63.9821 82.7507C63.6674 80.8365 64.5066 78.9223 66.1192 77.8472L105.715 51.6249C107.216 50.6285 109.163 50.5302 110.763 51.3955C112.362 52.2543 113.359 53.9259 113.352 55.7353L113.083 160.218L113.28 161.47C113.509 162.892 113.103 164.341 112.165 165.436C111.241 166.537 109.871 167.167 108.429 167.167ZM85.8908 157.333H103.25L103.486 64.8934L74.2022 84.2847L80.0432 119.291L85.8908 157.333Z" fill="black"/>
<path d="M155.97 165.528H121.278C118.564 165.528 116.361 163.325 116.361 160.611V42.6112C116.361 40.9985 117.154 39.4842 118.479 38.5729C119.803 37.6486 121.488 37.4454 123.002 38.0092L139.037 44.0206L135.589 53.2312L126.194 49.7108V155.694H151.63L152.404 149.499L160.886 101.414L168.078 65.4114L152.771 59.6753L156.225 50.4713L175.453 57.6824C177.715 58.528 179.019 60.8881 178.547 63.2546L170.549 103.237L162.125 150.974L160.854 161.227C160.539 163.679 158.448 165.528 155.97 165.528Z" fill="black"/>
<path d="M104.797 166.577L100.025 165.377C88.3557 162.44 77.5914 156.56 68.8988 148.359C50.3269 130.856 42.6503 104.607 48.8584 79.873L50.0581 75.1006L59.5964 77.4934L58.4033 82.2724C53.0606 103.558 59.662 126.142 75.651 141.207C83.1243 148.261 92.3873 153.321 102.424 155.839L107.196 157.038L104.797 166.577Z" fill="black"/>
<path d="M53.8035 127.772L61.0271 105.299L70.3884 108.308L63.1648 130.781L53.8035 127.772Z" fill="black"/>
<path d="M42.2917 138.017L44.2089 128.373L67.7418 133.05L65.8247 142.695L42.2917 138.017Z" fill="black"/>
<path d="M69.4016 151.304L72.1898 128.422L81.9478 129.612L79.1596 152.493L69.4016 151.304Z" fill="black"/>
<path d="M61.353 156.97L61.7955 147.146L88.1553 148.334L87.7128 158.157L61.353 156.97Z" fill="black"/>
<path d="M86.7366 140.112H96.5699V162.322H86.7366V140.112Z" fill="black"/>
<path d="M37.0735 115.459L41.2813 106.571L61.9241 116.345L57.7163 125.232L37.0735 115.459Z" fill="black"/>
<path d="M48.3574 107.557L58.7176 87.8819L67.4185 92.4633L57.0583 112.139L48.3574 107.557Z" fill="black"/>
<path d="M35.6997 84.948L43.3795 78.8022L58.5597 97.7714L50.8799 103.917L35.6997 84.948Z" fill="black"/>
<path d="M131.203 166.577L128.81 157.038L133.583 155.839C143.619 153.315 152.882 148.254 160.355 141.207C176.338 126.136 182.946 103.552 177.603 82.2658L176.403 77.4934L185.942 75.1006L187.141 79.873C193.35 104.607 185.673 130.849 167.101 148.359C158.408 156.553 147.644 162.44 135.975 165.377L131.203 166.577Z" fill="black"/>
<path d="M162.199 110.04L171.561 107.04L178.759 129.508L169.397 132.507L162.199 110.04Z" fill="black"/>
<path d="M167.994 132.965L191.52 128.289L193.438 137.933L169.911 142.61L167.994 132.965Z" fill="black"/>
<path d="M154.126 129.735L163.884 128.546L166.673 151.428L156.915 152.617L154.126 129.735Z" fill="black"/>
<path d="M147.881 148.273L174.241 147.086L174.684 156.91L148.324 158.097L147.881 148.273Z" fill="black"/>
<path d="M139.43 140.112H149.263V162.322H139.43V140.112Z" fill="black"/>
<path d="M174.13 116.51L194.773 106.736L198.981 115.624L178.338 125.397L174.13 116.51Z" fill="black"/>
<path d="M168.272 93.9937L176.973 89.4122L187.333 109.088L178.632 113.669L168.272 93.9937Z" fill="black"/>
<path d="M177.481 97.6401L192.661 78.6709L200.341 84.8168L185.161 103.786L177.481 97.6401Z" fill="black"/>
</svg>
