<svg xmlns="http://www.w3.org/2000/svg" width="642" height="342" viewBox="0 0 642 342" fill="none">
<path d="M191.875 36.1923H206.828L243.652 29.4956L259.82 36.1923L320.757 98.484L351.599 116.173L440.947 188.573L548.333 225.468L641.794 259.331V334.258H0V141.57C0 141.57 45.5153 107.076 60.469 103.664C75.4227 100.253 120.284 86.8596 120.284 86.8596L177.575 54.008L191.875 36.1923Z" fill="url(#paint0_linear)"/>
<path opacity="0.37" d="M21.4959 132.22L104.676 112.004L152.621 82.5637L189.351 49.7121L206.828 36.1924H191.875L177.575 53.8817L120.284 86.7333C120.284 86.7333 75.4227 100.253 60.469 103.538C45.5153 106.95 0 141.444 0 141.444V158.122L21.4959 132.22Z" fill="#090909"/>
<path opacity="0.32" d="M548.333 225.595L440.947 188.7L351.599 116.3L320.757 98.6106L290.008 67.1488L314.495 112.004L380.945 167.599C380.945 167.599 417.582 209.422 418.704 211.696C419.919 213.97 562.539 230.775 562.539 230.775L548.333 225.595Z" fill="#0A0A0A"/>
<path d="M450.947 254.024L349.823 236.966L274.026 212.959L249.259 180.108L228.978 169.368L199.725 132.346L165.425 112.888H139.91C139.91 112.888 95.3298 140.054 83.1799 142.328C71.0301 144.729 49.908 157.996 49.908 157.996L0 180.108V247.706V334.889H582.727L450.947 254.024Z" fill="url(#paint1_linear)"/>
<path opacity="0.08" d="M219.352 239.494L199.725 250.233L124.957 312.146L116.791 334.266H564.397L448.424 252.761L349.729 236.966L274.026 212.96L249.259 180.108L233.838 200.577L219.352 239.494Z" fill="url(#paint2_linear)"/>
<path d="M224.895 331.753H223.277L226.512 115.348H228.13L224.895 331.753Z" fill="#3C3C3C"/>
<path d="M269.109 331.753H267.491L264.256 115.348H265.874L269.109 331.753Z" fill="#3C3C3C"/>
<path d="M264.795 119.666H227.052V121.285H264.795V119.666Z" fill="#3C3C3C"/>
<path d="M264.795 147.728H227.052V149.347H264.795V147.728Z" fill="#3C3C3C"/>
<path d="M265.874 175.791H226.512V177.41H265.874V175.791Z" fill="#3C3C3C"/>
<path d="M266.413 203.853H226.512V205.472H266.413V203.853Z" fill="#3C3C3C"/>
<path d="M266.952 231.916H225.973V233.535H266.952V231.916Z" fill="#3C3C3C"/>
<path d="M266.952 259.978H225.434V261.597H266.952V259.978Z" fill="#3C3C3C"/>
<path d="M267.491 288.041H224.895V289.66H267.491V288.041Z" fill="#3C3C3C"/>
<path d="M268.03 316.103H223.816V317.722H268.03V316.103Z" fill="#3C3C3C"/>
<path d="M244.126 220.78C256.637 220.78 266.779 210.629 266.779 198.107C266.779 185.586 256.637 175.435 244.126 175.435C231.615 175.435 221.473 185.586 221.473 198.107C221.473 210.629 231.615 220.78 244.126 220.78Z" fill="#07F9A2"/>
<path d="M257.451 213.778L250.679 215.005L252.875 227.149L259.647 225.922L257.451 213.778Z" fill="#07F9A2"/>
<path d="M243.907 216.232L237.135 217.459L239.332 229.602L246.104 228.375L243.907 216.232Z" fill="#07F9A2"/>
<path d="M242.927 232.156C245.344 230.107 246.681 227.711 245.913 226.804C245.146 225.897 242.564 226.822 240.147 228.871C237.73 230.919 236.393 233.316 237.161 234.223C237.928 235.13 240.51 234.205 242.927 232.156Z" fill="#07F9A2"/>
<path d="M256.188 229.753C258.605 227.704 259.942 225.308 259.175 224.401C258.407 223.494 255.825 224.419 253.408 226.468C250.991 228.517 249.654 230.913 250.422 231.82C251.19 232.727 253.771 231.802 256.188 229.753Z" fill="#07F9A2"/>
<path d="M242.54 200.311C246.816 200.311 250.283 196.841 250.283 192.562C250.283 188.282 246.816 184.813 242.54 184.813C238.265 184.813 234.798 188.282 234.798 192.562C234.798 196.841 238.265 200.311 242.54 200.311Z" fill="white"/>
<path d="M239.358 192.367C240.784 192.367 241.939 191.211 241.939 189.784C241.939 188.358 240.784 187.201 239.358 187.201C237.933 187.201 236.778 188.358 236.778 189.784C236.778 191.211 237.933 192.367 239.358 192.367Z" fill="#3C3C3C"/>
<path d="M261.996 173.442C262.337 165.049 255.109 157.939 245.852 157.563C236.596 157.186 228.815 163.686 228.475 172.079C228.134 180.473 234.569 182.38 243.825 182.757C253.082 183.133 261.656 181.836 261.996 173.442Z" fill="#E6E6E6"/>
<path d="M234.25 196.51C234.688 194.594 230.101 191.907 224.004 190.508C217.907 189.109 212.608 189.528 212.169 191.444C211.731 193.36 216.318 196.047 222.415 197.446C228.512 198.845 233.811 198.426 234.25 196.51Z" fill="#07F9A2"/>
<path d="M278.716 203.911C279.155 201.995 274.568 199.308 268.471 197.909C262.373 196.51 257.075 196.93 256.636 198.845C256.197 200.761 260.785 203.448 266.882 204.847C272.979 206.246 278.278 205.827 278.716 203.911Z" fill="#07F9A2"/>
<path d="M250.348 207.042C250.47 207.71 250.459 208.395 250.316 209.059C250.174 209.722 249.902 210.351 249.516 210.909C249.13 211.468 248.639 211.944 248.069 212.312C247.499 212.68 246.862 212.932 246.195 213.054C245.528 213.175 244.843 213.164 244.181 213.021C243.518 212.877 242.89 212.605 242.332 212.218C241.775 211.832 241.299 211.339 240.931 210.769C240.564 210.198 240.313 209.561 240.192 208.893L240.19 208.883C239.682 206.075 241.851 205.082 244.656 204.574C247.461 204.066 249.84 204.235 250.348 207.042Z" fill="white"/>
<path d="M269.31 72.1985C271.6 66.2034 271.931 60.7603 270.051 60.0409C268.17 59.3216 264.79 63.5984 262.501 69.5935C260.211 75.5885 259.879 81.0316 261.76 81.751C263.64 82.4703 267.021 78.1935 269.31 72.1985Z" fill="#07F9A2"/>
<path d="M267.363 92.1699C269.418 79.4996 260.821 67.5614 248.161 65.5052C235.502 63.4491 223.574 72.0537 221.52 84.7241C219.465 97.3944 228.062 109.333 240.722 111.389C253.381 113.445 265.309 104.84 267.363 92.1699Z" fill="#07F9A2"/>
<path d="M240.914 106.687H233.859V119.338H240.914V106.687Z" fill="#07F9A2"/>
<path d="M255.023 106.687H247.969V119.338H255.023V106.687Z" fill="#07F9A2"/>
<path d="M239.738 121.692C242.985 121.692 245.617 120.704 245.617 119.485C245.617 118.266 242.985 117.279 239.738 117.279C236.491 117.279 233.859 118.266 233.859 119.485C233.859 120.704 236.491 121.692 239.738 121.692Z" fill="#07F9A2"/>
<path d="M253.848 121.397C257.095 121.397 259.727 120.409 259.727 119.191C259.727 117.972 257.095 116.984 253.848 116.984C250.601 116.984 247.969 117.972 247.969 119.191C247.969 120.409 250.601 121.397 253.848 121.397Z" fill="#07F9A2"/>
<path d="M221.916 66.8327C220.04 58.4281 226.034 49.9356 235.303 47.8642C244.572 45.7928 253.606 50.9268 255.481 59.3314C257.356 67.736 251.213 70.8358 241.944 72.9072C232.675 74.9786 223.791 75.2373 221.916 66.8327Z" fill="#E6E6E6"/>
<path d="M228.777 82.6426C229.639 80.8222 225.642 77.1168 219.848 74.3665C214.054 71.6161 208.658 70.8623 207.795 72.6828C206.932 74.5032 210.93 78.2086 216.724 80.9589C222.518 83.7092 227.914 84.4631 228.777 82.6426Z" fill="#07F9A2"/>
<path d="M181.883 321.399C194.708 321.399 205.105 310.993 205.105 298.157C205.105 285.321 194.708 274.915 181.883 274.915C169.058 274.915 158.661 285.321 158.661 298.157C158.661 310.993 169.058 321.399 181.883 321.399Z" fill="#07F9A2"/>
<path d="M178.355 316.398H171.301V329.048H178.355V316.398Z" fill="#07F9A2"/>
<path d="M192.465 316.398H185.41V329.048H192.465V316.398Z" fill="#07F9A2"/>
<path d="M177.18 331.402C180.427 331.402 183.059 330.414 183.059 329.195C183.059 327.977 180.427 326.989 177.18 326.989C173.933 326.989 171.301 327.977 171.301 329.195C171.301 330.414 173.933 331.402 177.18 331.402Z" fill="#07F9A2"/>
<path d="M191.289 331.108C194.536 331.108 197.168 330.12 197.168 328.901C197.168 327.682 194.536 326.695 191.289 326.695C188.042 326.695 185.41 327.682 185.41 328.901C185.41 330.12 188.042 331.108 191.289 331.108Z" fill="#07F9A2"/>
<path d="M182.471 300.217C186.854 300.217 190.407 296.66 190.407 292.273C190.407 287.886 186.854 284.33 182.471 284.33C178.087 284.33 174.534 287.886 174.534 292.273C174.534 296.66 178.087 300.217 182.471 300.217Z" fill="white"/>
<path d="M182.471 294.921C183.932 294.921 185.116 293.736 185.116 292.273C185.116 290.811 183.932 289.625 182.471 289.625C181.01 289.625 179.825 290.811 179.825 292.273C179.825 293.736 181.01 294.921 182.471 294.921Z" fill="#3C3C3C"/>
<path d="M159.357 276.543C157.482 268.138 163.476 259.646 172.744 257.575C182.013 255.503 191.047 260.637 192.922 269.042C194.797 277.446 188.654 280.546 179.386 282.617C170.117 284.689 161.232 284.948 159.357 276.543Z" fill="#E6E6E6"/>
<path d="M195.439 218.468C197.492 214.673 198.291 211.128 197.222 210.549C196.154 209.97 193.623 212.577 191.57 216.372C189.516 220.167 188.718 223.713 189.786 224.292C190.855 224.871 193.385 222.263 195.439 218.468Z" fill="#07F9A2"/>
<path d="M196.868 235.097C198.922 222.426 190.325 210.488 177.666 208.432C165.006 206.376 153.079 214.98 151.024 227.651C148.97 240.321 157.567 252.259 170.226 254.315C182.886 256.372 194.814 247.767 196.868 235.097Z" fill="#07F9A2"/>
<path d="M170.419 249.614H163.364V262.265H170.419V249.614Z" fill="#07F9A2"/>
<path d="M184.528 249.614H177.474V262.265H184.528V249.614Z" fill="#07F9A2"/>
<path d="M169.243 264.618C172.49 264.618 175.122 263.63 175.122 262.412C175.122 261.193 172.49 260.205 169.243 260.205C165.996 260.205 163.364 261.193 163.364 262.412C163.364 263.63 165.996 264.618 169.243 264.618Z" fill="#07F9A2"/>
<path d="M183.353 264.324C186.599 264.324 189.232 263.336 189.232 262.118C189.232 260.899 186.599 259.911 183.353 259.911C180.106 259.911 177.474 260.899 177.474 262.118C177.474 263.336 180.106 264.324 183.353 264.324Z" fill="#07F9A2"/>
<path d="M174.534 233.433C178.917 233.433 182.471 229.877 182.471 225.49C182.471 221.103 178.917 217.546 174.534 217.546C170.151 217.546 166.598 221.103 166.598 225.49C166.598 229.877 170.151 233.433 174.534 233.433Z" fill="white"/>
<path d="M174.534 228.138C175.995 228.138 177.18 226.952 177.18 225.49C177.18 224.027 175.995 222.842 174.534 222.842C173.073 222.842 171.889 224.027 171.889 225.49C171.889 226.952 173.073 228.138 174.534 228.138Z" fill="#3C3C3C"/>
<path d="M151.42 209.759C149.545 201.355 155.539 192.862 164.808 190.791C174.077 188.72 183.11 193.854 184.986 202.258C186.861 210.663 180.718 213.763 171.449 215.834C162.18 217.905 153.295 218.164 151.42 209.759Z" fill="#E6E6E6"/>
<path d="M158.282 225.569C159.144 223.749 155.147 220.043 149.353 217.293C143.559 214.543 138.163 213.789 137.3 215.609C136.437 217.43 140.435 221.135 146.229 223.886C152.023 226.636 157.419 227.39 158.282 225.569Z" fill="#07F9A2"/>
<path d="M162.54 239.758C162.54 242.033 168.392 246.525 174.885 246.525C181.379 246.525 187.468 240.121 187.468 237.846C187.468 235.571 181.379 238.287 174.885 238.287C168.392 238.287 162.54 237.484 162.54 239.758Z" fill="white"/>
<rect width="642" height="342" fill="url(#paint3_linear)"/>
<rect width="642" height="342" fill="url(#paint4_linear)"/>
<rect width="642" height="342" fill="url(#paint5_linear)"/>
<defs>
<linearGradient id="paint0_linear" x1="498.766" y1="29.7629" x2="108.188" y2="29.7629" gradientUnits="userSpaceOnUse">
<stop stop-color="#07F9A2"/>
<stop offset="1" stop-color="#0E5159"/>
</linearGradient>
<linearGradient id="paint1_linear" x1="228.692" y1="335" x2="225.714" y2="113.234" gradientUnits="userSpaceOnUse">
<stop stop-color="#151515"/>
<stop offset="1" stop-color="#373737"/>
</linearGradient>
<linearGradient id="paint2_linear" x1="341.063" y1="179.77" x2="341.063" y2="335" gradientUnits="userSpaceOnUse">
<stop stop-color="#C1BFC7"/>
<stop offset="1" stop-color="#0E0E0E"/>
</linearGradient>
<linearGradient id="paint3_linear" x1="4.78327e-06" y1="171" x2="642" y2="171" gradientUnits="userSpaceOnUse">
<stop offset="0.0439469" stop-color="#020E17"/>
<stop offset="0.410643" stop-color="#020E17" stop-opacity="0"/>
</linearGradient>
<linearGradient id="paint4_linear" x1="321" y1="0" x2="322.036" y2="362.999" gradientUnits="userSpaceOnUse">
<stop offset="0.561797" stop-color="#020E17" stop-opacity="0"/>
<stop offset="0.92608" stop-color="#020E17"/>
</linearGradient>
<linearGradient id="paint5_linear" x1="0" y1="171" x2="621.5" y2="171" gradientUnits="userSpaceOnUse">
<stop offset="0.546626" stop-color="#020E17" stop-opacity="0"/>
<stop offset="1" stop-color="#020E17"/>
</linearGradient>
</defs>
</svg>