<svg xmlns="http://www.w3.org/2000/svg" width="642" height="416" viewBox="0 0 642 416" fill="none">
<path d="M191.875 110.192H206.828L243.652 103.496L259.82 110.192L320.757 172.484L351.599 190.173L440.947 262.573L548.333 299.468L641.794 333.331V408.258H0V215.57C0 215.57 45.5153 181.076 60.469 177.664C75.4227 174.253 120.284 160.86 120.284 160.86L177.575 128.008L191.875 110.192Z" fill="url(#paint0_linear)"/>
<path opacity="0.37" d="M21.4959 206.22L104.676 186.004L152.621 156.564L189.351 123.712L206.828 110.192H191.875L177.575 127.882L120.284 160.733C120.284 160.733 75.4227 174.253 60.469 177.538C45.5153 180.95 0 215.444 0 215.444V232.122L21.4959 206.22Z" fill="#090909"/>
<path opacity="0.32" d="M548.333 299.595L440.947 262.7L351.599 190.3L320.757 172.611L290.008 141.149L314.495 186.004L380.945 241.599C380.945 241.599 417.582 283.422 418.704 285.696C419.919 287.97 562.539 304.775 562.539 304.775L548.333 299.595Z" fill="#0A0A0A"/>
<path d="M450.947 328.024L349.823 310.966L274.026 286.959L249.259 254.108L228.978 243.368L199.725 206.346L165.425 186.888H139.91C139.91 186.888 95.3298 214.054 83.1799 216.328C71.0301 218.729 49.908 231.996 49.908 231.996L0 254.108V321.706V408.889H582.727L450.947 328.024Z" fill="url(#paint1_linear)"/>
<path opacity="0.08" d="M219.352 313.494L199.725 324.233L124.957 386.146L116.791 408.266H564.397L448.424 326.761L349.729 310.966L274.026 286.96L249.259 254.108L233.838 274.577L219.352 313.494Z" fill="url(#paint2_linear)"/>
<path d="M224.895 405.753H223.277L226.512 189.348H228.13L224.895 405.753Z" fill="#3C3C3C"/>
<path d="M269.109 405.753H267.491L264.256 189.348H265.874L269.109 405.753Z" fill="#3C3C3C"/>
<path d="M264.795 193.666H227.052V195.285H264.795V193.666Z" fill="#3C3C3C"/>
<path d="M264.795 221.728H227.052V223.347H264.795V221.728Z" fill="#3C3C3C"/>
<path d="M265.874 249.791H226.512V251.41H265.874V249.791Z" fill="#3C3C3C"/>
<path d="M266.413 277.853H226.512V279.472H266.413V277.853Z" fill="#3C3C3C"/>
<path d="M266.952 305.916H225.973V307.535H266.952V305.916Z" fill="#3C3C3C"/>
<path d="M266.952 333.978H225.434V335.597H266.952V333.978Z" fill="#3C3C3C"/>
<path d="M267.491 362.041H224.895V363.66H267.491V362.041Z" fill="#3C3C3C"/>
<path d="M268.03 390.103H223.816V391.722H268.03V390.103Z" fill="#3C3C3C"/>
<path d="M244.126 294.78C256.637 294.78 266.779 284.629 266.779 272.107C266.779 259.586 256.637 249.435 244.126 249.435C231.615 249.435 221.473 259.586 221.473 272.107C221.473 284.629 231.615 294.78 244.126 294.78Z" fill="#07F9A2"/>
<path d="M257.451 287.778L250.679 289.005L252.875 301.149L259.647 299.922L257.451 287.778Z" fill="#07F9A2"/>
<path d="M243.907 290.232L237.135 291.459L239.332 303.602L246.104 302.375L243.907 290.232Z" fill="#07F9A2"/>
<path d="M242.927 306.156C245.344 304.107 246.681 301.711 245.913 300.804C245.146 299.897 242.564 300.822 240.147 302.871C237.73 304.919 236.393 307.316 237.161 308.223C237.928 309.13 240.51 308.205 242.927 306.156Z" fill="#07F9A2"/>
<path d="M256.188 303.753C258.605 301.704 259.942 299.308 259.175 298.401C258.407 297.494 255.825 298.419 253.408 300.468C250.991 302.517 249.654 304.913 250.422 305.82C251.19 306.727 253.771 305.802 256.188 303.753Z" fill="#07F9A2"/>
<path d="M242.54 274.311C246.816 274.311 250.283 270.841 250.283 266.562C250.283 262.282 246.816 258.813 242.54 258.813C238.265 258.813 234.798 262.282 234.798 266.562C234.798 270.841 238.265 274.311 242.54 274.311Z" fill="white"/>
<path d="M239.358 266.367C240.784 266.367 241.939 265.211 241.939 263.784C241.939 262.358 240.784 261.201 239.358 261.201C237.933 261.201 236.778 262.358 236.778 263.784C236.778 265.211 237.933 266.367 239.358 266.367Z" fill="#3C3C3C"/>
<path d="M261.996 247.442C262.337 239.049 255.109 231.939 245.852 231.563C236.596 231.186 228.815 237.686 228.475 246.079C228.134 254.473 234.569 256.38 243.825 256.757C253.082 257.133 261.656 255.836 261.996 247.442Z" fill="#E6E6E6"/>
<path d="M234.25 270.51C234.688 268.594 230.101 265.907 224.004 264.508C217.907 263.109 212.608 263.528 212.169 265.444C211.731 267.36 216.318 270.047 222.415 271.446C228.512 272.845 233.811 272.426 234.25 270.51Z" fill="#07F9A2"/>
<path d="M278.716 277.911C279.155 275.995 274.568 273.308 268.471 271.909C262.373 270.51 257.075 270.93 256.636 272.845C256.197 274.761 260.785 277.448 266.882 278.847C272.979 280.246 278.278 279.827 278.716 277.911Z" fill="#07F9A2"/>
<path d="M250.348 281.042C250.47 281.71 250.459 282.395 250.316 283.059C250.174 283.722 249.902 284.351 249.516 284.909C249.13 285.468 248.639 285.944 248.069 286.312C247.499 286.68 246.862 286.932 246.195 287.054C245.528 287.175 244.843 287.164 244.181 287.021C243.518 286.877 242.89 286.605 242.332 286.218C241.775 285.832 241.299 285.339 240.931 284.769C240.564 284.198 240.313 283.561 240.192 282.893L240.19 282.883C239.682 280.075 241.851 279.082 244.656 278.574C247.461 278.066 249.84 278.235 250.348 281.042Z" fill="white"/>
<path d="M269.31 146.198C271.6 140.203 271.931 134.76 270.051 134.041C268.17 133.322 264.79 137.598 262.501 143.593C260.211 149.589 259.879 155.032 261.76 155.751C263.64 156.47 267.021 152.194 269.31 146.198Z" fill="#07F9A2"/>
<path d="M267.363 166.17C269.418 153.5 260.821 141.561 248.161 139.505C235.502 137.449 223.574 146.054 221.52 158.724C219.465 171.394 228.062 183.333 240.722 185.389C253.381 187.445 265.309 178.84 267.363 166.17Z" fill="#07F9A2"/>
<path d="M240.914 180.687H233.859V193.338H240.914V180.687Z" fill="#07F9A2"/>
<path d="M255.023 180.687H247.969V193.338H255.023V180.687Z" fill="#07F9A2"/>
<path d="M239.738 195.692C242.985 195.692 245.617 194.704 245.617 193.485C245.617 192.266 242.985 191.279 239.738 191.279C236.491 191.279 233.859 192.266 233.859 193.485C233.859 194.704 236.491 195.692 239.738 195.692Z" fill="#07F9A2"/>
<path d="M253.848 195.397C257.095 195.397 259.727 194.409 259.727 193.191C259.727 191.972 257.095 190.984 253.848 190.984C250.601 190.984 247.969 191.972 247.969 193.191C247.969 194.409 250.601 195.397 253.848 195.397Z" fill="#07F9A2"/>
<path d="M221.916 140.833C220.04 132.428 226.034 123.936 235.303 121.864C244.572 119.793 253.606 124.927 255.481 133.331C257.356 141.736 251.213 144.836 241.944 146.907C232.675 148.979 223.791 149.237 221.916 140.833Z" fill="#E6E6E6"/>
<path d="M228.777 156.643C229.639 154.822 225.642 151.117 219.848 148.366C214.054 145.616 208.658 144.862 207.795 146.683C206.932 148.503 210.93 152.209 216.724 154.959C222.518 157.709 227.914 158.463 228.777 156.643Z" fill="#07F9A2"/>
<path d="M181.883 395.399C194.708 395.399 205.105 384.993 205.105 372.157C205.105 359.321 194.708 348.915 181.883 348.915C169.058 348.915 158.661 359.321 158.661 372.157C158.661 384.993 169.058 395.399 181.883 395.399Z" fill="#07F9A2"/>
<path d="M178.355 390.398H171.301V403.048H178.355V390.398Z" fill="#07F9A2"/>
<path d="M192.465 390.398H185.41V403.048H192.465V390.398Z" fill="#07F9A2"/>
<path d="M177.18 405.402C180.427 405.402 183.059 404.414 183.059 403.195C183.059 401.977 180.427 400.989 177.18 400.989C173.933 400.989 171.301 401.977 171.301 403.195C171.301 404.414 173.933 405.402 177.18 405.402Z" fill="#07F9A2"/>
<path d="M191.289 405.108C194.536 405.108 197.168 404.12 197.168 402.901C197.168 401.682 194.536 400.695 191.289 400.695C188.042 400.695 185.41 401.682 185.41 402.901C185.41 404.12 188.042 405.108 191.289 405.108Z" fill="#07F9A2"/>
<path d="M182.471 374.217C186.854 374.217 190.407 370.66 190.407 366.273C190.407 361.886 186.854 358.33 182.471 358.33C178.087 358.33 174.534 361.886 174.534 366.273C174.534 370.66 178.087 374.217 182.471 374.217Z" fill="white"/>
<path d="M182.471 368.921C183.932 368.921 185.116 367.736 185.116 366.273C185.116 364.811 183.932 363.625 182.471 363.625C181.01 363.625 179.825 364.811 179.825 366.273C179.825 367.736 181.01 368.921 182.471 368.921Z" fill="#3C3C3C"/>
<path d="M159.357 350.543C157.482 342.138 163.476 333.646 172.744 331.575C182.013 329.503 191.047 334.637 192.922 343.042C194.797 351.446 188.654 354.546 179.386 356.617C170.117 358.689 161.232 358.948 159.357 350.543Z" fill="#E6E6E6"/>
<path d="M195.439 292.468C197.492 288.673 198.291 285.128 197.222 284.549C196.154 283.97 193.623 286.577 191.57 290.372C189.516 294.167 188.718 297.713 189.786 298.292C190.855 298.871 193.385 296.263 195.439 292.468Z" fill="#07F9A2"/>
<path d="M196.868 309.097C198.922 296.426 190.325 284.488 177.666 282.432C165.006 280.376 153.079 288.98 151.024 301.651C148.97 314.321 157.567 326.259 170.226 328.315C182.886 330.372 194.814 321.767 196.868 309.097Z" fill="#07F9A2"/>
<path d="M170.419 323.614H163.364V336.265H170.419V323.614Z" fill="#07F9A2"/>
<path d="M184.528 323.614H177.474V336.265H184.528V323.614Z" fill="#07F9A2"/>
<path d="M169.243 338.618C172.49 338.618 175.122 337.63 175.122 336.412C175.122 335.193 172.49 334.205 169.243 334.205C165.996 334.205 163.364 335.193 163.364 336.412C163.364 337.63 165.996 338.618 169.243 338.618Z" fill="#07F9A2"/>
<path d="M183.353 338.324C186.599 338.324 189.232 337.336 189.232 336.118C189.232 334.899 186.599 333.911 183.353 333.911C180.106 333.911 177.474 334.899 177.474 336.118C177.474 337.336 180.106 338.324 183.353 338.324Z" fill="#07F9A2"/>
<path d="M174.534 307.433C178.917 307.433 182.471 303.877 182.471 299.49C182.471 295.103 178.917 291.546 174.534 291.546C170.151 291.546 166.598 295.103 166.598 299.49C166.598 303.877 170.151 307.433 174.534 307.433Z" fill="white"/>
<path d="M174.534 302.138C175.995 302.138 177.18 300.952 177.18 299.49C177.18 298.027 175.995 296.842 174.534 296.842C173.073 296.842 171.889 298.027 171.889 299.49C171.889 300.952 173.073 302.138 174.534 302.138Z" fill="#3C3C3C"/>
<path d="M151.42 283.759C149.545 275.355 155.539 266.862 164.808 264.791C174.077 262.72 183.11 267.854 184.986 276.258C186.861 284.663 180.718 287.763 171.449 289.834C162.18 291.905 153.295 292.164 151.42 283.759Z" fill="#E6E6E6"/>
<path d="M158.282 299.569C159.144 297.749 155.147 294.043 149.353 291.293C143.559 288.543 138.163 287.789 137.3 289.609C136.437 291.43 140.435 295.135 146.229 297.886C152.023 300.636 157.419 301.39 158.282 299.569Z" fill="#07F9A2"/>
<path d="M162.54 313.758C162.54 316.033 168.392 320.525 174.885 320.525C181.379 320.525 187.468 314.121 187.468 311.846C187.468 309.571 181.379 312.287 174.885 312.287C168.392 312.287 162.54 311.484 162.54 313.758Z" fill="white"/>
<rect y="74" width="642" height="342" fill="url(#paint3_linear)"/>
<rect y="74" width="642" height="342" fill="url(#paint4_linear)"/>
<rect y="74" width="642" height="342" fill="url(#paint5_linear)"/>
<defs>
<linearGradient id="paint0_linear" x1="498.766" y1="103.763" x2="108.188" y2="103.763" gradientUnits="userSpaceOnUse">
<stop stop-color="#07F9A2"/>
<stop offset="1" stop-color="#0E5159"/>
</linearGradient>
<linearGradient id="paint1_linear" x1="228.692" y1="409" x2="225.714" y2="187.234" gradientUnits="userSpaceOnUse">
<stop stop-color="#151515"/>
<stop offset="1" stop-color="#373737"/>
</linearGradient>
<linearGradient id="paint2_linear" x1="341.063" y1="253.77" x2="341.063" y2="409" gradientUnits="userSpaceOnUse">
<stop stop-color="#C1BFC7"/>
<stop offset="1" stop-color="#0E0E0E"/>
</linearGradient>
<linearGradient id="paint3_linear" x1="4.78327e-06" y1="245" x2="642" y2="245" gradientUnits="userSpaceOnUse">
<stop offset="0.0439469" stop-color="#020E17"/>
<stop offset="0.410643" stop-color="#020E17" stop-opacity="0"/>
</linearGradient>
<linearGradient id="paint4_linear" x1="321" y1="74" x2="322.036" y2="436.999" gradientUnits="userSpaceOnUse">
<stop offset="0.561797" stop-color="#020E17" stop-opacity="0"/>
<stop offset="0.92608" stop-color="#020E17"/>
</linearGradient>
<linearGradient id="paint5_linear" x1="0" y1="245" x2="621.5" y2="245" gradientUnits="userSpaceOnUse">
<stop offset="0.546626" stop-color="#020E17" stop-opacity="0"/>
<stop offset="1" stop-color="#020E17"/>
</linearGradient>
</defs>
</svg>