<svg width="681" height="952" viewBox="0 0 681 952" fill="none" xmlns="http://www.w3.org/2000/svg">
<path d="M340.481 0C185.322 0 102.689 126.585 102.689 217.975C102.689 269.775 133.563 356.687 340.481 356.687C547.398 356.687 578.272 269.775 578.272 217.975C578.274 113.15 487.358 0 340.481 0ZM340.481 317.056C266.488 317.056 142.32 304.176 142.32 217.977C142.32 143.191 211.161 39.6332 340.481 39.6332C475.665 39.6332 538.641 146.045 538.641 217.977C538.641 304.174 414.475 317.056 340.481 317.056Z" fill="url(#paint0_linear)"/>
<path d="M601.814 373.888C596.621 369.688 589.725 368.339 583.504 370.282C530.039 386.571 439.164 396.321 340.481 396.321C241.639 396.321 150.723 386.571 97.3386 370.243C86.7179 366.914 75.7795 372.939 72.5693 383.361C71.5791 386.77 71.4602 390.257 72.1736 393.467C104.196 727.167 211.915 951.166 340.481 951.166C469.403 951.166 577.321 726.097 609.027 391.087C609.622 384.509 606.928 378.05 601.814 373.888ZM340.481 911.535C239.776 911.535 146.205 704.617 114.302 415.582C171.847 428.502 253.529 435.952 340.481 435.952C427.393 435.952 509.075 428.501 566.659 415.582C534.758 704.656 441.226 911.535 340.481 911.535Z" fill="url(#paint1_linear)"/>
<path d="M201.77 515.216C212.714 515.216 221.587 506.344 221.587 495.4C221.587 484.455 212.714 475.583 201.77 475.583C190.826 475.583 181.953 484.455 181.953 495.4C181.953 506.344 190.826 515.216 201.77 515.216Z" fill="url(#paint2_linear)"/>
<path d="M281.033 515.216C291.977 515.216 300.849 506.344 300.849 495.4C300.849 484.455 291.977 475.583 281.033 475.583C270.088 475.583 261.216 484.455 261.216 495.4C261.216 506.344 270.088 515.216 281.033 515.216Z" fill="url(#paint3_linear)"/>
<path d="M360.297 515.216C371.242 515.216 380.114 506.344 380.114 495.4C380.114 484.455 371.242 475.583 360.297 475.583C349.353 475.583 340.481 484.455 340.481 495.4C340.481 506.344 349.353 515.216 360.297 515.216Z" fill="url(#paint4_linear)"/>
<path d="M295.261 204.144C277.822 186.271 258.799 177.829 238.628 178.502C208.111 179.848 188.534 202.836 186.393 205.452C179.498 213.933 180.766 226.417 189.286 233.353C192.933 236.326 197.371 237.792 201.77 237.792C207.516 237.792 213.223 235.295 217.147 230.5C217.227 230.381 227.53 218.649 240.37 218.096C249.011 217.858 257.61 222.337 266.845 231.769C274.454 239.655 287.018 239.774 294.865 232.164C302.713 224.555 302.87 211.991 295.261 204.144Z" fill="url(#paint5_linear)"/>
<path d="M493.46 204.183C476.181 186.349 457.158 177.631 437.183 178.541C406.627 179.769 386.852 202.757 384.671 205.372C377.736 213.775 378.925 226.06 387.247 233.075C395.689 240.09 408.015 238.981 415.108 230.736C415.227 230.617 425.69 218.57 438.967 218.172C447.884 218.767 455.969 222.491 464.966 231.765C468.851 235.769 474.002 237.79 479.195 237.79C484.149 237.79 489.143 235.927 492.986 232.202C500.873 224.594 501.07 212.031 493.46 204.183Z" fill="url(#paint6_linear)"/>
<path d="M171.847 880.741C109.665 787.408 62.662 635.578 39.5164 453.272C38.0896 442.413 28.0634 434.724 17.3219 436.112C6.46334 437.499 -1.22587 447.407 0.161867 458.265C24.0599 646.516 73.3218 804.371 138.833 902.698C142.677 908.444 148.94 911.535 155.321 911.535C159.126 911.535 162.969 910.465 166.339 908.206C175.455 902.181 177.911 889.855 171.847 880.741Z" fill="url(#paint7_linear)"/>
<path d="M663.68 436.11C652.98 434.722 642.873 442.411 641.486 453.27C618.34 635.576 571.337 787.406 509.155 880.739C503.091 889.855 505.588 902.14 514.663 908.204C518.031 910.463 521.836 911.533 525.64 911.533C532.022 911.533 538.282 908.442 542.167 902.696C607.678 804.369 656.901 646.514 680.838 458.263C682.228 447.405 674.5 437.497 663.68 436.11Z" fill="url(#paint8_linear)"/>
<defs>
<linearGradient id="paint0_linear" x1="363.328" y1="414.436" x2="286.11" y2="16.5094" gradientUnits="userSpaceOnUse">
<stop stop-color="#0E5159"/>
<stop offset="0.927083" stop-color="#07F9A2"/>
</linearGradient>
<linearGradient id="paint1_linear" x1="662.878" y1="885.456" x2="-15.6878" y2="161.255" gradientUnits="userSpaceOnUse">
<stop stop-color="#0E5159"/>
<stop offset="0.927083" stop-color="#07F9A2"/>
</linearGradient>
<linearGradient id="paint2_linear" x1="221.591" y1="495.06" x2="181.953" y2="495.091" gradientUnits="userSpaceOnUse">
<stop stop-color="#15AB89"/>
<stop offset="1" stop-color="#2FDF84"/>
</linearGradient>
<linearGradient id="paint3_linear" x1="300.854" y1="495.06" x2="261.216" y2="495.091" gradientUnits="userSpaceOnUse">
<stop stop-color="#15AB89"/>
<stop offset="1" stop-color="#2FDF84"/>
</linearGradient>
<linearGradient id="paint4_linear" x1="380.118" y1="495.06" x2="340.48" y2="495.091" gradientUnits="userSpaceOnUse">
<stop stop-color="#15AB89"/>
<stop offset="1" stop-color="#2FDF84"/>
</linearGradient>
<linearGradient id="paint5_linear" x1="280.897" y1="306.538" x2="223.471" y2="156.011" gradientUnits="userSpaceOnUse">
<stop stop-color="#0E5159"/>
<stop offset="0.927083" stop-color="#07F9A2"/>
</linearGradient>
<linearGradient id="paint6_linear" x1="439.881" y1="279.994" x2="420.706" y2="159.047" gradientUnits="userSpaceOnUse">
<stop stop-color="#0E5159"/>
<stop offset="0.927083" stop-color="#07F9A2"/>
</linearGradient>
<linearGradient id="paint7_linear" x1="341.211" y1="936.24" x2="-48.9572" y2="422.124" gradientUnits="userSpaceOnUse">
<stop stop-color="#0E5159"/>
<stop offset="0.927083" stop-color="#07F9A2"/>
</linearGradient>
<linearGradient id="paint8_linear" x1="776.163" y1="882.066" x2="531.17" y2="438.355" gradientUnits="userSpaceOnUse">
<stop stop-color="#0E5159"/>
<stop offset="0.927083" stop-color="#07F9A2"/>
</linearGradient>
</defs>
</svg>
