<svg width="53" height="51" viewBox="0 0 53 51" fill="none" xmlns="http://www.w3.org/2000/svg">
<path d="M40.7814 48.875V43.6528C40.7814 40.8828 39.6918 38.2262 37.7524 36.2675C35.8129 34.3088 33.1825 33.2084 30.4397 33.2084H12.3417C9.59892 33.2084 6.96846 34.3088 5.02902 36.2675C3.08957 38.2262 2 40.8828 2 43.6528V48.875" stroke="white" stroke-opacity="0.6" stroke-width="3" stroke-linecap="round" stroke-linejoin="round"/>
<path d="M21.3905 22.7639C27.1021 22.7639 31.7322 18.0878 31.7322 12.3194C31.7322 6.55114 27.1021 1.875 21.3905 1.875C15.679 1.875 11.0488 6.55114 11.0488 12.3194C11.0488 18.0878 15.679 22.7639 21.3905 22.7639Z" stroke="white" stroke-opacity="0.6" stroke-width="3" stroke-linecap="round" stroke-linejoin="round"/>
<path d="M43.2437 12.9412V28.6078" stroke="white" stroke-opacity="0.6" stroke-width="3" stroke-linecap="round" stroke-linejoin="round"/>
<path d="M50.9999 20.7744H35.4873" stroke="white" stroke-opacity="0.6" stroke-width="3" stroke-linecap="round" stroke-linejoin="round"/>
</svg>
