<svg width="50" height="50" viewBox="0 0 50 50" fill="none" xmlns="http://www.w3.org/2000/svg">
<g clip-path="url(#clip0)">
<path d="M46.148 31.4096C45.4602 31.4096 44.9028 31.967 44.9028 32.6549V43.7114C44.9003 45.7739 43.2295 47.4452 41.167 47.4472H6.22629C4.16383 47.4452 2.49295 45.7739 2.49052 43.7114V11.2612C2.49295 9.19923 4.16383 7.52786 6.22629 7.52543H17.2828C17.9706 7.52543 18.5281 6.96798 18.5281 6.28017C18.5281 5.59285 17.9706 5.03491 17.2828 5.03491H6.22629C2.78919 5.0388 0.00389143 7.8241 0 11.2612V43.7119C0.00389143 47.149 2.78919 49.9343 6.22629 49.9382H41.167C44.6041 49.9343 47.3894 47.149 47.3933 43.7119V32.6549C47.3933 31.967 46.8358 31.4096 46.148 31.4096Z" fill="#F4F4F4"/>
<path d="M46.9001 1.83079C44.7116 -0.357658 41.1636 -0.357658 38.9751 1.83079L16.7589 24.047C16.6067 24.1992 16.4967 24.388 16.4393 24.5952L13.5179 35.1424C13.3977 35.5749 13.5198 36.038 13.837 36.3556C14.1546 36.6727 14.6177 36.7948 15.0501 36.6752L25.5974 33.7532C25.8046 33.6958 25.9933 33.5859 26.1456 33.4336L48.3613 11.2169C50.5463 9.02702 50.5463 5.48193 48.3613 3.29202L46.9001 1.83079ZM19.4722 24.8564L37.6545 6.67368L43.5184 12.5376L25.3357 30.7203L19.4722 24.8564ZM18.3009 27.2068L22.9857 31.8921L16.5055 33.6875L18.3009 27.2068ZM46.6004 9.45605L45.2798 10.7767L39.4154 4.91232L40.7365 3.59166C41.9521 2.37607 43.9231 2.37607 45.1387 3.59166L46.6004 5.0529C47.8141 6.26994 47.8141 8.23949 46.6004 9.45605Z" fill="#F4F4F4"/>
</g>
<defs>
<clipPath id="clip0">
<rect width="50" height="50" fill="white"/>
</clipPath>
</defs>
</svg>
