<svg width="50" height="50" viewBox="0 0 50 50" fill="none" xmlns="http://www.w3.org/2000/svg">
<path fill-rule="evenodd" clip-rule="evenodd" d="M13.0647 16.6328C13.577 16.8021 14.1293 16.5244 14.2983 16.0121C15.8315 11.3753 20.1447 8.26025 25.0317 8.26025C31.2638 8.26025 36.3343 13.3304 36.3343 19.5628C36.3343 24.3796 34.1767 27.2574 32.4433 29.5699C31.1822 31.2518 30.0931 32.7048 30.0931 34.4668C30.0931 34.5828 30.0916 34.6976 30.0889 34.8117H26.0083V32.5683C26.0083 32.0289 25.5711 31.5917 25.0317 31.5917C24.4923 31.5917 24.0552 32.0289 24.0552 32.5683V34.8117H19.9742C19.9715 34.6976 19.97 34.5828 19.97 34.4668C19.97 32.7045 18.8809 31.2518 17.6198 29.5695C16.343 27.8663 14.8961 25.9357 14.1786 23.1925C14.042 22.6707 13.5079 22.3582 12.9865 22.4948C12.465 22.631 12.1526 23.165 12.2891 23.6865C13.1036 26.8004 14.7412 28.9855 16.0573 30.741C17.1521 32.2017 18.0169 33.3552 18.0169 34.4668C18.0169 34.9345 18.0367 35.3908 18.0753 35.826V44.0864C18.0753 44.1127 18.0772 44.1382 18.0791 44.1638C18.0798 44.1699 18.0795 44.1764 18.0802 44.1825C18.0837 44.2187 18.0894 44.2538 18.0966 44.2889C18.4358 45.8797 19.304 47.327 20.5422 48.3626C21.8041 49.4185 23.3987 49.9999 25.0317 49.9999C26.6648 49.9999 28.259 49.4185 29.5213 48.3626C30.7591 47.327 31.6277 45.8804 31.9665 44.2897L31.9669 44.2885C31.9741 44.2538 31.9794 44.2187 31.9833 44.1825C31.9836 44.1764 31.9836 44.1699 31.984 44.1638C31.9859 44.1379 31.9878 44.1123 31.9878 44.086V35.826C32.0264 35.3908 32.0466 34.9345 32.0466 34.4668C32.0466 33.3552 32.9114 32.2017 34.0062 30.741C35.8128 28.3309 38.2874 25.0304 38.2874 19.5628C38.2874 12.2535 32.3407 6.30713 25.0317 6.30713C19.3005 6.30713 14.2423 9.96085 12.444 15.3991C12.2746 15.911 12.5527 16.4634 13.0647 16.6328ZM25.0317 48.0468C23.0462 48.0468 21.2556 46.8459 20.4072 45.0625H29.6563C28.8075 46.8459 27.0169 48.0468 25.0317 48.0468ZM30.0351 43.1094H20.0284V40.9137H30.0351V43.1094ZM30.0351 38.9606H20.0284V36.7648H30.0351V38.9606Z" fill="#F4F4F4"/>
<path fill-rule="evenodd" clip-rule="evenodd" d="M25.0317 4.55513C25.5711 4.55513 26.0083 4.11797 26.0083 3.57857V0.976562C26.0083 0.437164 25.5711 0 25.0317 0C24.4923 0 24.0552 0.437164 24.0552 0.976562V3.57857C24.0552 4.11797 24.4923 4.55513 25.0317 4.55513Z" fill="#F4F4F4"/>
<path fill-rule="evenodd" clip-rule="evenodd" d="M6.44531 20.5396H9.04732C9.58672 20.5396 10.0239 20.1024 10.0239 19.563C10.0239 19.0236 9.58672 18.5864 9.04732 18.5864H6.44531C5.90591 18.5864 5.46875 19.0236 5.46875 19.563C5.46875 20.1024 5.90591 20.5396 6.44531 20.5396Z" fill="#F4F4F4"/>
<path fill-rule="evenodd" clip-rule="evenodd" d="M13.0386 8.9507C13.2294 9.14143 13.4792 9.2368 13.7291 9.2368C13.9789 9.2368 14.2288 9.14143 14.4195 8.9507C14.801 8.56923 14.801 7.95087 14.4195 7.56978L12.5797 5.72995C12.1982 5.34848 11.5799 5.34848 11.1984 5.72995C10.8173 6.11104 10.8173 6.7294 11.1984 7.11087L13.0386 8.9507Z" fill="#F4F4F4"/>
<path fill-rule="evenodd" clip-rule="evenodd" d="M11.2157 34.3555C11.4655 34.3555 11.7154 34.2601 11.9061 34.0694L13.746 32.2295C14.1274 31.8481 14.1274 31.2301 13.746 30.8486C13.3645 30.4671 12.7461 30.4671 12.365 30.8486L10.5248 32.6884C10.1437 33.0699 10.1437 33.6883 10.5248 34.0694C10.7156 34.2601 10.9654 34.3555 11.2157 34.3555Z" fill="#F4F4F4"/>
<path fill-rule="evenodd" clip-rule="evenodd" d="M36.3343 9.2368C36.5841 9.2368 36.834 9.14143 37.0247 8.95069L38.8646 7.11086C39.246 6.72939 39.246 6.11103 38.8646 5.72956C38.4835 5.34809 37.8651 5.34847 37.4836 5.72956L35.6438 7.56939C35.2623 7.95086 35.2623 8.56922 35.6434 8.95069C35.8342 9.14143 36.0844 9.2368 36.3343 9.2368Z" fill="#F4F4F4"/>
<path fill-rule="evenodd" clip-rule="evenodd" d="M36.3174 30.8486C35.9359 31.2297 35.9359 31.8481 36.3174 32.2295L38.1572 34.0694C38.3479 34.2601 38.5978 34.3555 38.8476 34.3555C39.0975 34.3555 39.3474 34.2601 39.5381 34.0694C39.9196 33.6883 39.9196 33.0699 39.5381 32.6884L37.6983 30.8486C37.3168 30.4671 36.6984 30.4671 36.3174 30.8486Z" fill="#F4F4F4"/>
<path fill-rule="evenodd" clip-rule="evenodd" d="M41.0161 20.5396H43.6181C44.1575 20.5396 44.5947 20.1024 44.5947 19.563C44.5947 19.0236 44.1575 18.5864 43.6181 18.5864H41.0161C40.4767 18.5864 40.0396 19.0236 40.0396 19.563C40.0396 20.1024 40.4767 20.5396 41.0161 20.5396Z" fill="#F4F4F4"/>
<path fill-rule="evenodd" clip-rule="evenodd" d="M13.729 19.563C13.729 19.0251 13.2903 18.5864 12.7524 18.5864C12.2142 18.5864 11.7759 19.0251 11.7759 19.563C11.7759 20.1009 12.2142 20.5396 12.7524 20.5396C13.2903 20.5396 13.729 20.1009 13.729 19.563Z" fill="#F4F4F4"/>
<path d="M32.49 19.9046C32.488 19.3576 32.3561 18.8188 32.1052 18.3327C31.8543 17.8466 31.4917 17.4269 31.047 17.1083C31.1971 16.3408 31.0816 15.5451 30.7197 14.8518C30.3578 14.1586 29.7708 13.609 29.0553 13.2934C28.3398 12.9778 27.5382 12.9149 26.7822 13.1151C26.0262 13.3152 25.3607 13.7665 24.8951 14.3948C24.4633 13.8118 23.8585 13.38 23.1669 13.1609C22.4753 12.9418 21.7321 12.9466 21.0434 13.1746C20.3547 13.4027 19.7555 13.8423 19.3313 14.4309C18.9071 15.0194 18.6796 15.7269 18.681 16.4524C18.6797 16.6729 18.7029 16.8929 18.7501 17.1083C18.3026 17.4242 17.9374 17.8429 17.6851 18.3291C17.4328 18.8154 17.3007 19.355 17.3001 19.9028C17.2994 20.4506 17.4301 20.9906 17.6812 21.4775C17.9323 21.9643 18.2965 22.3839 18.7432 22.7009C18.5925 23.4687 18.7077 24.2649 19.0698 24.9585C19.432 25.6521 20.0196 26.2016 20.7357 26.5167C21.4519 26.8318 22.2541 26.8936 23.0101 26.692C23.7661 26.4904 24.4309 26.0374 24.8951 25.4075C25.3254 25.9922 25.9295 26.4259 26.6212 26.6466C27.3128 26.8672 28.0565 26.8635 28.7459 26.636C29.4353 26.4085 30.0351 25.9688 30.4596 25.3799C30.884 24.7909 31.1114 24.0828 31.1091 23.3569C31.1105 23.1363 31.0873 22.9164 31.0401 22.7009C31.4873 22.3842 31.8522 21.9652 32.1044 21.4787C32.3566 20.9923 32.4889 20.4526 32.49 19.9046ZM24.2046 23.3569C24.2046 23.9062 23.9864 24.4331 23.598 24.8215C23.2095 25.21 22.6827 25.4282 22.1333 25.4282C21.5839 25.4282 21.0571 25.21 20.6686 24.8215C20.2802 24.4331 20.0619 23.9062 20.0619 23.3569C20.0619 23.3293 20.0688 23.3085 20.0688 23.2878C20.2941 23.332 20.5229 23.3551 20.7524 23.3569C21.3582 23.3556 21.9533 23.1962 22.4785 22.8943L21.7881 21.6929C21.4965 21.8664 21.1659 21.9637 20.8268 21.9757C20.4877 21.9878 20.1511 21.9143 19.8479 21.7619C19.4971 21.593 19.2013 21.3281 18.9948 20.9981C18.7883 20.668 18.6794 20.2862 18.6809 19.8968C18.6823 19.5074 18.794 19.1265 19.003 18.7979C19.2119 18.4694 19.5097 18.2067 19.8617 18.0404C20.164 17.8928 20.4983 17.8224 20.8345 17.8357C21.1707 17.8489 21.4983 17.9454 21.7881 18.1164L22.4785 16.915C21.7471 16.503 20.8925 16.3658 20.0688 16.5283C20.0688 16.5007 20.0619 16.48 20.0619 16.4524C20.0618 15.9469 20.2465 15.4588 20.5813 15.0801C20.916 14.7014 21.3777 14.4581 21.8794 14.3962C22.381 14.3342 22.888 14.4578 23.3049 14.7437C23.7217 15.0296 24.0196 15.458 24.1425 15.9483C24.1857 16.1128 24.2066 16.2823 24.2046 16.4524V23.3569ZM29.9285 21.7688C29.6262 21.9165 29.2919 21.9868 28.9557 21.9736C28.6195 21.9603 28.2919 21.8639 28.0021 21.6929L27.3117 22.8943C27.8369 23.1962 28.4319 23.3556 29.0378 23.3569C29.2673 23.3551 29.4961 23.332 29.7213 23.2878C29.7213 23.3085 29.7282 23.3293 29.7282 23.3569C29.7282 23.9062 29.51 24.4331 29.1216 24.8215C28.7331 25.21 28.2063 25.4282 27.6569 25.4282C27.1075 25.4282 26.5807 25.21 26.1922 24.8215C25.8038 24.4331 25.5855 23.9062 25.5855 23.3569V16.4524C25.5833 16.2773 25.6066 16.1029 25.6546 15.9345C25.7831 15.4493 26.0834 15.0272 26.4998 14.7467C26.9161 14.4663 27.4202 14.3466 27.9181 14.4099C28.4161 14.4732 28.8742 14.7152 29.2071 15.0909C29.5401 15.4666 29.7253 15.9504 29.7282 16.4524C29.7282 16.48 29.7213 16.5007 29.7213 16.5283C28.8978 16.362 28.0419 16.4994 27.3117 16.915L28.0021 18.1164C28.2937 17.9428 28.6243 17.8456 28.9634 17.8335C29.3025 17.8214 29.6391 17.895 29.9423 18.0473C30.2931 18.2163 30.5889 18.4811 30.7954 18.8112C31.0019 19.1413 31.1108 19.5231 31.1093 19.9124C31.1079 20.3018 30.9962 20.6828 30.7872 21.0113C30.5783 21.3398 30.2805 21.6025 29.9285 21.7688Z" fill="#F4F4F4"/>
</svg>
