<svg width="50" height="53" viewBox="0 0 50 53" fill="none" xmlns="http://www.w3.org/2000/svg">
<g clip-path="url(#clip0)">
<path d="M48.0458 24.4023H6.68272L13.5347 17.1825C14.2992 16.3768 14.3021 15.0674 13.5412 14.2579C12.7803 13.4483 11.5436 13.4453 10.779 14.2509L0.573547 25.0045C0.572864 25.0052 0.572375 25.0059 0.571789 25.0065C-0.190807 25.8122 -0.193249 27.1258 0.571594 27.9342C0.572278 27.9348 0.572766 27.9355 0.573352 27.9361L10.7788 38.6898C11.5433 39.4953 12.78 39.4925 13.541 38.6828C14.302 37.8732 14.299 36.5639 13.5345 35.7582L6.68272 28.5383H48.0458C49.1245 28.5383 49.9989 27.6125 49.9989 26.4703C49.9989 25.3282 49.1245 24.4023 48.0458 24.4023Z" fill="#F4F4F4"/>
</g>
<defs>
<clipPath id="clip0">
<rect width="50" height="52.9412" fill="white"/>
</clipPath>
</defs>
</svg>
