<svg width="60" height="59" viewBox="0 0 60 59" fill="none" xmlns="http://www.w3.org/2000/svg">
<path d="M57.6327 29.5487C57.6327 23.4678 52.3592 18.4631 45.6523 17.9296V7.38132C45.6523 4.75958 44.7366 2.87871 43.0918 2.08567C41.4536 1.29523 39.3979 1.74393 37.3032 3.36523L18.6327 18.3939H10.6136C5.48097 18.3939 1.30444 22.6187 1.30444 27.1904V31.9057C1.30444 36.4774 5.48097 40.4922 10.6136 40.4922H18.3784L37.3227 55.7452C38.7301 56.8344 40.1245 57.3913 41.3871 57.3913C41.9884 57.3913 42.5636 57.2661 43.0932 57.0104C44.7392 56.2187 45.6523 54.3365 45.6523 51.7148V41.1678C52.3579 40.6331 57.6327 35.6296 57.6327 29.5487ZM3.91314 31.9057V27.1904C3.91314 23.8983 6.77488 20.9935 10.6136 20.9935H18.261V37.8926H10.6136C6.77488 37.8926 3.91314 35.1978 3.91314 31.9057ZM43.0436 51.7135C43.0436 53.3765 42.7188 54.5478 41.9349 54.9248C41.164 55.3044 40.0853 54.9352 38.7901 53.9335L20.751 39.4096C20.8201 39.2844 20.8697 39.1578 20.8697 39.0365V20.0596C20.8697 19.9383 20.8201 19.8013 20.7497 19.6618L38.7079 5.17697C40.0201 4.1635 41.1588 3.79567 41.9336 4.17002C42.7188 4.54828 43.0436 5.71697 43.0436 7.38132V51.7135ZM45.6523 38.8422V20.2552C51.0614 20.7691 55.2849 24.7383 55.2849 29.5487C55.2849 34.3565 51.0614 38.3283 45.6523 38.8422Z" fill="white"/>
<path d="M5.21729 54.7826L57.3912 2.60864" stroke="white" stroke-width="2" stroke-miterlimit="10" stroke-linecap="round" stroke-linejoin="round"/>
</svg>
