<svg width="50" height="50" viewBox="0 0 50 50" fill="none" xmlns="http://www.w3.org/2000/svg">
<g clip-path="url(#clip0)">
<path d="M46.6668 10C44.8284 10 43.3335 11.495 43.3335 13.3333C43.3335 15.1716 44.8285 16.6666 46.6668 16.6666C48.5051 16.6666 50.0001 15.1717 50.0001 13.3333C50.0001 11.495 48.5051 10 46.6668 10ZM46.6668 15C45.7477 15 45.0001 14.2525 45.0001 13.3333C45.0001 12.4142 45.7476 11.6666 46.6668 11.6666C47.586 11.6666 48.3335 12.4141 48.3335 13.3333C48.3334 14.2525 47.5859 15 46.6668 15Z" fill="#F4F4F4"/>
<path d="M3.3333 37.5C1.49502 37.5 0 38.995 0 40.8333C0 42.6716 1.49502 44.1666 3.3333 44.1666C5.17168 44.1666 6.6666 42.6716 6.6666 40.8333C6.6666 38.995 5.17168 37.5 3.3333 37.5ZM3.3333 42.5C2.41416 42.5 1.6666 41.7525 1.6666 40.8333C1.6666 39.9141 2.41406 39.1666 3.3333 39.1666C4.25244 39.1666 5 39.9141 5 40.8333C5 41.7525 4.25254 42.5 3.3333 42.5Z" fill="#F4F4F4"/>
<path d="M45.0509 11.0534L37.8617 7.5826C37.4467 7.38172 36.9492 7.55672 36.7492 7.97098C36.5492 8.38514 36.7233 8.88348 37.1376 9.08348L44.3267 12.5543C44.4434 12.6109 44.5668 12.6376 44.6884 12.6376C44.9983 12.6376 45.2959 12.4642 45.4391 12.1659C45.6391 11.7517 45.465 11.2534 45.0509 11.0534Z" fill="#F4F4F4"/>
<path d="M37.5 43.3333C35.6617 43.3333 34.1667 44.8283 34.1667 46.6666C34.1667 48.5049 35.6617 50 37.5 50C39.3384 50 40.8334 48.505 40.8334 46.6667C40.8334 44.8284 39.3384 43.3333 37.5 43.3333ZM37.5 48.3333C36.5809 48.3333 35.8334 47.5858 35.8334 46.6666C35.8334 45.7473 36.5809 45 37.5 45C38.4192 45 39.1667 45.7474 39.1667 46.6667C39.1667 47.5859 38.4192 48.3333 37.5 48.3333Z" fill="#F4F4F4"/>
<path d="M35.8841 44.3868L28.695 40.916C28.2799 40.7151 27.7825 40.8893 27.5825 41.3044C27.3825 41.7185 27.5566 42.2169 27.9708 42.4169L35.16 45.8877C35.2767 45.9443 35.4 45.971 35.5216 45.971C35.8316 45.971 36.1291 45.7976 36.2725 45.4993C36.4724 45.085 36.2983 44.5868 35.8841 44.3868Z" fill="#F4F4F4"/>
<path d="M25 22.5C23.1617 22.5 21.6667 23.995 21.6667 25.8333C21.6667 27.6717 23.1618 29.1666 25 29.1666C26.8384 29.1666 28.3333 27.6716 28.3333 25.8333C28.3333 23.995 26.8384 22.5 25 22.5ZM25 27.5C24.0809 27.5 23.3333 26.7525 23.3333 25.8333C23.3333 24.9142 24.0808 24.1666 25 24.1666C25.9192 24.1666 26.6667 24.9141 26.6667 25.8333C26.6667 26.7525 25.9192 27.5 25 27.5Z" fill="#F4F4F4"/>
<path d="M23.535 23.6468L18.0126 19.3426C17.6492 19.0617 17.1259 19.1242 16.8425 19.4876C16.56 19.851 16.6242 20.3742 16.9876 20.6576L22.51 24.9618C22.6626 25.0801 22.8425 25.1377 23.0217 25.1377C23.2701 25.1377 23.5151 25.0277 23.68 24.8169C23.9626 24.4534 23.8984 23.9301 23.535 23.6468Z" fill="#F4F4F4"/>
<path d="M40 21.6667C34.9458 21.6667 30.8333 25.7792 30.8333 30.8334C30.8333 35.8876 34.9458 40.0001 40 40.0001C45.0541 40.0001 49.1666 35.8876 49.1666 30.8334C49.1666 25.7792 45.0541 21.6667 40 21.6667ZM40 38.3333C35.8641 38.3333 32.4999 34.9692 32.4999 30.8333C32.4999 26.6975 35.8641 23.3333 40 23.3333C44.1358 23.3333 47.4999 26.6975 47.4999 30.8333C47.4999 34.9692 44.1358 38.3333 40 38.3333Z" fill="#F4F4F4"/>
<path d="M40 25C38.1617 25 36.6667 26.495 36.6667 28.3333C36.6667 30.1717 38.1618 31.6666 40 31.6666C41.8384 31.6666 43.3334 30.1716 43.3334 28.3333C43.3334 26.495 41.8384 25 40 25ZM40 30C39.0809 30 38.3333 29.2525 38.3333 28.3333C38.3333 27.4142 39.0808 26.6666 40 26.6666C40.9192 26.6666 41.6667 27.4141 41.6667 28.3333C41.6667 29.2525 40.9192 30 40 30Z" fill="#F4F4F4"/>
<path d="M42.4175 33.3333H37.5825C36.1584 33.3333 35 34.4608 35 35.8458V38.0424C35 38.3399 35.1583 38.6149 35.4158 38.7641C36.8125 39.5724 38.3975 40 40 40C41.6025 40 43.1875 39.5724 44.5842 38.7641C44.8417 38.6158 45 38.3399 45 38.0433V35.8466C45 34.4608 43.8417 33.3333 42.4175 33.3333ZM43.3333 37.5458C41.2592 38.5791 38.7408 38.5791 36.6666 37.5458V35.8466C36.6666 35.3799 37.0774 34.9999 37.5824 34.9999H42.4174C42.9224 34.9999 43.3332 35.3799 43.3332 35.8466V37.5458H43.3333Z" fill="#F4F4F4"/>
<path d="M19.9999 31.6667C14.9457 31.6667 10.8333 35.7792 10.8333 40.8334C10.8333 45.8876 14.9457 50 19.9999 50C25.0541 50 29.1666 45.8875 29.1666 40.8333C29.1666 35.7791 25.0541 31.6667 19.9999 31.6667ZM19.9999 48.3333C15.8641 48.3333 12.5 44.9692 12.5 40.8333C12.5 36.6975 15.8641 33.3334 19.9999 33.3334C24.1358 33.3334 27.4999 36.6975 27.4999 40.8333C27.4999 44.9692 24.1358 48.3333 19.9999 48.3333Z" fill="#F4F4F4"/>
<path d="M20 35C18.1617 35 16.6667 36.495 16.6667 38.3333C16.6667 40.1717 18.1618 41.6666 20 41.6666C21.8383 41.6666 23.3333 40.1716 23.3333 38.3333C23.3333 36.495 21.8384 35 20 35ZM20 40C19.0809 40 18.3333 39.2525 18.3333 38.3333C18.3333 37.4142 19.0808 36.6666 20 36.6666C20.9192 36.6666 21.6667 37.4141 21.6667 38.3333C21.6667 39.2525 20.9192 40 20 40Z" fill="#F4F4F4"/>
<path d="M22.4175 43.3333H17.5825C16.1584 43.3333 15 44.4608 15 45.8458V48.0424C15 48.3399 15.1583 48.6149 15.4158 48.7641C16.8125 49.5724 18.3975 50 20 50C21.6025 50 23.1875 49.5724 24.5842 48.7641C24.8417 48.6158 25 48.34 25 48.0433V45.8466C25 44.4608 23.8417 43.3333 22.4175 43.3333ZM23.3333 47.5458C21.2591 48.5791 18.7408 48.5791 16.6666 47.5458V45.8466C16.6666 45.3799 17.0774 45 17.5824 45H22.4174C22.9224 45 23.3332 45.3799 23.3332 45.8466V47.5458H23.3333Z" fill="#F4F4F4"/>
<path d="M9.1667 10.8333C4.1125 10.8333 0 14.9457 0 19.9999C0 25.0541 4.1125 29.1666 9.1667 29.1666C14.2209 29.1666 18.3334 25.0541 18.3334 19.9999C18.3333 14.9457 14.2208 10.8333 9.1667 10.8333ZM9.1667 27.4999C5.03086 27.4999 1.6667 24.1358 1.6667 19.9999C1.6667 15.8641 5.03086 12.5 9.1667 12.5C13.3025 12.5 16.6667 15.8641 16.6667 19.9999C16.6667 24.1358 13.3025 27.4999 9.1667 27.4999Z" fill="#F4F4F4"/>
<path d="M9.1668 14.1667C7.32842 14.1667 5.8335 15.6618 5.8335 17.5C5.8335 19.3383 7.32852 20.8333 9.1668 20.8333C11.0052 20.8333 12.5001 19.3383 12.5001 17.5C12.5001 15.6618 11.0051 14.1667 9.1668 14.1667ZM9.1668 19.1667C8.24766 19.1667 7.5001 18.4193 7.5001 17.5C7.5001 16.5808 8.24756 15.8333 9.1668 15.8333C10.0859 15.8333 10.8335 16.5808 10.8335 17.5C10.8335 18.4193 10.0859 19.1667 9.1668 19.1667Z" fill="#F4F4F4"/>
<path d="M11.5842 22.5H6.74927C5.32515 22.5 4.16675 23.6275 4.16675 25.0125V27.2092C4.16675 27.5066 4.32505 27.7816 4.58257 27.9309C5.97925 28.7392 7.56421 29.1667 9.16675 29.1667C10.7693 29.1667 12.3543 28.7392 13.7509 27.9309C14.0085 27.7825 14.1668 27.5066 14.1668 27.2101V25.0134C14.1668 23.6275 13.0084 22.5 11.5842 22.5ZM12.5001 26.7125C10.4259 27.7458 7.90757 27.7458 5.83335 26.7125V25.0134C5.83335 24.5467 6.24419 24.1667 6.74917 24.1667H11.5841C12.0891 24.1667 12.5 24.5467 12.5 25.0134V26.7125H12.5001Z" fill="#F4F4F4"/>
<path d="M29.1667 0C24.1125 0 20 4.1125 20 9.1667C20 14.2209 24.1125 18.3334 29.1667 18.3334C34.2209 18.3334 38.3334 14.2209 38.3334 9.1667C38.3333 4.1125 34.2208 0 29.1667 0ZM29.1667 16.6667C25.0309 16.6667 21.6667 13.3025 21.6667 9.1667C21.6667 5.03086 25.0309 1.6667 29.1667 1.6667C33.3025 1.6667 36.6667 5.03086 36.6667 9.1667C36.6667 13.3025 33.3025 16.6667 29.1667 16.6667Z" fill="#F4F4F4"/>
<path d="M29.1668 3.33325C27.3284 3.33325 25.8335 4.82827 25.8335 6.66655C25.8335 8.50483 27.3285 9.99985 29.1668 9.99985C31.0051 9.99985 32.5001 8.50493 32.5001 6.66665C32.5001 4.82837 31.0051 3.33325 29.1668 3.33325ZM29.1668 8.33325C28.2477 8.33325 27.5001 7.58579 27.5001 6.66655C27.5001 5.74741 28.2476 4.99985 29.1668 4.99985C30.086 4.99985 30.8335 5.74731 30.8335 6.66655C30.8334 7.58579 30.0859 8.33325 29.1668 8.33325Z" fill="#F4F4F4"/>
<path d="M31.5842 11.6667H26.7493C25.3251 11.6667 24.1667 12.7943 24.1667 14.1792V16.3759C24.1667 16.6734 24.325 16.9484 24.5826 17.0976C25.9792 17.9059 27.5642 18.3334 29.1667 18.3334C30.7693 18.3334 32.3542 17.9059 33.7509 17.0976C34.0084 16.9493 34.1667 16.6734 34.1667 16.3768V14.1801C34.1667 12.7942 33.0083 11.6667 31.5842 11.6667ZM32.5 15.8792C30.4259 16.9125 27.9076 16.9125 25.8333 15.8792V14.1801C25.8333 13.7134 26.2442 13.3334 26.7492 13.3334H31.5841C32.0891 13.3334 32.4999 13.7134 32.4999 14.1801V15.8792H32.5Z" fill="#F4F4F4"/>
<path d="M21.4674 8.62403C21.1683 8.27569 20.6424 8.234 20.2924 8.53321L14.5174 13.4749C14.1674 13.774 14.1266 14.2999 14.4257 14.6499C14.5907 14.8424 14.824 14.9416 15.059 14.9416C15.2507 14.9416 15.4432 14.8758 15.6007 14.7407L21.3757 9.79904C21.7258 9.49991 21.7666 8.97404 21.4674 8.62403Z" fill="#F4F4F4"/>
<path d="M39.8332 22.0009L34.8332 15.3342C34.5574 14.965 34.0349 14.8925 33.6665 15.1675C33.2982 15.4433 33.2241 15.9658 33.4999 16.3333L38.4998 23C38.664 23.2183 38.914 23.3333 39.1673 23.3333C39.3407 23.3333 39.5165 23.2791 39.6665 23.1666C40.0349 22.8908 40.1091 22.3683 39.8332 22.0009Z" fill="#F4F4F4"/>
<path d="M32.9941 33.5892C32.7182 33.2208 32.1957 33.1467 31.8274 33.4225L27.1724 36.9133C26.8041 37.1892 26.7299 37.7116 27.0057 38.0791C27.1699 38.2975 27.4199 38.4124 27.6732 38.4124C27.8473 38.4124 28.0223 38.3574 28.1724 38.2457L32.8274 34.7549C33.1957 34.4792 33.27 33.9566 32.9941 33.5892Z" fill="#F4F4F4"/>
<path d="M11.6667 40H5.8333C5.37334 40 5 40.3725 5 40.8333C5 41.2941 5.37334 41.6666 5.8333 41.6666H11.6666C12.1266 41.6666 12.4999 41.2941 12.4999 40.8333C12.4999 40.3725 12.1267 40 11.6667 40Z" fill="#F4F4F4"/>
<path d="M9.16665 0C7.32827 0 5.83325 1.49502 5.83325 3.3333C5.83325 5.17168 7.32827 6.6666 9.16655 6.6666C11.0049 6.6666 12.4999 5.17158 12.4999 3.3333C12.5 1.49502 11.0049 0 9.16665 0ZM9.16665 5C8.24751 5 7.49995 4.25254 7.49995 3.3333C7.49995 2.41416 8.24741 1.6666 9.16665 1.6666C10.0858 1.6666 10.8333 2.41406 10.8333 3.3333C10.8333 4.25254 10.0858 5 9.16665 5Z" fill="#F4F4F4"/>
<path d="M9.1668 5C8.70684 5 8.3335 5.37246 8.3335 5.8333V11.6666C8.3335 12.1274 8.70684 12.4999 9.1668 12.4999C9.62676 12.4999 10.0001 12.1274 10.0001 11.6666V5.8333C10.0001 5.37246 9.62676 5 9.1668 5Z" fill="#F4F4F4"/>
</g>
<defs>
<clipPath id="clip0">
<rect width="50" height="50" fill="white"/>
</clipPath>
</defs>
</svg>
