<svg width="50" height="50" viewBox="0 0 50 50" fill="none" xmlns="http://www.w3.org/2000/svg">
<g clip-path="url(#clip0)">
<path d="M9.86326 24.7158C4.4247 24.7158 0 29.1405 0 34.5791C0 36.8311 0.778612 39.0318 2.19316 40.7798C2.1957 40.7832 2.19834 40.7866 2.20097 40.7899L2.95195 41.7524C3.28359 42.1775 3.89736 42.2534 4.32255 41.9216C4.74775 41.5898 4.82353 40.9762 4.49169 40.5509L3.76083 39.6141C3.75048 39.5999 3.73964 39.5859 3.72851 39.5722C2.58369 38.1676 1.95312 36.3942 1.95312 34.5791C1.95312 30.2174 5.50165 26.6689 9.86326 26.6689C14.2249 26.6689 17.7734 30.2174 17.7734 34.5791C17.7734 36.4139 17.1311 38.2017 15.9647 39.6135C15.9398 39.6435 15.9171 39.6748 15.8964 39.707L9.86346 47.4361L9.42361 46.8722C9.09178 46.4471 8.47821 46.3712 8.05291 46.703C7.62772 47.0348 7.55194 47.6484 7.88368 48.0737L9.09334 49.6242C9.2785 49.8613 9.56248 50 9.86326 50.0001C9.86326 50.0001 9.86326 50.0001 9.86336 50.0001C10.1641 50.0001 10.4481 49.8615 10.6332 49.6244L17.4926 40.8364C17.5064 40.8189 17.5193 40.801 17.5316 40.7828C18.9476 39.0337 19.7265 36.8346 19.7265 34.5791C19.7265 29.1404 15.3018 24.7158 9.86326 24.7158Z" fill="#F4F4F4"/>
<path d="M7.04871 43.8282L7.01687 43.7875C6.68494 43.3625 6.07108 43.2871 5.64618 43.6192C5.22108 43.9513 5.14579 44.565 5.47782 44.99L5.50965 45.0308C5.70223 45.2772 5.98953 45.4061 6.27986 45.4061C6.49002 45.4061 6.70193 45.3386 6.88035 45.199C7.30545 44.867 7.38074 44.2532 7.04871 43.8282Z" fill="#F4F4F4"/>
<path d="M9.86327 29.0569C6.74013 29.0569 4.19922 31.5978 4.19922 34.7209C4.19922 37.8441 6.74013 40.385 9.86327 40.385C12.9864 40.385 15.5273 37.8441 15.5273 34.7209C15.5273 31.5978 12.9864 29.0569 9.86327 29.0569ZM9.86327 38.4319C7.81708 38.4319 6.15234 36.7671 6.15234 34.7209C6.15234 32.6747 7.81708 31.01 9.86327 31.01C11.9095 31.01 13.5742 32.6747 13.5742 34.7209C13.5742 36.7671 11.9095 38.4319 9.86327 38.4319Z" fill="#F4F4F4"/>
<path d="M49.5118 5.54353L40.1368 0.130847C39.8347 -0.0436645 39.4624 -0.0435668 39.1602 0.130847C38.8581 0.305261 38.672 0.627623 38.672 0.976548V17.6757H37.0547C36.5154 17.6757 36.0781 18.1129 36.0781 18.6523C36.0781 19.1917 36.5154 19.6289 37.0547 19.6289H42.2423C42.7815 19.6289 43.2188 19.1917 43.2188 18.6523C43.2188 18.1129 42.7815 17.6757 42.2423 17.6757H40.625V12.3657L49.5117 7.23494C49.8138 7.06052 50 6.73816 50 6.38923C50 6.04031 49.8139 5.71795 49.5118 5.54353ZM40.6251 10.1104V8.6445V2.66805L47.0704 6.38923L40.6251 10.1104Z" fill="#F4F4F4"/>
<path d="M31.0874 9.02832H30.8433C30.304 9.02832 29.8667 9.46553 29.8667 10.0049C29.8667 10.5442 30.304 10.9814 30.8433 10.9814H31.0874C31.6267 10.9814 32.064 10.5442 32.064 10.0049C32.064 9.46553 31.6266 9.02832 31.0874 9.02832Z" fill="#F4F4F4"/>
<path d="M20.6076 23.7453C20.471 23.7039 20.334 23.6575 20.2004 23.6072C19.6952 23.4169 19.1323 23.6722 18.9423 24.1769C18.7523 24.6816 19.0072 25.2449 19.512 25.435C19.6859 25.5004 19.8643 25.561 20.0421 25.6148C20.1364 25.6433 20.2316 25.6569 20.3252 25.6569C20.7445 25.6569 21.132 25.3847 21.2596 24.9627C21.4158 24.4465 21.1238 23.9014 20.6076 23.7453Z" fill="#F4F4F4"/>
<path d="M22.4087 9.94223C22.3334 9.40824 21.8392 9.03637 21.3052 9.11176C21.1215 9.13774 20.9361 9.17016 20.7542 9.20815C20.2264 9.31869 19.888 9.83617 19.9984 10.3641C20.0948 10.8245 20.5009 11.1408 20.9533 11.1408C21.0196 11.1408 21.0869 11.134 21.1544 11.1199C21.2943 11.0906 21.4369 11.0656 21.5781 11.0456C22.1122 10.9703 22.484 10.4762 22.4087 9.94223Z" fill="#F4F4F4"/>
<path d="M17.1777 21.2733C17.0947 21.1565 17.0147 21.0356 16.94 20.9141C16.6575 20.4548 16.0556 20.3116 15.5966 20.5941C15.1373 20.8767 14.9939 21.4781 15.2765 21.9375C15.3737 22.0954 15.4776 22.2525 15.5853 22.4041C15.7757 22.6723 16.0767 22.8153 16.3824 22.8153C16.5779 22.8153 16.7753 22.7567 16.9469 22.6349C17.3867 22.3226 17.49 21.713 17.1777 21.2733Z" fill="#F4F4F4"/>
<path d="M17.792 11.5851C17.4047 11.21 16.7865 11.2197 16.4112 11.6072C16.2814 11.7412 16.1549 11.8806 16.0354 12.0215C15.6867 12.4328 15.7374 13.0491 16.1487 13.3979C16.3323 13.5536 16.5566 13.6297 16.7798 13.6297C17.0568 13.6297 17.3319 13.5125 17.5251 13.2847C17.6168 13.1765 17.7142 13.0693 17.8141 12.9661C18.1894 12.5787 18.1795 11.9604 17.792 11.5851Z" fill="#F4F4F4"/>
<path d="M15.1504 15.7129C14.6164 15.6555 14.1326 16.0425 14.0745 16.5786C14.0545 16.7633 14.0403 16.9506 14.0324 17.1356C14.0095 17.6745 14.4277 18.1299 14.9667 18.1529C14.9808 18.1535 14.9949 18.1537 15.0089 18.1537C15.5291 18.1537 15.9616 17.7434 15.9838 17.2187C15.9899 17.0761 16.0008 16.9315 16.0163 16.789C16.0743 16.2528 15.6867 15.771 15.1504 15.7129Z" fill="#F4F4F4"/>
<path d="M26.3878 9.02832H25.8928C25.3536 9.02832 24.9163 9.46553 24.9163 10.0049C24.9163 10.5442 25.3536 10.9814 25.8928 10.9814H26.3878C26.9271 10.9814 27.3644 10.5442 27.3644 10.0049C27.3644 9.46553 26.9271 9.02832 26.3878 9.02832Z" fill="#F4F4F4"/>
<path d="M25 24.0234H24.7559C24.2166 24.0234 23.7793 24.4606 23.7793 25C23.7793 25.5394 24.2166 25.9766 24.7559 25.9766H25C25.5393 25.9766 25.9766 25.5393 25.9766 25C25.9766 24.4606 25.5393 24.0234 25 24.0234Z" fill="#F4F4F4"/>
<path d="M21.4355 39.0186H21.1914C20.6521 39.0186 20.2148 39.4558 20.2148 39.9951C20.2148 40.5345 20.6521 40.9717 21.1914 40.9717H21.4355C21.9748 40.9717 22.4121 40.5345 22.4121 39.9951C22.4121 39.4558 21.9748 39.0186 21.4355 39.0186Z" fill="#F4F4F4"/>
<path d="M31.094 39.0186H30.6111C30.0718 39.0186 29.6345 39.4558 29.6345 39.9951C29.6345 40.5345 30.0718 40.9717 30.6111 40.9717H31.094C31.6332 40.9717 32.0706 40.5345 32.0706 39.9951C32.0706 39.4558 31.6333 39.0186 31.094 39.0186Z" fill="#F4F4F4"/>
<path d="M39.7194 35.1582C39.2433 34.9041 38.6519 35.0843 38.3982 35.5601C38.3324 35.6834 38.2619 35.8058 38.1888 35.9239C37.9049 36.3825 38.0466 36.9844 38.5052 37.2683C38.6654 37.3674 38.8428 37.4147 39.0182 37.4147C39.3453 37.4147 39.6648 37.2504 39.8496 36.9519C39.9446 36.7985 40.0359 36.6396 40.1212 36.4796C40.3751 36.0037 40.1953 35.4121 39.7194 35.1582Z" fill="#F4F4F4"/>
<path d="M26.2649 39.0186H25.782C25.2427 39.0186 24.8054 39.4558 24.8054 39.9951C24.8054 40.5345 25.2427 40.9717 25.782 40.9717H26.2649C26.8041 40.9717 27.2415 40.5345 27.2415 39.9951C27.2415 39.4558 26.8042 39.0186 26.2649 39.0186Z" fill="#F4F4F4"/>
<path d="M41.079 31.7332C41.0629 31.5527 41.0408 31.3704 41.013 31.1914C40.9305 30.6584 40.4307 30.2934 39.8985 30.3759C39.3655 30.4585 39.0004 30.9575 39.0829 31.4904C39.1042 31.6281 39.1214 31.7682 39.1338 31.9069C39.1791 32.4146 39.6052 32.7967 40.1053 32.7967C40.1344 32.7967 40.1638 32.7954 40.1933 32.7928C40.7305 32.7447 41.1272 32.2704 41.079 31.7332Z" fill="#F4F4F4"/>
<path d="M38.9289 26.8187C38.8074 26.6842 38.6802 26.5521 38.5509 26.4262C38.1644 26.0498 37.5461 26.058 37.1698 26.4444C36.7935 26.8309 36.8017 27.4491 37.1881 27.8254C37.2878 27.9226 37.386 28.0245 37.4799 28.1283C37.6728 28.3417 37.9381 28.4501 38.2047 28.4501C38.4381 28.45 38.6724 28.3668 38.8592 28.1979C39.2594 27.8363 39.2905 27.2187 38.9289 26.8187Z" fill="#F4F4F4"/>
<path d="M34.2602 24.1783C34.0827 24.1439 33.9013 24.1148 33.7216 24.0918C33.1861 24.0231 32.6974 24.4018 32.6291 24.9367C32.5607 25.4717 32.939 25.9608 33.4739 26.0292C33.6124 26.0469 33.7518 26.0692 33.8884 26.0958C33.9512 26.108 34.0137 26.1138 34.0753 26.1138C34.5337 26.1137 34.9427 25.7895 35.0331 25.3229C35.1357 24.7935 34.7897 24.2811 34.2602 24.1783Z" fill="#F4F4F4"/>
<path d="M36.7037 38.8741C36.4744 38.3859 35.893 38.1757 35.4046 38.4052C35.279 38.4642 35.1493 38.5199 35.0192 38.571C34.517 38.768 34.2697 39.3346 34.4666 39.8367C34.6176 40.2218 34.986 40.457 35.3761 40.457C35.4947 40.457 35.6153 40.4352 35.7324 40.3893C35.9018 40.3228 36.0709 40.2501 36.2348 40.1732C36.7229 39.944 36.9328 39.3624 36.7037 38.8741Z" fill="#F4F4F4"/>
<path d="M29.2468 24.0234H29.0027C28.4634 24.0234 28.0261 24.4606 28.0261 25C28.0261 25.5394 28.4634 25.9766 29.0027 25.9766H29.2468C29.7862 25.9766 30.2234 25.5393 30.2234 25C30.2234 24.4606 29.7861 24.0234 29.2468 24.0234Z" fill="#F4F4F4"/>
</g>
<defs>
<clipPath id="clip0">
<rect width="50" height="50" fill="white"/>
</clipPath>
</defs>
</svg>
