<svg width="43" height="43" viewBox="0 0 43 43" fill="none" xmlns="http://www.w3.org/2000/svg">
<path d="M21.4999 39.4167C31.395 39.4167 39.4166 31.3951 39.4166 21.5C39.4166 11.6049 31.395 3.58337 21.4999 3.58337C11.6048 3.58337 3.58325 11.6049 3.58325 21.5C3.58325 31.3951 11.6048 39.4167 21.4999 39.4167Z" stroke="white" stroke-width="2" stroke-linecap="round" stroke-linejoin="round"/>
<path d="M21.5 32.25C27.4371 32.25 32.25 27.4371 32.25 21.5C32.25 15.5629 27.4371 10.75 21.5 10.75C15.5629 10.75 10.75 15.5629 10.75 21.5C10.75 27.4371 15.5629 32.25 21.5 32.25Z" stroke="white" stroke-width="2" stroke-linecap="round" stroke-linejoin="round"/>
<path d="M21.5001 25.0833C23.4791 25.0833 25.0834 23.479 25.0834 21.5C25.0834 19.5209 23.4791 17.9166 21.5001 17.9166C19.5211 17.9166 17.9167 19.5209 17.9167 21.5C17.9167 23.479 19.5211 25.0833 21.5001 25.0833Z" fill="white" stroke="white" stroke-width="2" stroke-linecap="round" stroke-linejoin="round"/>
</svg>
