<svg width="87" height="87" viewBox="0 0 87 87" fill="none" xmlns="http://www.w3.org/2000/svg">
<path d="M55.6667 15V23.1429V15ZM55.6667 39.4286V47.5714V39.4286ZM55.6667 63.8571V72V63.8571ZM15.1111 15C12.9599 15 10.8968 15.8579 9.37569 17.385C7.85456 18.9121 7 20.9832 7 23.1429V35.3571C9.1512 35.3571 11.2143 36.2151 12.7354 37.7421C14.2566 39.2692 15.1111 41.3404 15.1111 43.5C15.1111 45.6596 14.2566 47.7308 12.7354 49.2579C11.2143 50.785 9.1512 51.6429 7 51.6429V63.8571C7 66.0168 7.85456 68.0879 9.37569 69.615C10.8968 71.1421 12.9599 72 15.1111 72H71.8889C74.0401 72 76.1032 71.1421 77.6243 69.615C79.1454 68.0879 80 66.0168 80 63.8571V51.6429C77.8488 51.6429 75.7857 50.785 74.2646 49.2579C72.7434 47.7308 71.8889 45.6596 71.8889 43.5C71.8889 41.3404 72.7434 39.2692 74.2646 37.7421C75.7857 36.2151 77.8488 35.3571 80 35.3571V23.1429C80 20.9832 79.1454 18.9121 77.6243 17.385C76.1032 15.8579 74.0401 15 71.8889 15H15.1111Z" stroke="#2FDF84" stroke-width="2" stroke-linecap="round" stroke-linejoin="round"/>
</svg>
