<svg width="89" height="89" viewBox="0 0 89 89" fill="none" xmlns="http://www.w3.org/2000/svg">
<path d="M63.0416 77.875V70.4583C63.0416 66.5243 61.4788 62.7514 58.697 59.9696C55.9152 57.1878 52.1423 55.625 48.2082 55.625H18.5416C14.6075 55.625 10.8346 57.1878 8.05283 59.9696C5.27105 62.7514 3.70825 66.5243 3.70825 70.4583V77.875" stroke="#2FDF84" stroke-width="3" stroke-linecap="round" stroke-linejoin="round"/>
<path d="M33.3751 40.7917C41.5673 40.7917 48.2084 34.1506 48.2084 25.9583C48.2084 17.7661 41.5673 11.125 33.3751 11.125C25.1829 11.125 18.5417 17.7661 18.5417 25.9583C18.5417 34.1506 25.1829 40.7917 33.3751 40.7917Z" stroke="#2FDF84" stroke-width="3" stroke-linecap="round" stroke-linejoin="round"/>
<path d="M85.2917 77.875V70.4583C85.2893 67.1717 84.1954 63.979 82.1818 61.3815C80.1682 58.7839 77.349 56.9287 74.1667 56.1071" stroke="#2FDF84" stroke-width="3" stroke-linecap="round" stroke-linejoin="round"/>
<path d="M59.3333 11.6071C62.524 12.424 65.352 14.2797 67.3716 16.8815C69.3911 19.4833 70.4873 22.6832 70.4873 25.9768C70.4873 29.2705 69.3911 32.4704 67.3716 35.0722C65.352 37.674 62.524 39.5297 59.3333 40.3466" stroke="#2FDF84" stroke-width="3" stroke-linecap="round" stroke-linejoin="round"/>
</svg>
