<svg width="43" height="43" viewBox="0 0 43 43" fill="none" xmlns="http://www.w3.org/2000/svg">
<path d="M21.1939 20.7133C24.0395 20.7133 26.5033 19.6927 28.5169 17.679C30.5299 15.6657 31.5509 13.2023 31.5509 10.3563C31.5509 7.51134 30.5303 5.04758 28.5166 3.0336C26.503 1.02061 24.0392 0 21.1939 0C18.3479 0 15.8845 1.02061 13.8712 3.03393C11.8578 5.04725 10.8369 7.51101 10.8369 10.3563C10.8369 13.2023 11.8578 15.666 13.8712 17.6793C15.8852 19.6923 18.3489 20.7133 21.1939 20.7133ZM15.6532 4.81564C17.1981 3.27079 19.0103 2.51985 21.1939 2.51985C23.3772 2.51985 25.1897 3.27079 26.7349 4.81564C28.2798 6.36082 29.031 8.17337 29.031 10.3563C29.031 12.5399 28.2798 14.3521 26.7349 15.8973C25.1897 17.4425 23.3772 18.1934 21.1939 18.1934C19.011 18.1934 17.1987 17.4421 15.6532 15.8973C14.108 14.3524 13.3568 12.5399 13.3568 10.3563C13.3568 8.17337 14.108 6.36082 15.6532 4.81564Z" fill="#F4F4F4"/>
<path d="M39.3155 33.0648C39.2574 32.2269 39.14 31.3129 38.9671 30.3478C38.7926 29.3754 38.5679 28.4562 38.2988 27.616C38.0206 26.7476 37.643 25.8901 37.1756 25.0683C36.691 24.2153 36.1215 23.4726 35.4824 22.8614C34.8141 22.222 33.996 21.7079 33.0498 21.3329C32.107 20.9599 31.0621 20.771 29.9444 20.771C29.5054 20.771 29.0809 20.9511 28.2611 21.4848C27.7565 21.8139 27.1663 22.1944 26.5076 22.6153C25.9443 22.9742 25.1812 23.3105 24.2387 23.6149C23.3191 23.9125 22.3854 24.0634 21.4636 24.0634C20.5424 24.0634 19.6087 23.9125 18.6885 23.6149C17.7469 23.3108 16.9835 22.9746 16.4212 22.6157C15.7687 22.1987 15.1782 21.8181 14.6661 21.4845C13.8469 20.9507 13.4224 20.7706 12.9835 20.7706C11.8654 20.7706 10.8209 20.9599 9.87833 21.3333C8.93285 21.7076 8.11433 22.2217 7.44541 22.8617C6.80634 23.4732 6.23682 24.2156 5.7526 25.0683C5.28577 25.8901 4.90784 26.7473 4.62964 27.6163C4.36095 28.4565 4.13623 29.3754 3.9617 30.3478C3.78848 31.3116 3.67136 32.2259 3.6133 33.0658C3.55621 33.8869 3.52734 34.7415 3.52734 35.605C3.52734 37.8496 4.24088 39.6667 5.64795 41.0069C7.03763 42.3293 8.8761 42.9999 11.1125 42.9999H31.8173C34.053 42.9999 35.8915 42.3293 37.2815 41.0069C38.6889 39.6677 39.4025 37.8499 39.4025 35.6047C39.4021 34.7383 39.3729 33.8836 39.3155 33.0648ZM35.5441 39.1812C34.6258 40.0552 33.4068 40.48 31.817 40.48H11.1125C9.52238 40.48 8.3033 40.0552 7.38538 39.1815C6.48484 38.3243 6.0472 37.1541 6.0472 35.605C6.0472 34.7993 6.07378 34.0037 6.12692 33.24C6.17876 32.4907 6.28472 31.6676 6.44186 30.793C6.59704 29.9292 6.79453 29.1185 7.02943 28.3846C7.25481 27.681 7.5622 26.9841 7.94341 26.3129C8.30724 25.6732 8.72585 25.1244 9.18776 24.6821C9.61982 24.2684 10.1644 23.9299 10.8061 23.676C11.3996 23.4411 12.0665 23.3125 12.7906 23.2931C12.8788 23.34 13.0359 23.4296 13.2905 23.5956C13.8085 23.9332 14.4056 24.3183 15.0657 24.7399C15.8097 25.2142 16.7683 25.6427 17.9136 26.0124C19.0845 26.391 20.2786 26.5833 21.4639 26.5833C22.6492 26.5833 23.8437 26.391 25.0139 26.0128C26.1601 25.6424 27.1184 25.2142 27.8635 24.7392C28.5389 24.3075 29.1193 23.9335 29.6373 23.5956C29.8919 23.4299 30.049 23.34 30.1373 23.2931C30.8616 23.3125 31.5286 23.4411 32.1224 23.676C32.7637 23.9299 33.3083 24.2688 33.7404 24.6821C34.2023 25.124 34.6209 25.6729 34.9847 26.3133C35.3663 26.9841 35.674 27.6813 35.8991 28.3843C36.1343 29.1192 36.3321 29.9295 36.4869 30.7926C36.6438 31.6689 36.7501 32.4923 36.8019 33.2403V33.241C36.8554 34.0017 36.8823 34.797 36.8826 35.605C36.8823 37.1544 36.4446 38.3243 35.5441 39.1812Z" fill="#F4F4F4"/>
</svg>
